%TF.GenerationSoftware,KiCad,Pcbnew,10.0.3*%
%TF.CreationDate,2026-08-05T20:19:51+03:00*%
%TF.ProjectId,sensor_node_custom_board,73656e73-6f72-45f6-9e6f-64655f637573,rev?*%
%TF.SameCoordinates,Original*%
%TF.FileFunction,Legend,Top*%
%TF.FilePolarity,Positive*%
%FSLAX46Y46*%
G04 Gerber Fmt 4.6, Leading zero omitted, Abs format (unit mm)*
G04 Created by KiCad (PCBNEW 10.0.3) date 2026-08-05 20:19:51*
%MOMM*%
%LPD*%
G01*
G04 APERTURE LIST*
%ADD10C,0.150000*%
%ADD11C,0.304800*%
%ADD12C,0.120000*%
%ADD13C,0.254000*%
%ADD14C,0.127000*%
%ADD15C,0.200000*%
%ADD16R,2.999740X2.999740*%
%ADD17C,2.999740*%
G04 APERTURE END LIST*
D10*
X208583333Y-59559580D02*
X208535714Y-59607200D01*
X208535714Y-59607200D02*
X208392857Y-59654819D01*
X208392857Y-59654819D02*
X208297619Y-59654819D01*
X208297619Y-59654819D02*
X208154762Y-59607200D01*
X208154762Y-59607200D02*
X208059524Y-59511961D01*
X208059524Y-59511961D02*
X208011905Y-59416723D01*
X208011905Y-59416723D02*
X207964286Y-59226247D01*
X207964286Y-59226247D02*
X207964286Y-59083390D01*
X207964286Y-59083390D02*
X208011905Y-58892914D01*
X208011905Y-58892914D02*
X208059524Y-58797676D01*
X208059524Y-58797676D02*
X208154762Y-58702438D01*
X208154762Y-58702438D02*
X208297619Y-58654819D01*
X208297619Y-58654819D02*
X208392857Y-58654819D01*
X208392857Y-58654819D02*
X208535714Y-58702438D01*
X208535714Y-58702438D02*
X208583333Y-58750057D01*
X208916667Y-58654819D02*
X209535714Y-58654819D01*
X209535714Y-58654819D02*
X209202381Y-59035771D01*
X209202381Y-59035771D02*
X209345238Y-59035771D01*
X209345238Y-59035771D02*
X209440476Y-59083390D01*
X209440476Y-59083390D02*
X209488095Y-59131009D01*
X209488095Y-59131009D02*
X209535714Y-59226247D01*
X209535714Y-59226247D02*
X209535714Y-59464342D01*
X209535714Y-59464342D02*
X209488095Y-59559580D01*
X209488095Y-59559580D02*
X209440476Y-59607200D01*
X209440476Y-59607200D02*
X209345238Y-59654819D01*
X209345238Y-59654819D02*
X209059524Y-59654819D01*
X209059524Y-59654819D02*
X208964286Y-59607200D01*
X208964286Y-59607200D02*
X208916667Y-59559580D01*
X179182142Y-117534580D02*
X179134523Y-117582200D01*
X179134523Y-117582200D02*
X178991666Y-117629819D01*
X178991666Y-117629819D02*
X178896428Y-117629819D01*
X178896428Y-117629819D02*
X178753571Y-117582200D01*
X178753571Y-117582200D02*
X178658333Y-117486961D01*
X178658333Y-117486961D02*
X178610714Y-117391723D01*
X178610714Y-117391723D02*
X178563095Y-117201247D01*
X178563095Y-117201247D02*
X178563095Y-117058390D01*
X178563095Y-117058390D02*
X178610714Y-116867914D01*
X178610714Y-116867914D02*
X178658333Y-116772676D01*
X178658333Y-116772676D02*
X178753571Y-116677438D01*
X178753571Y-116677438D02*
X178896428Y-116629819D01*
X178896428Y-116629819D02*
X178991666Y-116629819D01*
X178991666Y-116629819D02*
X179134523Y-116677438D01*
X179134523Y-116677438D02*
X179182142Y-116725057D01*
X180134523Y-117629819D02*
X179563095Y-117629819D01*
X179848809Y-117629819D02*
X179848809Y-116629819D01*
X179848809Y-116629819D02*
X179753571Y-116772676D01*
X179753571Y-116772676D02*
X179658333Y-116867914D01*
X179658333Y-116867914D02*
X179563095Y-116915533D01*
X180991666Y-116629819D02*
X180801190Y-116629819D01*
X180801190Y-116629819D02*
X180705952Y-116677438D01*
X180705952Y-116677438D02*
X180658333Y-116725057D01*
X180658333Y-116725057D02*
X180563095Y-116867914D01*
X180563095Y-116867914D02*
X180515476Y-117058390D01*
X180515476Y-117058390D02*
X180515476Y-117439342D01*
X180515476Y-117439342D02*
X180563095Y-117534580D01*
X180563095Y-117534580D02*
X180610714Y-117582200D01*
X180610714Y-117582200D02*
X180705952Y-117629819D01*
X180705952Y-117629819D02*
X180896428Y-117629819D01*
X180896428Y-117629819D02*
X180991666Y-117582200D01*
X180991666Y-117582200D02*
X181039285Y-117534580D01*
X181039285Y-117534580D02*
X181086904Y-117439342D01*
X181086904Y-117439342D02*
X181086904Y-117201247D01*
X181086904Y-117201247D02*
X181039285Y-117106009D01*
X181039285Y-117106009D02*
X180991666Y-117058390D01*
X180991666Y-117058390D02*
X180896428Y-117010771D01*
X180896428Y-117010771D02*
X180705952Y-117010771D01*
X180705952Y-117010771D02*
X180610714Y-117058390D01*
X180610714Y-117058390D02*
X180563095Y-117106009D01*
X180563095Y-117106009D02*
X180515476Y-117201247D01*
X179182142Y-111884580D02*
X179134523Y-111932200D01*
X179134523Y-111932200D02*
X178991666Y-111979819D01*
X178991666Y-111979819D02*
X178896428Y-111979819D01*
X178896428Y-111979819D02*
X178753571Y-111932200D01*
X178753571Y-111932200D02*
X178658333Y-111836961D01*
X178658333Y-111836961D02*
X178610714Y-111741723D01*
X178610714Y-111741723D02*
X178563095Y-111551247D01*
X178563095Y-111551247D02*
X178563095Y-111408390D01*
X178563095Y-111408390D02*
X178610714Y-111217914D01*
X178610714Y-111217914D02*
X178658333Y-111122676D01*
X178658333Y-111122676D02*
X178753571Y-111027438D01*
X178753571Y-111027438D02*
X178896428Y-110979819D01*
X178896428Y-110979819D02*
X178991666Y-110979819D01*
X178991666Y-110979819D02*
X179134523Y-111027438D01*
X179134523Y-111027438D02*
X179182142Y-111075057D01*
X180134523Y-111979819D02*
X179563095Y-111979819D01*
X179848809Y-111979819D02*
X179848809Y-110979819D01*
X179848809Y-110979819D02*
X179753571Y-111122676D01*
X179753571Y-111122676D02*
X179658333Y-111217914D01*
X179658333Y-111217914D02*
X179563095Y-111265533D01*
X181039285Y-110979819D02*
X180563095Y-110979819D01*
X180563095Y-110979819D02*
X180515476Y-111456009D01*
X180515476Y-111456009D02*
X180563095Y-111408390D01*
X180563095Y-111408390D02*
X180658333Y-111360771D01*
X180658333Y-111360771D02*
X180896428Y-111360771D01*
X180896428Y-111360771D02*
X180991666Y-111408390D01*
X180991666Y-111408390D02*
X181039285Y-111456009D01*
X181039285Y-111456009D02*
X181086904Y-111551247D01*
X181086904Y-111551247D02*
X181086904Y-111789342D01*
X181086904Y-111789342D02*
X181039285Y-111884580D01*
X181039285Y-111884580D02*
X180991666Y-111932200D01*
X180991666Y-111932200D02*
X180896428Y-111979819D01*
X180896428Y-111979819D02*
X180658333Y-111979819D01*
X180658333Y-111979819D02*
X180563095Y-111932200D01*
X180563095Y-111932200D02*
X180515476Y-111884580D01*
X220627142Y-113679580D02*
X220579523Y-113727200D01*
X220579523Y-113727200D02*
X220436666Y-113774819D01*
X220436666Y-113774819D02*
X220341428Y-113774819D01*
X220341428Y-113774819D02*
X220198571Y-113727200D01*
X220198571Y-113727200D02*
X220103333Y-113631961D01*
X220103333Y-113631961D02*
X220055714Y-113536723D01*
X220055714Y-113536723D02*
X220008095Y-113346247D01*
X220008095Y-113346247D02*
X220008095Y-113203390D01*
X220008095Y-113203390D02*
X220055714Y-113012914D01*
X220055714Y-113012914D02*
X220103333Y-112917676D01*
X220103333Y-112917676D02*
X220198571Y-112822438D01*
X220198571Y-112822438D02*
X220341428Y-112774819D01*
X220341428Y-112774819D02*
X220436666Y-112774819D01*
X220436666Y-112774819D02*
X220579523Y-112822438D01*
X220579523Y-112822438D02*
X220627142Y-112870057D01*
X221579523Y-113774819D02*
X221008095Y-113774819D01*
X221293809Y-113774819D02*
X221293809Y-112774819D01*
X221293809Y-112774819D02*
X221198571Y-112917676D01*
X221198571Y-112917676D02*
X221103333Y-113012914D01*
X221103333Y-113012914D02*
X221008095Y-113060533D01*
X221912857Y-112774819D02*
X222531904Y-112774819D01*
X222531904Y-112774819D02*
X222198571Y-113155771D01*
X222198571Y-113155771D02*
X222341428Y-113155771D01*
X222341428Y-113155771D02*
X222436666Y-113203390D01*
X222436666Y-113203390D02*
X222484285Y-113251009D01*
X222484285Y-113251009D02*
X222531904Y-113346247D01*
X222531904Y-113346247D02*
X222531904Y-113584342D01*
X222531904Y-113584342D02*
X222484285Y-113679580D01*
X222484285Y-113679580D02*
X222436666Y-113727200D01*
X222436666Y-113727200D02*
X222341428Y-113774819D01*
X222341428Y-113774819D02*
X222055714Y-113774819D01*
X222055714Y-113774819D02*
X221960476Y-113727200D01*
X221960476Y-113727200D02*
X221912857Y-113679580D01*
D11*
X36686285Y-124823181D02*
X36686285Y-125911752D01*
X36686285Y-125911752D02*
X36613714Y-126129467D01*
X36613714Y-126129467D02*
X36468571Y-126274610D01*
X36468571Y-126274610D02*
X36250857Y-126347181D01*
X36250857Y-126347181D02*
X36105714Y-126347181D01*
X37339428Y-124968324D02*
X37412000Y-124895752D01*
X37412000Y-124895752D02*
X37557143Y-124823181D01*
X37557143Y-124823181D02*
X37920000Y-124823181D01*
X37920000Y-124823181D02*
X38065143Y-124895752D01*
X38065143Y-124895752D02*
X38137714Y-124968324D01*
X38137714Y-124968324D02*
X38210285Y-125113467D01*
X38210285Y-125113467D02*
X38210285Y-125258610D01*
X38210285Y-125258610D02*
X38137714Y-125476324D01*
X38137714Y-125476324D02*
X37266857Y-126347181D01*
X37266857Y-126347181D02*
X38210285Y-126347181D01*
X39153714Y-124823181D02*
X39298857Y-124823181D01*
X39298857Y-124823181D02*
X39444000Y-124895752D01*
X39444000Y-124895752D02*
X39516572Y-124968324D01*
X39516572Y-124968324D02*
X39589143Y-125113467D01*
X39589143Y-125113467D02*
X39661714Y-125403752D01*
X39661714Y-125403752D02*
X39661714Y-125766610D01*
X39661714Y-125766610D02*
X39589143Y-126056895D01*
X39589143Y-126056895D02*
X39516572Y-126202038D01*
X39516572Y-126202038D02*
X39444000Y-126274610D01*
X39444000Y-126274610D02*
X39298857Y-126347181D01*
X39298857Y-126347181D02*
X39153714Y-126347181D01*
X39153714Y-126347181D02*
X39008572Y-126274610D01*
X39008572Y-126274610D02*
X38936000Y-126202038D01*
X38936000Y-126202038D02*
X38863429Y-126056895D01*
X38863429Y-126056895D02*
X38790857Y-125766610D01*
X38790857Y-125766610D02*
X38790857Y-125403752D01*
X38790857Y-125403752D02*
X38863429Y-125113467D01*
X38863429Y-125113467D02*
X38936000Y-124968324D01*
X38936000Y-124968324D02*
X39008572Y-124895752D01*
X39008572Y-124895752D02*
X39153714Y-124823181D01*
X35597714Y-138031181D02*
X35089714Y-137305467D01*
X34726857Y-138031181D02*
X34726857Y-136507181D01*
X34726857Y-136507181D02*
X35307428Y-136507181D01*
X35307428Y-136507181D02*
X35452571Y-136579752D01*
X35452571Y-136579752D02*
X35525142Y-136652324D01*
X35525142Y-136652324D02*
X35597714Y-136797467D01*
X35597714Y-136797467D02*
X35597714Y-137015181D01*
X35597714Y-137015181D02*
X35525142Y-137160324D01*
X35525142Y-137160324D02*
X35452571Y-137232895D01*
X35452571Y-137232895D02*
X35307428Y-137305467D01*
X35307428Y-137305467D02*
X34726857Y-137305467D01*
X36033142Y-136507181D02*
X36904000Y-136507181D01*
X36468571Y-138031181D02*
X36468571Y-136507181D01*
X37412000Y-138031181D02*
X37412000Y-136507181D01*
X37412000Y-136507181D02*
X37774857Y-136507181D01*
X37774857Y-136507181D02*
X37992571Y-136579752D01*
X37992571Y-136579752D02*
X38137714Y-136724895D01*
X38137714Y-136724895D02*
X38210285Y-136870038D01*
X38210285Y-136870038D02*
X38282857Y-137160324D01*
X38282857Y-137160324D02*
X38282857Y-137378038D01*
X38282857Y-137378038D02*
X38210285Y-137668324D01*
X38210285Y-137668324D02*
X38137714Y-137813467D01*
X38137714Y-137813467D02*
X37992571Y-137958610D01*
X37992571Y-137958610D02*
X37774857Y-138031181D01*
X37774857Y-138031181D02*
X37412000Y-138031181D01*
X39734285Y-138031181D02*
X38863428Y-138031181D01*
X39298857Y-138031181D02*
X39298857Y-136507181D01*
X39298857Y-136507181D02*
X39153714Y-136724895D01*
X39153714Y-136724895D02*
X39008571Y-136870038D01*
X39008571Y-136870038D02*
X38863428Y-136942610D01*
X40242286Y-136507181D02*
X41185714Y-136507181D01*
X41185714Y-136507181D02*
X40677714Y-137087752D01*
X40677714Y-137087752D02*
X40895429Y-137087752D01*
X40895429Y-137087752D02*
X41040572Y-137160324D01*
X41040572Y-137160324D02*
X41113143Y-137232895D01*
X41113143Y-137232895D02*
X41185714Y-137378038D01*
X41185714Y-137378038D02*
X41185714Y-137740895D01*
X41185714Y-137740895D02*
X41113143Y-137886038D01*
X41113143Y-137886038D02*
X41040572Y-137958610D01*
X41040572Y-137958610D02*
X40895429Y-138031181D01*
X40895429Y-138031181D02*
X40460000Y-138031181D01*
X40460000Y-138031181D02*
X40314857Y-137958610D01*
X40314857Y-137958610D02*
X40242286Y-137886038D01*
D10*
X256727142Y-87099580D02*
X256679523Y-87147200D01*
X256679523Y-87147200D02*
X256536666Y-87194819D01*
X256536666Y-87194819D02*
X256441428Y-87194819D01*
X256441428Y-87194819D02*
X256298571Y-87147200D01*
X256298571Y-87147200D02*
X256203333Y-87051961D01*
X256203333Y-87051961D02*
X256155714Y-86956723D01*
X256155714Y-86956723D02*
X256108095Y-86766247D01*
X256108095Y-86766247D02*
X256108095Y-86623390D01*
X256108095Y-86623390D02*
X256155714Y-86432914D01*
X256155714Y-86432914D02*
X256203333Y-86337676D01*
X256203333Y-86337676D02*
X256298571Y-86242438D01*
X256298571Y-86242438D02*
X256441428Y-86194819D01*
X256441428Y-86194819D02*
X256536666Y-86194819D01*
X256536666Y-86194819D02*
X256679523Y-86242438D01*
X256679523Y-86242438D02*
X256727142Y-86290057D01*
X257679523Y-87194819D02*
X257108095Y-87194819D01*
X257393809Y-87194819D02*
X257393809Y-86194819D01*
X257393809Y-86194819D02*
X257298571Y-86337676D01*
X257298571Y-86337676D02*
X257203333Y-86432914D01*
X257203333Y-86432914D02*
X257108095Y-86480533D01*
X258536666Y-86528152D02*
X258536666Y-87194819D01*
X258298571Y-86147200D02*
X258060476Y-86861485D01*
X258060476Y-86861485D02*
X258679523Y-86861485D01*
X219633333Y-103059580D02*
X219585714Y-103107200D01*
X219585714Y-103107200D02*
X219442857Y-103154819D01*
X219442857Y-103154819D02*
X219347619Y-103154819D01*
X219347619Y-103154819D02*
X219204762Y-103107200D01*
X219204762Y-103107200D02*
X219109524Y-103011961D01*
X219109524Y-103011961D02*
X219061905Y-102916723D01*
X219061905Y-102916723D02*
X219014286Y-102726247D01*
X219014286Y-102726247D02*
X219014286Y-102583390D01*
X219014286Y-102583390D02*
X219061905Y-102392914D01*
X219061905Y-102392914D02*
X219109524Y-102297676D01*
X219109524Y-102297676D02*
X219204762Y-102202438D01*
X219204762Y-102202438D02*
X219347619Y-102154819D01*
X219347619Y-102154819D02*
X219442857Y-102154819D01*
X219442857Y-102154819D02*
X219585714Y-102202438D01*
X219585714Y-102202438D02*
X219633333Y-102250057D01*
X220204762Y-102583390D02*
X220109524Y-102535771D01*
X220109524Y-102535771D02*
X220061905Y-102488152D01*
X220061905Y-102488152D02*
X220014286Y-102392914D01*
X220014286Y-102392914D02*
X220014286Y-102345295D01*
X220014286Y-102345295D02*
X220061905Y-102250057D01*
X220061905Y-102250057D02*
X220109524Y-102202438D01*
X220109524Y-102202438D02*
X220204762Y-102154819D01*
X220204762Y-102154819D02*
X220395238Y-102154819D01*
X220395238Y-102154819D02*
X220490476Y-102202438D01*
X220490476Y-102202438D02*
X220538095Y-102250057D01*
X220538095Y-102250057D02*
X220585714Y-102345295D01*
X220585714Y-102345295D02*
X220585714Y-102392914D01*
X220585714Y-102392914D02*
X220538095Y-102488152D01*
X220538095Y-102488152D02*
X220490476Y-102535771D01*
X220490476Y-102535771D02*
X220395238Y-102583390D01*
X220395238Y-102583390D02*
X220204762Y-102583390D01*
X220204762Y-102583390D02*
X220109524Y-102631009D01*
X220109524Y-102631009D02*
X220061905Y-102678628D01*
X220061905Y-102678628D02*
X220014286Y-102773866D01*
X220014286Y-102773866D02*
X220014286Y-102964342D01*
X220014286Y-102964342D02*
X220061905Y-103059580D01*
X220061905Y-103059580D02*
X220109524Y-103107200D01*
X220109524Y-103107200D02*
X220204762Y-103154819D01*
X220204762Y-103154819D02*
X220395238Y-103154819D01*
X220395238Y-103154819D02*
X220490476Y-103107200D01*
X220490476Y-103107200D02*
X220538095Y-103059580D01*
X220538095Y-103059580D02*
X220585714Y-102964342D01*
X220585714Y-102964342D02*
X220585714Y-102773866D01*
X220585714Y-102773866D02*
X220538095Y-102678628D01*
X220538095Y-102678628D02*
X220490476Y-102631009D01*
X220490476Y-102631009D02*
X220395238Y-102583390D01*
X179261905Y-81734819D02*
X179261905Y-80734819D01*
X179261905Y-80734819D02*
X179500000Y-80734819D01*
X179500000Y-80734819D02*
X179642857Y-80782438D01*
X179642857Y-80782438D02*
X179738095Y-80877676D01*
X179738095Y-80877676D02*
X179785714Y-80972914D01*
X179785714Y-80972914D02*
X179833333Y-81163390D01*
X179833333Y-81163390D02*
X179833333Y-81306247D01*
X179833333Y-81306247D02*
X179785714Y-81496723D01*
X179785714Y-81496723D02*
X179738095Y-81591961D01*
X179738095Y-81591961D02*
X179642857Y-81687200D01*
X179642857Y-81687200D02*
X179500000Y-81734819D01*
X179500000Y-81734819D02*
X179261905Y-81734819D01*
X180166667Y-80734819D02*
X180785714Y-80734819D01*
X180785714Y-80734819D02*
X180452381Y-81115771D01*
X180452381Y-81115771D02*
X180595238Y-81115771D01*
X180595238Y-81115771D02*
X180690476Y-81163390D01*
X180690476Y-81163390D02*
X180738095Y-81211009D01*
X180738095Y-81211009D02*
X180785714Y-81306247D01*
X180785714Y-81306247D02*
X180785714Y-81544342D01*
X180785714Y-81544342D02*
X180738095Y-81639580D01*
X180738095Y-81639580D02*
X180690476Y-81687200D01*
X180690476Y-81687200D02*
X180595238Y-81734819D01*
X180595238Y-81734819D02*
X180309524Y-81734819D01*
X180309524Y-81734819D02*
X180214286Y-81687200D01*
X180214286Y-81687200D02*
X180166667Y-81639580D01*
X172118095Y-82854819D02*
X172118095Y-81854819D01*
X172689523Y-82854819D02*
X172260952Y-82283390D01*
X172689523Y-81854819D02*
X172118095Y-82426247D01*
D11*
X37411999Y-45323181D02*
X37411999Y-46411752D01*
X37411999Y-46411752D02*
X37339428Y-46629467D01*
X37339428Y-46629467D02*
X37194285Y-46774610D01*
X37194285Y-46774610D02*
X36976571Y-46847181D01*
X36976571Y-46847181D02*
X36831428Y-46847181D01*
X38355428Y-45976324D02*
X38210285Y-45903752D01*
X38210285Y-45903752D02*
X38137714Y-45831181D01*
X38137714Y-45831181D02*
X38065142Y-45686038D01*
X38065142Y-45686038D02*
X38065142Y-45613467D01*
X38065142Y-45613467D02*
X38137714Y-45468324D01*
X38137714Y-45468324D02*
X38210285Y-45395752D01*
X38210285Y-45395752D02*
X38355428Y-45323181D01*
X38355428Y-45323181D02*
X38645714Y-45323181D01*
X38645714Y-45323181D02*
X38790857Y-45395752D01*
X38790857Y-45395752D02*
X38863428Y-45468324D01*
X38863428Y-45468324D02*
X38935999Y-45613467D01*
X38935999Y-45613467D02*
X38935999Y-45686038D01*
X38935999Y-45686038D02*
X38863428Y-45831181D01*
X38863428Y-45831181D02*
X38790857Y-45903752D01*
X38790857Y-45903752D02*
X38645714Y-45976324D01*
X38645714Y-45976324D02*
X38355428Y-45976324D01*
X38355428Y-45976324D02*
X38210285Y-46048895D01*
X38210285Y-46048895D02*
X38137714Y-46121467D01*
X38137714Y-46121467D02*
X38065142Y-46266610D01*
X38065142Y-46266610D02*
X38065142Y-46556895D01*
X38065142Y-46556895D02*
X38137714Y-46702038D01*
X38137714Y-46702038D02*
X38210285Y-46774610D01*
X38210285Y-46774610D02*
X38355428Y-46847181D01*
X38355428Y-46847181D02*
X38645714Y-46847181D01*
X38645714Y-46847181D02*
X38790857Y-46774610D01*
X38790857Y-46774610D02*
X38863428Y-46702038D01*
X38863428Y-46702038D02*
X38935999Y-46556895D01*
X38935999Y-46556895D02*
X38935999Y-46266610D01*
X38935999Y-46266610D02*
X38863428Y-46121467D01*
X38863428Y-46121467D02*
X38790857Y-46048895D01*
X38790857Y-46048895D02*
X38645714Y-45976324D01*
X36323428Y-58531181D02*
X35815428Y-57805467D01*
X35452571Y-58531181D02*
X35452571Y-57007181D01*
X35452571Y-57007181D02*
X36033142Y-57007181D01*
X36033142Y-57007181D02*
X36178285Y-57079752D01*
X36178285Y-57079752D02*
X36250856Y-57152324D01*
X36250856Y-57152324D02*
X36323428Y-57297467D01*
X36323428Y-57297467D02*
X36323428Y-57515181D01*
X36323428Y-57515181D02*
X36250856Y-57660324D01*
X36250856Y-57660324D02*
X36178285Y-57732895D01*
X36178285Y-57732895D02*
X36033142Y-57805467D01*
X36033142Y-57805467D02*
X35452571Y-57805467D01*
X36758856Y-57007181D02*
X37629714Y-57007181D01*
X37194285Y-58531181D02*
X37194285Y-57007181D01*
X38137714Y-58531181D02*
X38137714Y-57007181D01*
X38137714Y-57007181D02*
X38500571Y-57007181D01*
X38500571Y-57007181D02*
X38718285Y-57079752D01*
X38718285Y-57079752D02*
X38863428Y-57224895D01*
X38863428Y-57224895D02*
X38935999Y-57370038D01*
X38935999Y-57370038D02*
X39008571Y-57660324D01*
X39008571Y-57660324D02*
X39008571Y-57878038D01*
X39008571Y-57878038D02*
X38935999Y-58168324D01*
X38935999Y-58168324D02*
X38863428Y-58313467D01*
X38863428Y-58313467D02*
X38718285Y-58458610D01*
X38718285Y-58458610D02*
X38500571Y-58531181D01*
X38500571Y-58531181D02*
X38137714Y-58531181D01*
X40459999Y-58531181D02*
X39589142Y-58531181D01*
X40024571Y-58531181D02*
X40024571Y-57007181D01*
X40024571Y-57007181D02*
X39879428Y-57224895D01*
X39879428Y-57224895D02*
X39734285Y-57370038D01*
X39734285Y-57370038D02*
X39589142Y-57442610D01*
X61346285Y-84823181D02*
X61346285Y-85911752D01*
X61346285Y-85911752D02*
X61273714Y-86129467D01*
X61273714Y-86129467D02*
X61128571Y-86274610D01*
X61128571Y-86274610D02*
X60910857Y-86347181D01*
X60910857Y-86347181D02*
X60765714Y-86347181D01*
X62870285Y-86347181D02*
X61999428Y-86347181D01*
X62434857Y-86347181D02*
X62434857Y-84823181D01*
X62434857Y-84823181D02*
X62289714Y-85040895D01*
X62289714Y-85040895D02*
X62144571Y-85186038D01*
X62144571Y-85186038D02*
X61999428Y-85258610D01*
X64249143Y-84823181D02*
X63523429Y-84823181D01*
X63523429Y-84823181D02*
X63450857Y-85548895D01*
X63450857Y-85548895D02*
X63523429Y-85476324D01*
X63523429Y-85476324D02*
X63668572Y-85403752D01*
X63668572Y-85403752D02*
X64031429Y-85403752D01*
X64031429Y-85403752D02*
X64176572Y-85476324D01*
X64176572Y-85476324D02*
X64249143Y-85548895D01*
X64249143Y-85548895D02*
X64321714Y-85694038D01*
X64321714Y-85694038D02*
X64321714Y-86056895D01*
X64321714Y-86056895D02*
X64249143Y-86202038D01*
X64249143Y-86202038D02*
X64176572Y-86274610D01*
X64176572Y-86274610D02*
X64031429Y-86347181D01*
X64031429Y-86347181D02*
X63668572Y-86347181D01*
X63668572Y-86347181D02*
X63523429Y-86274610D01*
X63523429Y-86274610D02*
X63450857Y-86202038D01*
X60983428Y-98031181D02*
X60475428Y-97305467D01*
X60112571Y-98031181D02*
X60112571Y-96507181D01*
X60112571Y-96507181D02*
X60693142Y-96507181D01*
X60693142Y-96507181D02*
X60838285Y-96579752D01*
X60838285Y-96579752D02*
X60910856Y-96652324D01*
X60910856Y-96652324D02*
X60983428Y-96797467D01*
X60983428Y-96797467D02*
X60983428Y-97015181D01*
X60983428Y-97015181D02*
X60910856Y-97160324D01*
X60910856Y-97160324D02*
X60838285Y-97232895D01*
X60838285Y-97232895D02*
X60693142Y-97305467D01*
X60693142Y-97305467D02*
X60112571Y-97305467D01*
X61418856Y-96507181D02*
X62289714Y-96507181D01*
X61854285Y-98031181D02*
X61854285Y-96507181D01*
X62797714Y-98031181D02*
X62797714Y-96507181D01*
X62797714Y-96507181D02*
X63160571Y-96507181D01*
X63160571Y-96507181D02*
X63378285Y-96579752D01*
X63378285Y-96579752D02*
X63523428Y-96724895D01*
X63523428Y-96724895D02*
X63595999Y-96870038D01*
X63595999Y-96870038D02*
X63668571Y-97160324D01*
X63668571Y-97160324D02*
X63668571Y-97378038D01*
X63668571Y-97378038D02*
X63595999Y-97668324D01*
X63595999Y-97668324D02*
X63523428Y-97813467D01*
X63523428Y-97813467D02*
X63378285Y-97958610D01*
X63378285Y-97958610D02*
X63160571Y-98031181D01*
X63160571Y-98031181D02*
X62797714Y-98031181D01*
X64539428Y-97160324D02*
X64394285Y-97087752D01*
X64394285Y-97087752D02*
X64321714Y-97015181D01*
X64321714Y-97015181D02*
X64249142Y-96870038D01*
X64249142Y-96870038D02*
X64249142Y-96797467D01*
X64249142Y-96797467D02*
X64321714Y-96652324D01*
X64321714Y-96652324D02*
X64394285Y-96579752D01*
X64394285Y-96579752D02*
X64539428Y-96507181D01*
X64539428Y-96507181D02*
X64829714Y-96507181D01*
X64829714Y-96507181D02*
X64974857Y-96579752D01*
X64974857Y-96579752D02*
X65047428Y-96652324D01*
X65047428Y-96652324D02*
X65119999Y-96797467D01*
X65119999Y-96797467D02*
X65119999Y-96870038D01*
X65119999Y-96870038D02*
X65047428Y-97015181D01*
X65047428Y-97015181D02*
X64974857Y-97087752D01*
X64974857Y-97087752D02*
X64829714Y-97160324D01*
X64829714Y-97160324D02*
X64539428Y-97160324D01*
X64539428Y-97160324D02*
X64394285Y-97232895D01*
X64394285Y-97232895D02*
X64321714Y-97305467D01*
X64321714Y-97305467D02*
X64249142Y-97450610D01*
X64249142Y-97450610D02*
X64249142Y-97740895D01*
X64249142Y-97740895D02*
X64321714Y-97886038D01*
X64321714Y-97886038D02*
X64394285Y-97958610D01*
X64394285Y-97958610D02*
X64539428Y-98031181D01*
X64539428Y-98031181D02*
X64829714Y-98031181D01*
X64829714Y-98031181D02*
X64974857Y-97958610D01*
X64974857Y-97958610D02*
X65047428Y-97886038D01*
X65047428Y-97886038D02*
X65119999Y-97740895D01*
X65119999Y-97740895D02*
X65119999Y-97450610D01*
X65119999Y-97450610D02*
X65047428Y-97305467D01*
X65047428Y-97305467D02*
X64974857Y-97232895D01*
X64974857Y-97232895D02*
X64829714Y-97160324D01*
X36186285Y-64823181D02*
X36186285Y-65911752D01*
X36186285Y-65911752D02*
X36113714Y-66129467D01*
X36113714Y-66129467D02*
X35968571Y-66274610D01*
X35968571Y-66274610D02*
X35750857Y-66347181D01*
X35750857Y-66347181D02*
X35605714Y-66347181D01*
X37710285Y-66347181D02*
X36839428Y-66347181D01*
X37274857Y-66347181D02*
X37274857Y-64823181D01*
X37274857Y-64823181D02*
X37129714Y-65040895D01*
X37129714Y-65040895D02*
X36984571Y-65186038D01*
X36984571Y-65186038D02*
X36839428Y-65258610D01*
X39161714Y-66347181D02*
X38290857Y-66347181D01*
X38726286Y-66347181D02*
X38726286Y-64823181D01*
X38726286Y-64823181D02*
X38581143Y-65040895D01*
X38581143Y-65040895D02*
X38436000Y-65186038D01*
X38436000Y-65186038D02*
X38290857Y-65258610D01*
X35823428Y-78031181D02*
X35315428Y-77305467D01*
X34952571Y-78031181D02*
X34952571Y-76507181D01*
X34952571Y-76507181D02*
X35533142Y-76507181D01*
X35533142Y-76507181D02*
X35678285Y-76579752D01*
X35678285Y-76579752D02*
X35750856Y-76652324D01*
X35750856Y-76652324D02*
X35823428Y-76797467D01*
X35823428Y-76797467D02*
X35823428Y-77015181D01*
X35823428Y-77015181D02*
X35750856Y-77160324D01*
X35750856Y-77160324D02*
X35678285Y-77232895D01*
X35678285Y-77232895D02*
X35533142Y-77305467D01*
X35533142Y-77305467D02*
X34952571Y-77305467D01*
X36258856Y-76507181D02*
X37129714Y-76507181D01*
X36694285Y-78031181D02*
X36694285Y-76507181D01*
X37637714Y-78031181D02*
X37637714Y-76507181D01*
X37637714Y-76507181D02*
X38000571Y-76507181D01*
X38000571Y-76507181D02*
X38218285Y-76579752D01*
X38218285Y-76579752D02*
X38363428Y-76724895D01*
X38363428Y-76724895D02*
X38435999Y-76870038D01*
X38435999Y-76870038D02*
X38508571Y-77160324D01*
X38508571Y-77160324D02*
X38508571Y-77378038D01*
X38508571Y-77378038D02*
X38435999Y-77668324D01*
X38435999Y-77668324D02*
X38363428Y-77813467D01*
X38363428Y-77813467D02*
X38218285Y-77958610D01*
X38218285Y-77958610D02*
X38000571Y-78031181D01*
X38000571Y-78031181D02*
X37637714Y-78031181D01*
X39814857Y-77015181D02*
X39814857Y-78031181D01*
X39451999Y-76434610D02*
X39089142Y-77523181D01*
X39089142Y-77523181D02*
X40032571Y-77523181D01*
D10*
X204286666Y-135084488D02*
X204286666Y-135798773D01*
X204286666Y-135798773D02*
X204239047Y-135941630D01*
X204239047Y-135941630D02*
X204143809Y-136036869D01*
X204143809Y-136036869D02*
X204000952Y-136084488D01*
X204000952Y-136084488D02*
X203905714Y-136084488D01*
X204667619Y-135084488D02*
X205334285Y-135084488D01*
X205334285Y-135084488D02*
X204905714Y-136084488D01*
X247310476Y-135154819D02*
X247310476Y-135869104D01*
X247310476Y-135869104D02*
X247262857Y-136011961D01*
X247262857Y-136011961D02*
X247167619Y-136107200D01*
X247167619Y-136107200D02*
X247024762Y-136154819D01*
X247024762Y-136154819D02*
X246929524Y-136154819D01*
X247739048Y-135250057D02*
X247786667Y-135202438D01*
X247786667Y-135202438D02*
X247881905Y-135154819D01*
X247881905Y-135154819D02*
X248120000Y-135154819D01*
X248120000Y-135154819D02*
X248215238Y-135202438D01*
X248215238Y-135202438D02*
X248262857Y-135250057D01*
X248262857Y-135250057D02*
X248310476Y-135345295D01*
X248310476Y-135345295D02*
X248310476Y-135440533D01*
X248310476Y-135440533D02*
X248262857Y-135583390D01*
X248262857Y-135583390D02*
X247691429Y-136154819D01*
X247691429Y-136154819D02*
X248310476Y-136154819D01*
X249167619Y-135154819D02*
X248977143Y-135154819D01*
X248977143Y-135154819D02*
X248881905Y-135202438D01*
X248881905Y-135202438D02*
X248834286Y-135250057D01*
X248834286Y-135250057D02*
X248739048Y-135392914D01*
X248739048Y-135392914D02*
X248691429Y-135583390D01*
X248691429Y-135583390D02*
X248691429Y-135964342D01*
X248691429Y-135964342D02*
X248739048Y-136059580D01*
X248739048Y-136059580D02*
X248786667Y-136107200D01*
X248786667Y-136107200D02*
X248881905Y-136154819D01*
X248881905Y-136154819D02*
X249072381Y-136154819D01*
X249072381Y-136154819D02*
X249167619Y-136107200D01*
X249167619Y-136107200D02*
X249215238Y-136059580D01*
X249215238Y-136059580D02*
X249262857Y-135964342D01*
X249262857Y-135964342D02*
X249262857Y-135726247D01*
X249262857Y-135726247D02*
X249215238Y-135631009D01*
X249215238Y-135631009D02*
X249167619Y-135583390D01*
X249167619Y-135583390D02*
X249072381Y-135535771D01*
X249072381Y-135535771D02*
X248881905Y-135535771D01*
X248881905Y-135535771D02*
X248786667Y-135583390D01*
X248786667Y-135583390D02*
X248739048Y-135631009D01*
X248739048Y-135631009D02*
X248691429Y-135726247D01*
D11*
X36186285Y-104323181D02*
X36186285Y-105411752D01*
X36186285Y-105411752D02*
X36113714Y-105629467D01*
X36113714Y-105629467D02*
X35968571Y-105774610D01*
X35968571Y-105774610D02*
X35750857Y-105847181D01*
X35750857Y-105847181D02*
X35605714Y-105847181D01*
X37710285Y-105847181D02*
X36839428Y-105847181D01*
X37274857Y-105847181D02*
X37274857Y-104323181D01*
X37274857Y-104323181D02*
X37129714Y-104540895D01*
X37129714Y-104540895D02*
X36984571Y-104686038D01*
X36984571Y-104686038D02*
X36839428Y-104758610D01*
X38218286Y-104323181D02*
X39234286Y-104323181D01*
X39234286Y-104323181D02*
X38581143Y-105847181D01*
X35097714Y-117531181D02*
X34589714Y-116805467D01*
X34226857Y-117531181D02*
X34226857Y-116007181D01*
X34226857Y-116007181D02*
X34807428Y-116007181D01*
X34807428Y-116007181D02*
X34952571Y-116079752D01*
X34952571Y-116079752D02*
X35025142Y-116152324D01*
X35025142Y-116152324D02*
X35097714Y-116297467D01*
X35097714Y-116297467D02*
X35097714Y-116515181D01*
X35097714Y-116515181D02*
X35025142Y-116660324D01*
X35025142Y-116660324D02*
X34952571Y-116732895D01*
X34952571Y-116732895D02*
X34807428Y-116805467D01*
X34807428Y-116805467D02*
X34226857Y-116805467D01*
X35533142Y-116007181D02*
X36404000Y-116007181D01*
X35968571Y-117531181D02*
X35968571Y-116007181D01*
X36912000Y-117531181D02*
X36912000Y-116007181D01*
X36912000Y-116007181D02*
X37274857Y-116007181D01*
X37274857Y-116007181D02*
X37492571Y-116079752D01*
X37492571Y-116079752D02*
X37637714Y-116224895D01*
X37637714Y-116224895D02*
X37710285Y-116370038D01*
X37710285Y-116370038D02*
X37782857Y-116660324D01*
X37782857Y-116660324D02*
X37782857Y-116878038D01*
X37782857Y-116878038D02*
X37710285Y-117168324D01*
X37710285Y-117168324D02*
X37637714Y-117313467D01*
X37637714Y-117313467D02*
X37492571Y-117458610D01*
X37492571Y-117458610D02*
X37274857Y-117531181D01*
X37274857Y-117531181D02*
X36912000Y-117531181D01*
X39234285Y-117531181D02*
X38363428Y-117531181D01*
X38798857Y-117531181D02*
X38798857Y-116007181D01*
X38798857Y-116007181D02*
X38653714Y-116224895D01*
X38653714Y-116224895D02*
X38508571Y-116370038D01*
X38508571Y-116370038D02*
X38363428Y-116442610D01*
X40177714Y-116007181D02*
X40322857Y-116007181D01*
X40322857Y-116007181D02*
X40468000Y-116079752D01*
X40468000Y-116079752D02*
X40540572Y-116152324D01*
X40540572Y-116152324D02*
X40613143Y-116297467D01*
X40613143Y-116297467D02*
X40685714Y-116587752D01*
X40685714Y-116587752D02*
X40685714Y-116950610D01*
X40685714Y-116950610D02*
X40613143Y-117240895D01*
X40613143Y-117240895D02*
X40540572Y-117386038D01*
X40540572Y-117386038D02*
X40468000Y-117458610D01*
X40468000Y-117458610D02*
X40322857Y-117531181D01*
X40322857Y-117531181D02*
X40177714Y-117531181D01*
X40177714Y-117531181D02*
X40032572Y-117458610D01*
X40032572Y-117458610D02*
X39960000Y-117386038D01*
X39960000Y-117386038D02*
X39887429Y-117240895D01*
X39887429Y-117240895D02*
X39814857Y-116950610D01*
X39814857Y-116950610D02*
X39814857Y-116587752D01*
X39814857Y-116587752D02*
X39887429Y-116297467D01*
X39887429Y-116297467D02*
X39960000Y-116152324D01*
X39960000Y-116152324D02*
X40032572Y-116079752D01*
X40032572Y-116079752D02*
X40177714Y-116007181D01*
D10*
X199788095Y-44094819D02*
X199788095Y-44904342D01*
X199788095Y-44904342D02*
X199835714Y-44999580D01*
X199835714Y-44999580D02*
X199883333Y-45047200D01*
X199883333Y-45047200D02*
X199978571Y-45094819D01*
X199978571Y-45094819D02*
X200169047Y-45094819D01*
X200169047Y-45094819D02*
X200264285Y-45047200D01*
X200264285Y-45047200D02*
X200311904Y-44999580D01*
X200311904Y-44999580D02*
X200359523Y-44904342D01*
X200359523Y-44904342D02*
X200359523Y-44094819D01*
X200788095Y-44190057D02*
X200835714Y-44142438D01*
X200835714Y-44142438D02*
X200930952Y-44094819D01*
X200930952Y-44094819D02*
X201169047Y-44094819D01*
X201169047Y-44094819D02*
X201264285Y-44142438D01*
X201264285Y-44142438D02*
X201311904Y-44190057D01*
X201311904Y-44190057D02*
X201359523Y-44285295D01*
X201359523Y-44285295D02*
X201359523Y-44380533D01*
X201359523Y-44380533D02*
X201311904Y-44523390D01*
X201311904Y-44523390D02*
X200740476Y-45094819D01*
X200740476Y-45094819D02*
X201359523Y-45094819D01*
D11*
X86766285Y-104323181D02*
X86766285Y-105411752D01*
X86766285Y-105411752D02*
X86693714Y-105629467D01*
X86693714Y-105629467D02*
X86548571Y-105774610D01*
X86548571Y-105774610D02*
X86330857Y-105847181D01*
X86330857Y-105847181D02*
X86185714Y-105847181D01*
X88290285Y-105847181D02*
X87419428Y-105847181D01*
X87854857Y-105847181D02*
X87854857Y-104323181D01*
X87854857Y-104323181D02*
X87709714Y-104540895D01*
X87709714Y-104540895D02*
X87564571Y-104686038D01*
X87564571Y-104686038D02*
X87419428Y-104758610D01*
X89016000Y-105847181D02*
X89306286Y-105847181D01*
X89306286Y-105847181D02*
X89451429Y-105774610D01*
X89451429Y-105774610D02*
X89524000Y-105702038D01*
X89524000Y-105702038D02*
X89669143Y-105484324D01*
X89669143Y-105484324D02*
X89741714Y-105194038D01*
X89741714Y-105194038D02*
X89741714Y-104613467D01*
X89741714Y-104613467D02*
X89669143Y-104468324D01*
X89669143Y-104468324D02*
X89596572Y-104395752D01*
X89596572Y-104395752D02*
X89451429Y-104323181D01*
X89451429Y-104323181D02*
X89161143Y-104323181D01*
X89161143Y-104323181D02*
X89016000Y-104395752D01*
X89016000Y-104395752D02*
X88943429Y-104468324D01*
X88943429Y-104468324D02*
X88870857Y-104613467D01*
X88870857Y-104613467D02*
X88870857Y-104976324D01*
X88870857Y-104976324D02*
X88943429Y-105121467D01*
X88943429Y-105121467D02*
X89016000Y-105194038D01*
X89016000Y-105194038D02*
X89161143Y-105266610D01*
X89161143Y-105266610D02*
X89451429Y-105266610D01*
X89451429Y-105266610D02*
X89596572Y-105194038D01*
X89596572Y-105194038D02*
X89669143Y-105121467D01*
X89669143Y-105121467D02*
X89741714Y-104976324D01*
X85677714Y-117531181D02*
X85169714Y-116805467D01*
X84806857Y-117531181D02*
X84806857Y-116007181D01*
X84806857Y-116007181D02*
X85387428Y-116007181D01*
X85387428Y-116007181D02*
X85532571Y-116079752D01*
X85532571Y-116079752D02*
X85605142Y-116152324D01*
X85605142Y-116152324D02*
X85677714Y-116297467D01*
X85677714Y-116297467D02*
X85677714Y-116515181D01*
X85677714Y-116515181D02*
X85605142Y-116660324D01*
X85605142Y-116660324D02*
X85532571Y-116732895D01*
X85532571Y-116732895D02*
X85387428Y-116805467D01*
X85387428Y-116805467D02*
X84806857Y-116805467D01*
X86113142Y-116007181D02*
X86984000Y-116007181D01*
X86548571Y-117531181D02*
X86548571Y-116007181D01*
X87492000Y-117531181D02*
X87492000Y-116007181D01*
X87492000Y-116007181D02*
X87854857Y-116007181D01*
X87854857Y-116007181D02*
X88072571Y-116079752D01*
X88072571Y-116079752D02*
X88217714Y-116224895D01*
X88217714Y-116224895D02*
X88290285Y-116370038D01*
X88290285Y-116370038D02*
X88362857Y-116660324D01*
X88362857Y-116660324D02*
X88362857Y-116878038D01*
X88362857Y-116878038D02*
X88290285Y-117168324D01*
X88290285Y-117168324D02*
X88217714Y-117313467D01*
X88217714Y-117313467D02*
X88072571Y-117458610D01*
X88072571Y-117458610D02*
X87854857Y-117531181D01*
X87854857Y-117531181D02*
X87492000Y-117531181D01*
X89814285Y-117531181D02*
X88943428Y-117531181D01*
X89378857Y-117531181D02*
X89378857Y-116007181D01*
X89378857Y-116007181D02*
X89233714Y-116224895D01*
X89233714Y-116224895D02*
X89088571Y-116370038D01*
X89088571Y-116370038D02*
X88943428Y-116442610D01*
X90394857Y-116152324D02*
X90467429Y-116079752D01*
X90467429Y-116079752D02*
X90612572Y-116007181D01*
X90612572Y-116007181D02*
X90975429Y-116007181D01*
X90975429Y-116007181D02*
X91120572Y-116079752D01*
X91120572Y-116079752D02*
X91193143Y-116152324D01*
X91193143Y-116152324D02*
X91265714Y-116297467D01*
X91265714Y-116297467D02*
X91265714Y-116442610D01*
X91265714Y-116442610D02*
X91193143Y-116660324D01*
X91193143Y-116660324D02*
X90322286Y-117531181D01*
X90322286Y-117531181D02*
X91265714Y-117531181D01*
X61266285Y-124823181D02*
X61266285Y-125911752D01*
X61266285Y-125911752D02*
X61193714Y-126129467D01*
X61193714Y-126129467D02*
X61048571Y-126274610D01*
X61048571Y-126274610D02*
X60830857Y-126347181D01*
X60830857Y-126347181D02*
X60685714Y-126347181D01*
X61919428Y-124968324D02*
X61992000Y-124895752D01*
X61992000Y-124895752D02*
X62137143Y-124823181D01*
X62137143Y-124823181D02*
X62500000Y-124823181D01*
X62500000Y-124823181D02*
X62645143Y-124895752D01*
X62645143Y-124895752D02*
X62717714Y-124968324D01*
X62717714Y-124968324D02*
X62790285Y-125113467D01*
X62790285Y-125113467D02*
X62790285Y-125258610D01*
X62790285Y-125258610D02*
X62717714Y-125476324D01*
X62717714Y-125476324D02*
X61846857Y-126347181D01*
X61846857Y-126347181D02*
X62790285Y-126347181D01*
X64241714Y-126347181D02*
X63370857Y-126347181D01*
X63806286Y-126347181D02*
X63806286Y-124823181D01*
X63806286Y-124823181D02*
X63661143Y-125040895D01*
X63661143Y-125040895D02*
X63516000Y-125186038D01*
X63516000Y-125186038D02*
X63370857Y-125258610D01*
X60177714Y-138031181D02*
X59669714Y-137305467D01*
X59306857Y-138031181D02*
X59306857Y-136507181D01*
X59306857Y-136507181D02*
X59887428Y-136507181D01*
X59887428Y-136507181D02*
X60032571Y-136579752D01*
X60032571Y-136579752D02*
X60105142Y-136652324D01*
X60105142Y-136652324D02*
X60177714Y-136797467D01*
X60177714Y-136797467D02*
X60177714Y-137015181D01*
X60177714Y-137015181D02*
X60105142Y-137160324D01*
X60105142Y-137160324D02*
X60032571Y-137232895D01*
X60032571Y-137232895D02*
X59887428Y-137305467D01*
X59887428Y-137305467D02*
X59306857Y-137305467D01*
X60613142Y-136507181D02*
X61484000Y-136507181D01*
X61048571Y-138031181D02*
X61048571Y-136507181D01*
X61992000Y-138031181D02*
X61992000Y-136507181D01*
X61992000Y-136507181D02*
X62354857Y-136507181D01*
X62354857Y-136507181D02*
X62572571Y-136579752D01*
X62572571Y-136579752D02*
X62717714Y-136724895D01*
X62717714Y-136724895D02*
X62790285Y-136870038D01*
X62790285Y-136870038D02*
X62862857Y-137160324D01*
X62862857Y-137160324D02*
X62862857Y-137378038D01*
X62862857Y-137378038D02*
X62790285Y-137668324D01*
X62790285Y-137668324D02*
X62717714Y-137813467D01*
X62717714Y-137813467D02*
X62572571Y-137958610D01*
X62572571Y-137958610D02*
X62354857Y-138031181D01*
X62354857Y-138031181D02*
X61992000Y-138031181D01*
X64314285Y-138031181D02*
X63443428Y-138031181D01*
X63878857Y-138031181D02*
X63878857Y-136507181D01*
X63878857Y-136507181D02*
X63733714Y-136724895D01*
X63733714Y-136724895D02*
X63588571Y-136870038D01*
X63588571Y-136870038D02*
X63443428Y-136942610D01*
X65620572Y-137015181D02*
X65620572Y-138031181D01*
X65257714Y-136434610D02*
X64894857Y-137523181D01*
X64894857Y-137523181D02*
X65838286Y-137523181D01*
D10*
X180786666Y-142479819D02*
X180786666Y-143194104D01*
X180786666Y-143194104D02*
X180739047Y-143336961D01*
X180739047Y-143336961D02*
X180643809Y-143432200D01*
X180643809Y-143432200D02*
X180500952Y-143479819D01*
X180500952Y-143479819D02*
X180405714Y-143479819D01*
X181786666Y-143479819D02*
X181215238Y-143479819D01*
X181500952Y-143479819D02*
X181500952Y-142479819D01*
X181500952Y-142479819D02*
X181405714Y-142622676D01*
X181405714Y-142622676D02*
X181310476Y-142717914D01*
X181310476Y-142717914D02*
X181215238Y-142765533D01*
X203713333Y-86084819D02*
X203237143Y-86084819D01*
X203237143Y-86084819D02*
X203237143Y-85084819D01*
X203999048Y-85180057D02*
X204046667Y-85132438D01*
X204046667Y-85132438D02*
X204141905Y-85084819D01*
X204141905Y-85084819D02*
X204380000Y-85084819D01*
X204380000Y-85084819D02*
X204475238Y-85132438D01*
X204475238Y-85132438D02*
X204522857Y-85180057D01*
X204522857Y-85180057D02*
X204570476Y-85275295D01*
X204570476Y-85275295D02*
X204570476Y-85370533D01*
X204570476Y-85370533D02*
X204522857Y-85513390D01*
X204522857Y-85513390D02*
X203951429Y-86084819D01*
X203951429Y-86084819D02*
X204570476Y-86084819D01*
D11*
X36186285Y-84823181D02*
X36186285Y-85911752D01*
X36186285Y-85911752D02*
X36113714Y-86129467D01*
X36113714Y-86129467D02*
X35968571Y-86274610D01*
X35968571Y-86274610D02*
X35750857Y-86347181D01*
X35750857Y-86347181D02*
X35605714Y-86347181D01*
X37710285Y-86347181D02*
X36839428Y-86347181D01*
X37274857Y-86347181D02*
X37274857Y-84823181D01*
X37274857Y-84823181D02*
X37129714Y-85040895D01*
X37129714Y-85040895D02*
X36984571Y-85186038D01*
X36984571Y-85186038D02*
X36839428Y-85258610D01*
X38218286Y-84823181D02*
X39161714Y-84823181D01*
X39161714Y-84823181D02*
X38653714Y-85403752D01*
X38653714Y-85403752D02*
X38871429Y-85403752D01*
X38871429Y-85403752D02*
X39016572Y-85476324D01*
X39016572Y-85476324D02*
X39089143Y-85548895D01*
X39089143Y-85548895D02*
X39161714Y-85694038D01*
X39161714Y-85694038D02*
X39161714Y-86056895D01*
X39161714Y-86056895D02*
X39089143Y-86202038D01*
X39089143Y-86202038D02*
X39016572Y-86274610D01*
X39016572Y-86274610D02*
X38871429Y-86347181D01*
X38871429Y-86347181D02*
X38436000Y-86347181D01*
X38436000Y-86347181D02*
X38290857Y-86274610D01*
X38290857Y-86274610D02*
X38218286Y-86202038D01*
X35823428Y-98031181D02*
X35315428Y-97305467D01*
X34952571Y-98031181D02*
X34952571Y-96507181D01*
X34952571Y-96507181D02*
X35533142Y-96507181D01*
X35533142Y-96507181D02*
X35678285Y-96579752D01*
X35678285Y-96579752D02*
X35750856Y-96652324D01*
X35750856Y-96652324D02*
X35823428Y-96797467D01*
X35823428Y-96797467D02*
X35823428Y-97015181D01*
X35823428Y-97015181D02*
X35750856Y-97160324D01*
X35750856Y-97160324D02*
X35678285Y-97232895D01*
X35678285Y-97232895D02*
X35533142Y-97305467D01*
X35533142Y-97305467D02*
X34952571Y-97305467D01*
X36258856Y-96507181D02*
X37129714Y-96507181D01*
X36694285Y-98031181D02*
X36694285Y-96507181D01*
X37637714Y-98031181D02*
X37637714Y-96507181D01*
X37637714Y-96507181D02*
X38000571Y-96507181D01*
X38000571Y-96507181D02*
X38218285Y-96579752D01*
X38218285Y-96579752D02*
X38363428Y-96724895D01*
X38363428Y-96724895D02*
X38435999Y-96870038D01*
X38435999Y-96870038D02*
X38508571Y-97160324D01*
X38508571Y-97160324D02*
X38508571Y-97378038D01*
X38508571Y-97378038D02*
X38435999Y-97668324D01*
X38435999Y-97668324D02*
X38363428Y-97813467D01*
X38363428Y-97813467D02*
X38218285Y-97958610D01*
X38218285Y-97958610D02*
X38000571Y-98031181D01*
X38000571Y-98031181D02*
X37637714Y-98031181D01*
X39016571Y-96507181D02*
X40032571Y-96507181D01*
X40032571Y-96507181D02*
X39379428Y-98031181D01*
D10*
X173953333Y-54859580D02*
X173905714Y-54907200D01*
X173905714Y-54907200D02*
X173762857Y-54954819D01*
X173762857Y-54954819D02*
X173667619Y-54954819D01*
X173667619Y-54954819D02*
X173524762Y-54907200D01*
X173524762Y-54907200D02*
X173429524Y-54811961D01*
X173429524Y-54811961D02*
X173381905Y-54716723D01*
X173381905Y-54716723D02*
X173334286Y-54526247D01*
X173334286Y-54526247D02*
X173334286Y-54383390D01*
X173334286Y-54383390D02*
X173381905Y-54192914D01*
X173381905Y-54192914D02*
X173429524Y-54097676D01*
X173429524Y-54097676D02*
X173524762Y-54002438D01*
X173524762Y-54002438D02*
X173667619Y-53954819D01*
X173667619Y-53954819D02*
X173762857Y-53954819D01*
X173762857Y-53954819D02*
X173905714Y-54002438D01*
X173905714Y-54002438D02*
X173953333Y-54050057D01*
X174286667Y-53954819D02*
X174953333Y-53954819D01*
X174953333Y-53954819D02*
X174524762Y-54954819D01*
D11*
X61186285Y-64823181D02*
X61186285Y-65911752D01*
X61186285Y-65911752D02*
X61113714Y-66129467D01*
X61113714Y-66129467D02*
X60968571Y-66274610D01*
X60968571Y-66274610D02*
X60750857Y-66347181D01*
X60750857Y-66347181D02*
X60605714Y-66347181D01*
X62710285Y-66347181D02*
X61839428Y-66347181D01*
X62274857Y-66347181D02*
X62274857Y-64823181D01*
X62274857Y-64823181D02*
X62129714Y-65040895D01*
X62129714Y-65040895D02*
X61984571Y-65186038D01*
X61984571Y-65186038D02*
X61839428Y-65258610D01*
X63290857Y-64968324D02*
X63363429Y-64895752D01*
X63363429Y-64895752D02*
X63508572Y-64823181D01*
X63508572Y-64823181D02*
X63871429Y-64823181D01*
X63871429Y-64823181D02*
X64016572Y-64895752D01*
X64016572Y-64895752D02*
X64089143Y-64968324D01*
X64089143Y-64968324D02*
X64161714Y-65113467D01*
X64161714Y-65113467D02*
X64161714Y-65258610D01*
X64161714Y-65258610D02*
X64089143Y-65476324D01*
X64089143Y-65476324D02*
X63218286Y-66347181D01*
X63218286Y-66347181D02*
X64161714Y-66347181D01*
X60823428Y-78031181D02*
X60315428Y-77305467D01*
X59952571Y-78031181D02*
X59952571Y-76507181D01*
X59952571Y-76507181D02*
X60533142Y-76507181D01*
X60533142Y-76507181D02*
X60678285Y-76579752D01*
X60678285Y-76579752D02*
X60750856Y-76652324D01*
X60750856Y-76652324D02*
X60823428Y-76797467D01*
X60823428Y-76797467D02*
X60823428Y-77015181D01*
X60823428Y-77015181D02*
X60750856Y-77160324D01*
X60750856Y-77160324D02*
X60678285Y-77232895D01*
X60678285Y-77232895D02*
X60533142Y-77305467D01*
X60533142Y-77305467D02*
X59952571Y-77305467D01*
X61258856Y-76507181D02*
X62129714Y-76507181D01*
X61694285Y-78031181D02*
X61694285Y-76507181D01*
X62637714Y-78031181D02*
X62637714Y-76507181D01*
X62637714Y-76507181D02*
X63000571Y-76507181D01*
X63000571Y-76507181D02*
X63218285Y-76579752D01*
X63218285Y-76579752D02*
X63363428Y-76724895D01*
X63363428Y-76724895D02*
X63435999Y-76870038D01*
X63435999Y-76870038D02*
X63508571Y-77160324D01*
X63508571Y-77160324D02*
X63508571Y-77378038D01*
X63508571Y-77378038D02*
X63435999Y-77668324D01*
X63435999Y-77668324D02*
X63363428Y-77813467D01*
X63363428Y-77813467D02*
X63218285Y-77958610D01*
X63218285Y-77958610D02*
X63000571Y-78031181D01*
X63000571Y-78031181D02*
X62637714Y-78031181D01*
X64887428Y-76507181D02*
X64161714Y-76507181D01*
X64161714Y-76507181D02*
X64089142Y-77232895D01*
X64089142Y-77232895D02*
X64161714Y-77160324D01*
X64161714Y-77160324D02*
X64306857Y-77087752D01*
X64306857Y-77087752D02*
X64669714Y-77087752D01*
X64669714Y-77087752D02*
X64814857Y-77160324D01*
X64814857Y-77160324D02*
X64887428Y-77232895D01*
X64887428Y-77232895D02*
X64959999Y-77378038D01*
X64959999Y-77378038D02*
X64959999Y-77740895D01*
X64959999Y-77740895D02*
X64887428Y-77886038D01*
X64887428Y-77886038D02*
X64814857Y-77958610D01*
X64814857Y-77958610D02*
X64669714Y-78031181D01*
X64669714Y-78031181D02*
X64306857Y-78031181D01*
X64306857Y-78031181D02*
X64161714Y-77958610D01*
X64161714Y-77958610D02*
X64089142Y-77886038D01*
D10*
X212054819Y-46761904D02*
X212864342Y-46761904D01*
X212864342Y-46761904D02*
X212959580Y-46714285D01*
X212959580Y-46714285D02*
X213007200Y-46666666D01*
X213007200Y-46666666D02*
X213054819Y-46571428D01*
X213054819Y-46571428D02*
X213054819Y-46380952D01*
X213054819Y-46380952D02*
X213007200Y-46285714D01*
X213007200Y-46285714D02*
X212959580Y-46238095D01*
X212959580Y-46238095D02*
X212864342Y-46190476D01*
X212864342Y-46190476D02*
X212054819Y-46190476D01*
X213054819Y-45666666D02*
X213054819Y-45476190D01*
X213054819Y-45476190D02*
X213007200Y-45380952D01*
X213007200Y-45380952D02*
X212959580Y-45333333D01*
X212959580Y-45333333D02*
X212816723Y-45238095D01*
X212816723Y-45238095D02*
X212626247Y-45190476D01*
X212626247Y-45190476D02*
X212245295Y-45190476D01*
X212245295Y-45190476D02*
X212150057Y-45238095D01*
X212150057Y-45238095D02*
X212102438Y-45285714D01*
X212102438Y-45285714D02*
X212054819Y-45380952D01*
X212054819Y-45380952D02*
X212054819Y-45571428D01*
X212054819Y-45571428D02*
X212102438Y-45666666D01*
X212102438Y-45666666D02*
X212150057Y-45714285D01*
X212150057Y-45714285D02*
X212245295Y-45761904D01*
X212245295Y-45761904D02*
X212483390Y-45761904D01*
X212483390Y-45761904D02*
X212578628Y-45714285D01*
X212578628Y-45714285D02*
X212626247Y-45666666D01*
X212626247Y-45666666D02*
X212673866Y-45571428D01*
X212673866Y-45571428D02*
X212673866Y-45380952D01*
X212673866Y-45380952D02*
X212626247Y-45285714D01*
X212626247Y-45285714D02*
X212578628Y-45238095D01*
X212578628Y-45238095D02*
X212483390Y-45190476D01*
X179141905Y-73734819D02*
X179141905Y-72734819D01*
X179141905Y-72734819D02*
X179380000Y-72734819D01*
X179380000Y-72734819D02*
X179522857Y-72782438D01*
X179522857Y-72782438D02*
X179618095Y-72877676D01*
X179618095Y-72877676D02*
X179665714Y-72972914D01*
X179665714Y-72972914D02*
X179713333Y-73163390D01*
X179713333Y-73163390D02*
X179713333Y-73306247D01*
X179713333Y-73306247D02*
X179665714Y-73496723D01*
X179665714Y-73496723D02*
X179618095Y-73591961D01*
X179618095Y-73591961D02*
X179522857Y-73687200D01*
X179522857Y-73687200D02*
X179380000Y-73734819D01*
X179380000Y-73734819D02*
X179141905Y-73734819D01*
X180094286Y-72830057D02*
X180141905Y-72782438D01*
X180141905Y-72782438D02*
X180237143Y-72734819D01*
X180237143Y-72734819D02*
X180475238Y-72734819D01*
X180475238Y-72734819D02*
X180570476Y-72782438D01*
X180570476Y-72782438D02*
X180618095Y-72830057D01*
X180618095Y-72830057D02*
X180665714Y-72925295D01*
X180665714Y-72925295D02*
X180665714Y-73020533D01*
X180665714Y-73020533D02*
X180618095Y-73163390D01*
X180618095Y-73163390D02*
X180046667Y-73734819D01*
X180046667Y-73734819D02*
X180665714Y-73734819D01*
X171998095Y-74854819D02*
X171998095Y-73854819D01*
X172569523Y-74854819D02*
X172140952Y-74283390D01*
X172569523Y-73854819D02*
X171998095Y-74426247D01*
D11*
X86686285Y-124823181D02*
X86686285Y-125911752D01*
X86686285Y-125911752D02*
X86613714Y-126129467D01*
X86613714Y-126129467D02*
X86468571Y-126274610D01*
X86468571Y-126274610D02*
X86250857Y-126347181D01*
X86250857Y-126347181D02*
X86105714Y-126347181D01*
X87339428Y-124968324D02*
X87412000Y-124895752D01*
X87412000Y-124895752D02*
X87557143Y-124823181D01*
X87557143Y-124823181D02*
X87920000Y-124823181D01*
X87920000Y-124823181D02*
X88065143Y-124895752D01*
X88065143Y-124895752D02*
X88137714Y-124968324D01*
X88137714Y-124968324D02*
X88210285Y-125113467D01*
X88210285Y-125113467D02*
X88210285Y-125258610D01*
X88210285Y-125258610D02*
X88137714Y-125476324D01*
X88137714Y-125476324D02*
X87266857Y-126347181D01*
X87266857Y-126347181D02*
X88210285Y-126347181D01*
X88790857Y-124968324D02*
X88863429Y-124895752D01*
X88863429Y-124895752D02*
X89008572Y-124823181D01*
X89008572Y-124823181D02*
X89371429Y-124823181D01*
X89371429Y-124823181D02*
X89516572Y-124895752D01*
X89516572Y-124895752D02*
X89589143Y-124968324D01*
X89589143Y-124968324D02*
X89661714Y-125113467D01*
X89661714Y-125113467D02*
X89661714Y-125258610D01*
X89661714Y-125258610D02*
X89589143Y-125476324D01*
X89589143Y-125476324D02*
X88718286Y-126347181D01*
X88718286Y-126347181D02*
X89661714Y-126347181D01*
X85597714Y-138031181D02*
X85089714Y-137305467D01*
X84726857Y-138031181D02*
X84726857Y-136507181D01*
X84726857Y-136507181D02*
X85307428Y-136507181D01*
X85307428Y-136507181D02*
X85452571Y-136579752D01*
X85452571Y-136579752D02*
X85525142Y-136652324D01*
X85525142Y-136652324D02*
X85597714Y-136797467D01*
X85597714Y-136797467D02*
X85597714Y-137015181D01*
X85597714Y-137015181D02*
X85525142Y-137160324D01*
X85525142Y-137160324D02*
X85452571Y-137232895D01*
X85452571Y-137232895D02*
X85307428Y-137305467D01*
X85307428Y-137305467D02*
X84726857Y-137305467D01*
X86033142Y-136507181D02*
X86904000Y-136507181D01*
X86468571Y-138031181D02*
X86468571Y-136507181D01*
X87412000Y-138031181D02*
X87412000Y-136507181D01*
X87412000Y-136507181D02*
X87774857Y-136507181D01*
X87774857Y-136507181D02*
X87992571Y-136579752D01*
X87992571Y-136579752D02*
X88137714Y-136724895D01*
X88137714Y-136724895D02*
X88210285Y-136870038D01*
X88210285Y-136870038D02*
X88282857Y-137160324D01*
X88282857Y-137160324D02*
X88282857Y-137378038D01*
X88282857Y-137378038D02*
X88210285Y-137668324D01*
X88210285Y-137668324D02*
X88137714Y-137813467D01*
X88137714Y-137813467D02*
X87992571Y-137958610D01*
X87992571Y-137958610D02*
X87774857Y-138031181D01*
X87774857Y-138031181D02*
X87412000Y-138031181D01*
X89734285Y-138031181D02*
X88863428Y-138031181D01*
X89298857Y-138031181D02*
X89298857Y-136507181D01*
X89298857Y-136507181D02*
X89153714Y-136724895D01*
X89153714Y-136724895D02*
X89008571Y-136870038D01*
X89008571Y-136870038D02*
X88863428Y-136942610D01*
X91113143Y-136507181D02*
X90387429Y-136507181D01*
X90387429Y-136507181D02*
X90314857Y-137232895D01*
X90314857Y-137232895D02*
X90387429Y-137160324D01*
X90387429Y-137160324D02*
X90532572Y-137087752D01*
X90532572Y-137087752D02*
X90895429Y-137087752D01*
X90895429Y-137087752D02*
X91040572Y-137160324D01*
X91040572Y-137160324D02*
X91113143Y-137232895D01*
X91113143Y-137232895D02*
X91185714Y-137378038D01*
X91185714Y-137378038D02*
X91185714Y-137740895D01*
X91185714Y-137740895D02*
X91113143Y-137886038D01*
X91113143Y-137886038D02*
X91040572Y-137958610D01*
X91040572Y-137958610D02*
X90895429Y-138031181D01*
X90895429Y-138031181D02*
X90532572Y-138031181D01*
X90532572Y-138031181D02*
X90387429Y-137958610D01*
X90387429Y-137958610D02*
X90314857Y-137886038D01*
D10*
X267224819Y-73301904D02*
X268034342Y-73301904D01*
X268034342Y-73301904D02*
X268129580Y-73254285D01*
X268129580Y-73254285D02*
X268177200Y-73206666D01*
X268177200Y-73206666D02*
X268224819Y-73111428D01*
X268224819Y-73111428D02*
X268224819Y-72920952D01*
X268224819Y-72920952D02*
X268177200Y-72825714D01*
X268177200Y-72825714D02*
X268129580Y-72778095D01*
X268129580Y-72778095D02*
X268034342Y-72730476D01*
X268034342Y-72730476D02*
X267224819Y-72730476D01*
X267653390Y-72111428D02*
X267605771Y-72206666D01*
X267605771Y-72206666D02*
X267558152Y-72254285D01*
X267558152Y-72254285D02*
X267462914Y-72301904D01*
X267462914Y-72301904D02*
X267415295Y-72301904D01*
X267415295Y-72301904D02*
X267320057Y-72254285D01*
X267320057Y-72254285D02*
X267272438Y-72206666D01*
X267272438Y-72206666D02*
X267224819Y-72111428D01*
X267224819Y-72111428D02*
X267224819Y-71920952D01*
X267224819Y-71920952D02*
X267272438Y-71825714D01*
X267272438Y-71825714D02*
X267320057Y-71778095D01*
X267320057Y-71778095D02*
X267415295Y-71730476D01*
X267415295Y-71730476D02*
X267462914Y-71730476D01*
X267462914Y-71730476D02*
X267558152Y-71778095D01*
X267558152Y-71778095D02*
X267605771Y-71825714D01*
X267605771Y-71825714D02*
X267653390Y-71920952D01*
X267653390Y-71920952D02*
X267653390Y-72111428D01*
X267653390Y-72111428D02*
X267701009Y-72206666D01*
X267701009Y-72206666D02*
X267748628Y-72254285D01*
X267748628Y-72254285D02*
X267843866Y-72301904D01*
X267843866Y-72301904D02*
X268034342Y-72301904D01*
X268034342Y-72301904D02*
X268129580Y-72254285D01*
X268129580Y-72254285D02*
X268177200Y-72206666D01*
X268177200Y-72206666D02*
X268224819Y-72111428D01*
X268224819Y-72111428D02*
X268224819Y-71920952D01*
X268224819Y-71920952D02*
X268177200Y-71825714D01*
X268177200Y-71825714D02*
X268129580Y-71778095D01*
X268129580Y-71778095D02*
X268034342Y-71730476D01*
X268034342Y-71730476D02*
X267843866Y-71730476D01*
X267843866Y-71730476D02*
X267748628Y-71778095D01*
X267748628Y-71778095D02*
X267701009Y-71825714D01*
X267701009Y-71825714D02*
X267653390Y-71920952D01*
X187833333Y-54859580D02*
X187785714Y-54907200D01*
X187785714Y-54907200D02*
X187642857Y-54954819D01*
X187642857Y-54954819D02*
X187547619Y-54954819D01*
X187547619Y-54954819D02*
X187404762Y-54907200D01*
X187404762Y-54907200D02*
X187309524Y-54811961D01*
X187309524Y-54811961D02*
X187261905Y-54716723D01*
X187261905Y-54716723D02*
X187214286Y-54526247D01*
X187214286Y-54526247D02*
X187214286Y-54383390D01*
X187214286Y-54383390D02*
X187261905Y-54192914D01*
X187261905Y-54192914D02*
X187309524Y-54097676D01*
X187309524Y-54097676D02*
X187404762Y-54002438D01*
X187404762Y-54002438D02*
X187547619Y-53954819D01*
X187547619Y-53954819D02*
X187642857Y-53954819D01*
X187642857Y-53954819D02*
X187785714Y-54002438D01*
X187785714Y-54002438D02*
X187833333Y-54050057D01*
X188690476Y-53954819D02*
X188500000Y-53954819D01*
X188500000Y-53954819D02*
X188404762Y-54002438D01*
X188404762Y-54002438D02*
X188357143Y-54050057D01*
X188357143Y-54050057D02*
X188261905Y-54192914D01*
X188261905Y-54192914D02*
X188214286Y-54383390D01*
X188214286Y-54383390D02*
X188214286Y-54764342D01*
X188214286Y-54764342D02*
X188261905Y-54859580D01*
X188261905Y-54859580D02*
X188309524Y-54907200D01*
X188309524Y-54907200D02*
X188404762Y-54954819D01*
X188404762Y-54954819D02*
X188595238Y-54954819D01*
X188595238Y-54954819D02*
X188690476Y-54907200D01*
X188690476Y-54907200D02*
X188738095Y-54859580D01*
X188738095Y-54859580D02*
X188785714Y-54764342D01*
X188785714Y-54764342D02*
X188785714Y-54526247D01*
X188785714Y-54526247D02*
X188738095Y-54431009D01*
X188738095Y-54431009D02*
X188690476Y-54383390D01*
X188690476Y-54383390D02*
X188595238Y-54335771D01*
X188595238Y-54335771D02*
X188404762Y-54335771D01*
X188404762Y-54335771D02*
X188309524Y-54383390D01*
X188309524Y-54383390D02*
X188261905Y-54431009D01*
X188261905Y-54431009D02*
X188214286Y-54526247D01*
D11*
X61346285Y-104323181D02*
X61346285Y-105411752D01*
X61346285Y-105411752D02*
X61273714Y-105629467D01*
X61273714Y-105629467D02*
X61128571Y-105774610D01*
X61128571Y-105774610D02*
X60910857Y-105847181D01*
X60910857Y-105847181D02*
X60765714Y-105847181D01*
X62870285Y-105847181D02*
X61999428Y-105847181D01*
X62434857Y-105847181D02*
X62434857Y-104323181D01*
X62434857Y-104323181D02*
X62289714Y-104540895D01*
X62289714Y-104540895D02*
X62144571Y-104686038D01*
X62144571Y-104686038D02*
X61999428Y-104758610D01*
X63741143Y-104976324D02*
X63596000Y-104903752D01*
X63596000Y-104903752D02*
X63523429Y-104831181D01*
X63523429Y-104831181D02*
X63450857Y-104686038D01*
X63450857Y-104686038D02*
X63450857Y-104613467D01*
X63450857Y-104613467D02*
X63523429Y-104468324D01*
X63523429Y-104468324D02*
X63596000Y-104395752D01*
X63596000Y-104395752D02*
X63741143Y-104323181D01*
X63741143Y-104323181D02*
X64031429Y-104323181D01*
X64031429Y-104323181D02*
X64176572Y-104395752D01*
X64176572Y-104395752D02*
X64249143Y-104468324D01*
X64249143Y-104468324D02*
X64321714Y-104613467D01*
X64321714Y-104613467D02*
X64321714Y-104686038D01*
X64321714Y-104686038D02*
X64249143Y-104831181D01*
X64249143Y-104831181D02*
X64176572Y-104903752D01*
X64176572Y-104903752D02*
X64031429Y-104976324D01*
X64031429Y-104976324D02*
X63741143Y-104976324D01*
X63741143Y-104976324D02*
X63596000Y-105048895D01*
X63596000Y-105048895D02*
X63523429Y-105121467D01*
X63523429Y-105121467D02*
X63450857Y-105266610D01*
X63450857Y-105266610D02*
X63450857Y-105556895D01*
X63450857Y-105556895D02*
X63523429Y-105702038D01*
X63523429Y-105702038D02*
X63596000Y-105774610D01*
X63596000Y-105774610D02*
X63741143Y-105847181D01*
X63741143Y-105847181D02*
X64031429Y-105847181D01*
X64031429Y-105847181D02*
X64176572Y-105774610D01*
X64176572Y-105774610D02*
X64249143Y-105702038D01*
X64249143Y-105702038D02*
X64321714Y-105556895D01*
X64321714Y-105556895D02*
X64321714Y-105266610D01*
X64321714Y-105266610D02*
X64249143Y-105121467D01*
X64249143Y-105121467D02*
X64176572Y-105048895D01*
X64176572Y-105048895D02*
X64031429Y-104976324D01*
X60257714Y-117531181D02*
X59749714Y-116805467D01*
X59386857Y-117531181D02*
X59386857Y-116007181D01*
X59386857Y-116007181D02*
X59967428Y-116007181D01*
X59967428Y-116007181D02*
X60112571Y-116079752D01*
X60112571Y-116079752D02*
X60185142Y-116152324D01*
X60185142Y-116152324D02*
X60257714Y-116297467D01*
X60257714Y-116297467D02*
X60257714Y-116515181D01*
X60257714Y-116515181D02*
X60185142Y-116660324D01*
X60185142Y-116660324D02*
X60112571Y-116732895D01*
X60112571Y-116732895D02*
X59967428Y-116805467D01*
X59967428Y-116805467D02*
X59386857Y-116805467D01*
X60693142Y-116007181D02*
X61564000Y-116007181D01*
X61128571Y-117531181D02*
X61128571Y-116007181D01*
X62072000Y-117531181D02*
X62072000Y-116007181D01*
X62072000Y-116007181D02*
X62434857Y-116007181D01*
X62434857Y-116007181D02*
X62652571Y-116079752D01*
X62652571Y-116079752D02*
X62797714Y-116224895D01*
X62797714Y-116224895D02*
X62870285Y-116370038D01*
X62870285Y-116370038D02*
X62942857Y-116660324D01*
X62942857Y-116660324D02*
X62942857Y-116878038D01*
X62942857Y-116878038D02*
X62870285Y-117168324D01*
X62870285Y-117168324D02*
X62797714Y-117313467D01*
X62797714Y-117313467D02*
X62652571Y-117458610D01*
X62652571Y-117458610D02*
X62434857Y-117531181D01*
X62434857Y-117531181D02*
X62072000Y-117531181D01*
X64394285Y-117531181D02*
X63523428Y-117531181D01*
X63958857Y-117531181D02*
X63958857Y-116007181D01*
X63958857Y-116007181D02*
X63813714Y-116224895D01*
X63813714Y-116224895D02*
X63668571Y-116370038D01*
X63668571Y-116370038D02*
X63523428Y-116442610D01*
X65845714Y-117531181D02*
X64974857Y-117531181D01*
X65410286Y-117531181D02*
X65410286Y-116007181D01*
X65410286Y-116007181D02*
X65265143Y-116224895D01*
X65265143Y-116224895D02*
X65120000Y-116370038D01*
X65120000Y-116370038D02*
X64974857Y-116442610D01*
D10*
X215573095Y-72184819D02*
X215573095Y-72994342D01*
X215573095Y-72994342D02*
X215620714Y-73089580D01*
X215620714Y-73089580D02*
X215668333Y-73137200D01*
X215668333Y-73137200D02*
X215763571Y-73184819D01*
X215763571Y-73184819D02*
X215954047Y-73184819D01*
X215954047Y-73184819D02*
X216049285Y-73137200D01*
X216049285Y-73137200D02*
X216096904Y-73089580D01*
X216096904Y-73089580D02*
X216144523Y-72994342D01*
X216144523Y-72994342D02*
X216144523Y-72184819D01*
X217096904Y-72184819D02*
X216620714Y-72184819D01*
X216620714Y-72184819D02*
X216573095Y-72661009D01*
X216573095Y-72661009D02*
X216620714Y-72613390D01*
X216620714Y-72613390D02*
X216715952Y-72565771D01*
X216715952Y-72565771D02*
X216954047Y-72565771D01*
X216954047Y-72565771D02*
X217049285Y-72613390D01*
X217049285Y-72613390D02*
X217096904Y-72661009D01*
X217096904Y-72661009D02*
X217144523Y-72756247D01*
X217144523Y-72756247D02*
X217144523Y-72994342D01*
X217144523Y-72994342D02*
X217096904Y-73089580D01*
X217096904Y-73089580D02*
X217049285Y-73137200D01*
X217049285Y-73137200D02*
X216954047Y-73184819D01*
X216954047Y-73184819D02*
X216715952Y-73184819D01*
X216715952Y-73184819D02*
X216620714Y-73137200D01*
X216620714Y-73137200D02*
X216573095Y-73089580D01*
X173953333Y-39249580D02*
X173905714Y-39297200D01*
X173905714Y-39297200D02*
X173762857Y-39344819D01*
X173762857Y-39344819D02*
X173667619Y-39344819D01*
X173667619Y-39344819D02*
X173524762Y-39297200D01*
X173524762Y-39297200D02*
X173429524Y-39201961D01*
X173429524Y-39201961D02*
X173381905Y-39106723D01*
X173381905Y-39106723D02*
X173334286Y-38916247D01*
X173334286Y-38916247D02*
X173334286Y-38773390D01*
X173334286Y-38773390D02*
X173381905Y-38582914D01*
X173381905Y-38582914D02*
X173429524Y-38487676D01*
X173429524Y-38487676D02*
X173524762Y-38392438D01*
X173524762Y-38392438D02*
X173667619Y-38344819D01*
X173667619Y-38344819D02*
X173762857Y-38344819D01*
X173762857Y-38344819D02*
X173905714Y-38392438D01*
X173905714Y-38392438D02*
X173953333Y-38440057D01*
X174810476Y-38678152D02*
X174810476Y-39344819D01*
X174572381Y-38297200D02*
X174334286Y-39011485D01*
X174334286Y-39011485D02*
X174953333Y-39011485D01*
X206227142Y-73249580D02*
X206179523Y-73297200D01*
X206179523Y-73297200D02*
X206036666Y-73344819D01*
X206036666Y-73344819D02*
X205941428Y-73344819D01*
X205941428Y-73344819D02*
X205798571Y-73297200D01*
X205798571Y-73297200D02*
X205703333Y-73201961D01*
X205703333Y-73201961D02*
X205655714Y-73106723D01*
X205655714Y-73106723D02*
X205608095Y-72916247D01*
X205608095Y-72916247D02*
X205608095Y-72773390D01*
X205608095Y-72773390D02*
X205655714Y-72582914D01*
X205655714Y-72582914D02*
X205703333Y-72487676D01*
X205703333Y-72487676D02*
X205798571Y-72392438D01*
X205798571Y-72392438D02*
X205941428Y-72344819D01*
X205941428Y-72344819D02*
X206036666Y-72344819D01*
X206036666Y-72344819D02*
X206179523Y-72392438D01*
X206179523Y-72392438D02*
X206227142Y-72440057D01*
X207179523Y-73344819D02*
X206608095Y-73344819D01*
X206893809Y-73344819D02*
X206893809Y-72344819D01*
X206893809Y-72344819D02*
X206798571Y-72487676D01*
X206798571Y-72487676D02*
X206703333Y-72582914D01*
X206703333Y-72582914D02*
X206608095Y-72630533D01*
X208131904Y-73344819D02*
X207560476Y-73344819D01*
X207846190Y-73344819D02*
X207846190Y-72344819D01*
X207846190Y-72344819D02*
X207750952Y-72487676D01*
X207750952Y-72487676D02*
X207655714Y-72582914D01*
X207655714Y-72582914D02*
X207560476Y-72630533D01*
X187833333Y-39359580D02*
X187785714Y-39407200D01*
X187785714Y-39407200D02*
X187642857Y-39454819D01*
X187642857Y-39454819D02*
X187547619Y-39454819D01*
X187547619Y-39454819D02*
X187404762Y-39407200D01*
X187404762Y-39407200D02*
X187309524Y-39311961D01*
X187309524Y-39311961D02*
X187261905Y-39216723D01*
X187261905Y-39216723D02*
X187214286Y-39026247D01*
X187214286Y-39026247D02*
X187214286Y-38883390D01*
X187214286Y-38883390D02*
X187261905Y-38692914D01*
X187261905Y-38692914D02*
X187309524Y-38597676D01*
X187309524Y-38597676D02*
X187404762Y-38502438D01*
X187404762Y-38502438D02*
X187547619Y-38454819D01*
X187547619Y-38454819D02*
X187642857Y-38454819D01*
X187642857Y-38454819D02*
X187785714Y-38502438D01*
X187785714Y-38502438D02*
X187833333Y-38550057D01*
X188309524Y-39454819D02*
X188500000Y-39454819D01*
X188500000Y-39454819D02*
X188595238Y-39407200D01*
X188595238Y-39407200D02*
X188642857Y-39359580D01*
X188642857Y-39359580D02*
X188738095Y-39216723D01*
X188738095Y-39216723D02*
X188785714Y-39026247D01*
X188785714Y-39026247D02*
X188785714Y-38645295D01*
X188785714Y-38645295D02*
X188738095Y-38550057D01*
X188738095Y-38550057D02*
X188690476Y-38502438D01*
X188690476Y-38502438D02*
X188595238Y-38454819D01*
X188595238Y-38454819D02*
X188404762Y-38454819D01*
X188404762Y-38454819D02*
X188309524Y-38502438D01*
X188309524Y-38502438D02*
X188261905Y-38550057D01*
X188261905Y-38550057D02*
X188214286Y-38645295D01*
X188214286Y-38645295D02*
X188214286Y-38883390D01*
X188214286Y-38883390D02*
X188261905Y-38978628D01*
X188261905Y-38978628D02*
X188309524Y-39026247D01*
X188309524Y-39026247D02*
X188404762Y-39073866D01*
X188404762Y-39073866D02*
X188595238Y-39073866D01*
X188595238Y-39073866D02*
X188690476Y-39026247D01*
X188690476Y-39026247D02*
X188738095Y-38978628D01*
X188738095Y-38978628D02*
X188785714Y-38883390D01*
D11*
X86686285Y-45823181D02*
X86686285Y-46911752D01*
X86686285Y-46911752D02*
X86613714Y-47129467D01*
X86613714Y-47129467D02*
X86468571Y-47274610D01*
X86468571Y-47274610D02*
X86250857Y-47347181D01*
X86250857Y-47347181D02*
X86105714Y-47347181D01*
X88210285Y-47347181D02*
X87339428Y-47347181D01*
X87774857Y-47347181D02*
X87774857Y-45823181D01*
X87774857Y-45823181D02*
X87629714Y-46040895D01*
X87629714Y-46040895D02*
X87484571Y-46186038D01*
X87484571Y-46186038D02*
X87339428Y-46258610D01*
X89153714Y-45823181D02*
X89298857Y-45823181D01*
X89298857Y-45823181D02*
X89444000Y-45895752D01*
X89444000Y-45895752D02*
X89516572Y-45968324D01*
X89516572Y-45968324D02*
X89589143Y-46113467D01*
X89589143Y-46113467D02*
X89661714Y-46403752D01*
X89661714Y-46403752D02*
X89661714Y-46766610D01*
X89661714Y-46766610D02*
X89589143Y-47056895D01*
X89589143Y-47056895D02*
X89516572Y-47202038D01*
X89516572Y-47202038D02*
X89444000Y-47274610D01*
X89444000Y-47274610D02*
X89298857Y-47347181D01*
X89298857Y-47347181D02*
X89153714Y-47347181D01*
X89153714Y-47347181D02*
X89008572Y-47274610D01*
X89008572Y-47274610D02*
X88936000Y-47202038D01*
X88936000Y-47202038D02*
X88863429Y-47056895D01*
X88863429Y-47056895D02*
X88790857Y-46766610D01*
X88790857Y-46766610D02*
X88790857Y-46403752D01*
X88790857Y-46403752D02*
X88863429Y-46113467D01*
X88863429Y-46113467D02*
X88936000Y-45968324D01*
X88936000Y-45968324D02*
X89008572Y-45895752D01*
X89008572Y-45895752D02*
X89153714Y-45823181D01*
X86323428Y-59031181D02*
X85815428Y-58305467D01*
X85452571Y-59031181D02*
X85452571Y-57507181D01*
X85452571Y-57507181D02*
X86033142Y-57507181D01*
X86033142Y-57507181D02*
X86178285Y-57579752D01*
X86178285Y-57579752D02*
X86250856Y-57652324D01*
X86250856Y-57652324D02*
X86323428Y-57797467D01*
X86323428Y-57797467D02*
X86323428Y-58015181D01*
X86323428Y-58015181D02*
X86250856Y-58160324D01*
X86250856Y-58160324D02*
X86178285Y-58232895D01*
X86178285Y-58232895D02*
X86033142Y-58305467D01*
X86033142Y-58305467D02*
X85452571Y-58305467D01*
X86758856Y-57507181D02*
X87629714Y-57507181D01*
X87194285Y-59031181D02*
X87194285Y-57507181D01*
X88137714Y-59031181D02*
X88137714Y-57507181D01*
X88137714Y-57507181D02*
X88500571Y-57507181D01*
X88500571Y-57507181D02*
X88718285Y-57579752D01*
X88718285Y-57579752D02*
X88863428Y-57724895D01*
X88863428Y-57724895D02*
X88935999Y-57870038D01*
X88935999Y-57870038D02*
X89008571Y-58160324D01*
X89008571Y-58160324D02*
X89008571Y-58378038D01*
X89008571Y-58378038D02*
X88935999Y-58668324D01*
X88935999Y-58668324D02*
X88863428Y-58813467D01*
X88863428Y-58813467D02*
X88718285Y-58958610D01*
X88718285Y-58958610D02*
X88500571Y-59031181D01*
X88500571Y-59031181D02*
X88137714Y-59031181D01*
X89516571Y-57507181D02*
X90459999Y-57507181D01*
X90459999Y-57507181D02*
X89951999Y-58087752D01*
X89951999Y-58087752D02*
X90169714Y-58087752D01*
X90169714Y-58087752D02*
X90314857Y-58160324D01*
X90314857Y-58160324D02*
X90387428Y-58232895D01*
X90387428Y-58232895D02*
X90459999Y-58378038D01*
X90459999Y-58378038D02*
X90459999Y-58740895D01*
X90459999Y-58740895D02*
X90387428Y-58886038D01*
X90387428Y-58886038D02*
X90314857Y-58958610D01*
X90314857Y-58958610D02*
X90169714Y-59031181D01*
X90169714Y-59031181D02*
X89734285Y-59031181D01*
X89734285Y-59031181D02*
X89589142Y-58958610D01*
X89589142Y-58958610D02*
X89516571Y-58886038D01*
D10*
X199858095Y-122944819D02*
X199858095Y-123754342D01*
X199858095Y-123754342D02*
X199905714Y-123849580D01*
X199905714Y-123849580D02*
X199953333Y-123897200D01*
X199953333Y-123897200D02*
X200048571Y-123944819D01*
X200048571Y-123944819D02*
X200239047Y-123944819D01*
X200239047Y-123944819D02*
X200334285Y-123897200D01*
X200334285Y-123897200D02*
X200381904Y-123849580D01*
X200381904Y-123849580D02*
X200429523Y-123754342D01*
X200429523Y-123754342D02*
X200429523Y-122944819D01*
X200810476Y-122944819D02*
X201429523Y-122944819D01*
X201429523Y-122944819D02*
X201096190Y-123325771D01*
X201096190Y-123325771D02*
X201239047Y-123325771D01*
X201239047Y-123325771D02*
X201334285Y-123373390D01*
X201334285Y-123373390D02*
X201381904Y-123421009D01*
X201381904Y-123421009D02*
X201429523Y-123516247D01*
X201429523Y-123516247D02*
X201429523Y-123754342D01*
X201429523Y-123754342D02*
X201381904Y-123849580D01*
X201381904Y-123849580D02*
X201334285Y-123897200D01*
X201334285Y-123897200D02*
X201239047Y-123944819D01*
X201239047Y-123944819D02*
X200953333Y-123944819D01*
X200953333Y-123944819D02*
X200858095Y-123897200D01*
X200858095Y-123897200D02*
X200810476Y-123849580D01*
X185223333Y-133274819D02*
X184890000Y-132798628D01*
X184651905Y-133274819D02*
X184651905Y-132274819D01*
X184651905Y-132274819D02*
X185032857Y-132274819D01*
X185032857Y-132274819D02*
X185128095Y-132322438D01*
X185128095Y-132322438D02*
X185175714Y-132370057D01*
X185175714Y-132370057D02*
X185223333Y-132465295D01*
X185223333Y-132465295D02*
X185223333Y-132608152D01*
X185223333Y-132608152D02*
X185175714Y-132703390D01*
X185175714Y-132703390D02*
X185128095Y-132751009D01*
X185128095Y-132751009D02*
X185032857Y-132798628D01*
X185032857Y-132798628D02*
X184651905Y-132798628D01*
X185556667Y-132274819D02*
X186175714Y-132274819D01*
X186175714Y-132274819D02*
X185842381Y-132655771D01*
X185842381Y-132655771D02*
X185985238Y-132655771D01*
X185985238Y-132655771D02*
X186080476Y-132703390D01*
X186080476Y-132703390D02*
X186128095Y-132751009D01*
X186128095Y-132751009D02*
X186175714Y-132846247D01*
X186175714Y-132846247D02*
X186175714Y-133084342D01*
X186175714Y-133084342D02*
X186128095Y-133179580D01*
X186128095Y-133179580D02*
X186080476Y-133227200D01*
X186080476Y-133227200D02*
X185985238Y-133274819D01*
X185985238Y-133274819D02*
X185699524Y-133274819D01*
X185699524Y-133274819D02*
X185604286Y-133227200D01*
X185604286Y-133227200D02*
X185556667Y-133179580D01*
D11*
X86686285Y-64823181D02*
X86686285Y-65911752D01*
X86686285Y-65911752D02*
X86613714Y-66129467D01*
X86613714Y-66129467D02*
X86468571Y-66274610D01*
X86468571Y-66274610D02*
X86250857Y-66347181D01*
X86250857Y-66347181D02*
X86105714Y-66347181D01*
X88210285Y-66347181D02*
X87339428Y-66347181D01*
X87774857Y-66347181D02*
X87774857Y-64823181D01*
X87774857Y-64823181D02*
X87629714Y-65040895D01*
X87629714Y-65040895D02*
X87484571Y-65186038D01*
X87484571Y-65186038D02*
X87339428Y-65258610D01*
X89516572Y-65331181D02*
X89516572Y-66347181D01*
X89153714Y-64750610D02*
X88790857Y-65839181D01*
X88790857Y-65839181D02*
X89734286Y-65839181D01*
X86323428Y-78031181D02*
X85815428Y-77305467D01*
X85452571Y-78031181D02*
X85452571Y-76507181D01*
X85452571Y-76507181D02*
X86033142Y-76507181D01*
X86033142Y-76507181D02*
X86178285Y-76579752D01*
X86178285Y-76579752D02*
X86250856Y-76652324D01*
X86250856Y-76652324D02*
X86323428Y-76797467D01*
X86323428Y-76797467D02*
X86323428Y-77015181D01*
X86323428Y-77015181D02*
X86250856Y-77160324D01*
X86250856Y-77160324D02*
X86178285Y-77232895D01*
X86178285Y-77232895D02*
X86033142Y-77305467D01*
X86033142Y-77305467D02*
X85452571Y-77305467D01*
X86758856Y-76507181D02*
X87629714Y-76507181D01*
X87194285Y-78031181D02*
X87194285Y-76507181D01*
X88137714Y-78031181D02*
X88137714Y-76507181D01*
X88137714Y-76507181D02*
X88500571Y-76507181D01*
X88500571Y-76507181D02*
X88718285Y-76579752D01*
X88718285Y-76579752D02*
X88863428Y-76724895D01*
X88863428Y-76724895D02*
X88935999Y-76870038D01*
X88935999Y-76870038D02*
X89008571Y-77160324D01*
X89008571Y-77160324D02*
X89008571Y-77378038D01*
X89008571Y-77378038D02*
X88935999Y-77668324D01*
X88935999Y-77668324D02*
X88863428Y-77813467D01*
X88863428Y-77813467D02*
X88718285Y-77958610D01*
X88718285Y-77958610D02*
X88500571Y-78031181D01*
X88500571Y-78031181D02*
X88137714Y-78031181D01*
X90314857Y-76507181D02*
X90024571Y-76507181D01*
X90024571Y-76507181D02*
X89879428Y-76579752D01*
X89879428Y-76579752D02*
X89806857Y-76652324D01*
X89806857Y-76652324D02*
X89661714Y-76870038D01*
X89661714Y-76870038D02*
X89589142Y-77160324D01*
X89589142Y-77160324D02*
X89589142Y-77740895D01*
X89589142Y-77740895D02*
X89661714Y-77886038D01*
X89661714Y-77886038D02*
X89734285Y-77958610D01*
X89734285Y-77958610D02*
X89879428Y-78031181D01*
X89879428Y-78031181D02*
X90169714Y-78031181D01*
X90169714Y-78031181D02*
X90314857Y-77958610D01*
X90314857Y-77958610D02*
X90387428Y-77886038D01*
X90387428Y-77886038D02*
X90459999Y-77740895D01*
X90459999Y-77740895D02*
X90459999Y-77378038D01*
X90459999Y-77378038D02*
X90387428Y-77232895D01*
X90387428Y-77232895D02*
X90314857Y-77160324D01*
X90314857Y-77160324D02*
X90169714Y-77087752D01*
X90169714Y-77087752D02*
X89879428Y-77087752D01*
X89879428Y-77087752D02*
X89734285Y-77160324D01*
X89734285Y-77160324D02*
X89661714Y-77232895D01*
X89661714Y-77232895D02*
X89589142Y-77378038D01*
D10*
X247075476Y-39334819D02*
X247075476Y-40049104D01*
X247075476Y-40049104D02*
X247027857Y-40191961D01*
X247027857Y-40191961D02*
X246932619Y-40287200D01*
X246932619Y-40287200D02*
X246789762Y-40334819D01*
X246789762Y-40334819D02*
X246694524Y-40334819D01*
X247504048Y-39430057D02*
X247551667Y-39382438D01*
X247551667Y-39382438D02*
X247646905Y-39334819D01*
X247646905Y-39334819D02*
X247885000Y-39334819D01*
X247885000Y-39334819D02*
X247980238Y-39382438D01*
X247980238Y-39382438D02*
X248027857Y-39430057D01*
X248027857Y-39430057D02*
X248075476Y-39525295D01*
X248075476Y-39525295D02*
X248075476Y-39620533D01*
X248075476Y-39620533D02*
X248027857Y-39763390D01*
X248027857Y-39763390D02*
X247456429Y-40334819D01*
X247456429Y-40334819D02*
X248075476Y-40334819D01*
X248980238Y-39334819D02*
X248504048Y-39334819D01*
X248504048Y-39334819D02*
X248456429Y-39811009D01*
X248456429Y-39811009D02*
X248504048Y-39763390D01*
X248504048Y-39763390D02*
X248599286Y-39715771D01*
X248599286Y-39715771D02*
X248837381Y-39715771D01*
X248837381Y-39715771D02*
X248932619Y-39763390D01*
X248932619Y-39763390D02*
X248980238Y-39811009D01*
X248980238Y-39811009D02*
X249027857Y-39906247D01*
X249027857Y-39906247D02*
X249027857Y-40144342D01*
X249027857Y-40144342D02*
X248980238Y-40239580D01*
X248980238Y-40239580D02*
X248932619Y-40287200D01*
X248932619Y-40287200D02*
X248837381Y-40334819D01*
X248837381Y-40334819D02*
X248599286Y-40334819D01*
X248599286Y-40334819D02*
X248504048Y-40287200D01*
X248504048Y-40287200D02*
X248456429Y-40239580D01*
X224016667Y-99707200D02*
X224159524Y-99754819D01*
X224159524Y-99754819D02*
X224397619Y-99754819D01*
X224397619Y-99754819D02*
X224492857Y-99707200D01*
X224492857Y-99707200D02*
X224540476Y-99659580D01*
X224540476Y-99659580D02*
X224588095Y-99564342D01*
X224588095Y-99564342D02*
X224588095Y-99469104D01*
X224588095Y-99469104D02*
X224540476Y-99373866D01*
X224540476Y-99373866D02*
X224492857Y-99326247D01*
X224492857Y-99326247D02*
X224397619Y-99278628D01*
X224397619Y-99278628D02*
X224207143Y-99231009D01*
X224207143Y-99231009D02*
X224111905Y-99183390D01*
X224111905Y-99183390D02*
X224064286Y-99135771D01*
X224064286Y-99135771D02*
X224016667Y-99040533D01*
X224016667Y-99040533D02*
X224016667Y-98945295D01*
X224016667Y-98945295D02*
X224064286Y-98850057D01*
X224064286Y-98850057D02*
X224111905Y-98802438D01*
X224111905Y-98802438D02*
X224207143Y-98754819D01*
X224207143Y-98754819D02*
X224445238Y-98754819D01*
X224445238Y-98754819D02*
X224588095Y-98802438D01*
X224921429Y-98754819D02*
X225159524Y-99754819D01*
X225159524Y-99754819D02*
X225350000Y-99040533D01*
X225350000Y-99040533D02*
X225540476Y-99754819D01*
X225540476Y-99754819D02*
X225778572Y-98754819D01*
X226111905Y-98850057D02*
X226159524Y-98802438D01*
X226159524Y-98802438D02*
X226254762Y-98754819D01*
X226254762Y-98754819D02*
X226492857Y-98754819D01*
X226492857Y-98754819D02*
X226588095Y-98802438D01*
X226588095Y-98802438D02*
X226635714Y-98850057D01*
X226635714Y-98850057D02*
X226683333Y-98945295D01*
X226683333Y-98945295D02*
X226683333Y-99040533D01*
X226683333Y-99040533D02*
X226635714Y-99183390D01*
X226635714Y-99183390D02*
X226064286Y-99754819D01*
X226064286Y-99754819D02*
X226683333Y-99754819D01*
X178853333Y-133274819D02*
X178520000Y-132798628D01*
X178281905Y-133274819D02*
X178281905Y-132274819D01*
X178281905Y-132274819D02*
X178662857Y-132274819D01*
X178662857Y-132274819D02*
X178758095Y-132322438D01*
X178758095Y-132322438D02*
X178805714Y-132370057D01*
X178805714Y-132370057D02*
X178853333Y-132465295D01*
X178853333Y-132465295D02*
X178853333Y-132608152D01*
X178853333Y-132608152D02*
X178805714Y-132703390D01*
X178805714Y-132703390D02*
X178758095Y-132751009D01*
X178758095Y-132751009D02*
X178662857Y-132798628D01*
X178662857Y-132798628D02*
X178281905Y-132798628D01*
X179234286Y-132370057D02*
X179281905Y-132322438D01*
X179281905Y-132322438D02*
X179377143Y-132274819D01*
X179377143Y-132274819D02*
X179615238Y-132274819D01*
X179615238Y-132274819D02*
X179710476Y-132322438D01*
X179710476Y-132322438D02*
X179758095Y-132370057D01*
X179758095Y-132370057D02*
X179805714Y-132465295D01*
X179805714Y-132465295D02*
X179805714Y-132560533D01*
X179805714Y-132560533D02*
X179758095Y-132703390D01*
X179758095Y-132703390D02*
X179186667Y-133274819D01*
X179186667Y-133274819D02*
X179805714Y-133274819D01*
X206227142Y-76899580D02*
X206179523Y-76947200D01*
X206179523Y-76947200D02*
X206036666Y-76994819D01*
X206036666Y-76994819D02*
X205941428Y-76994819D01*
X205941428Y-76994819D02*
X205798571Y-76947200D01*
X205798571Y-76947200D02*
X205703333Y-76851961D01*
X205703333Y-76851961D02*
X205655714Y-76756723D01*
X205655714Y-76756723D02*
X205608095Y-76566247D01*
X205608095Y-76566247D02*
X205608095Y-76423390D01*
X205608095Y-76423390D02*
X205655714Y-76232914D01*
X205655714Y-76232914D02*
X205703333Y-76137676D01*
X205703333Y-76137676D02*
X205798571Y-76042438D01*
X205798571Y-76042438D02*
X205941428Y-75994819D01*
X205941428Y-75994819D02*
X206036666Y-75994819D01*
X206036666Y-75994819D02*
X206179523Y-76042438D01*
X206179523Y-76042438D02*
X206227142Y-76090057D01*
X207179523Y-76994819D02*
X206608095Y-76994819D01*
X206893809Y-76994819D02*
X206893809Y-75994819D01*
X206893809Y-75994819D02*
X206798571Y-76137676D01*
X206798571Y-76137676D02*
X206703333Y-76232914D01*
X206703333Y-76232914D02*
X206608095Y-76280533D01*
X207560476Y-76090057D02*
X207608095Y-76042438D01*
X207608095Y-76042438D02*
X207703333Y-75994819D01*
X207703333Y-75994819D02*
X207941428Y-75994819D01*
X207941428Y-75994819D02*
X208036666Y-76042438D01*
X208036666Y-76042438D02*
X208084285Y-76090057D01*
X208084285Y-76090057D02*
X208131904Y-76185295D01*
X208131904Y-76185295D02*
X208131904Y-76280533D01*
X208131904Y-76280533D02*
X208084285Y-76423390D01*
X208084285Y-76423390D02*
X207512857Y-76994819D01*
X207512857Y-76994819D02*
X208131904Y-76994819D01*
X62166666Y-39694819D02*
X62166666Y-40409104D01*
X62166666Y-40409104D02*
X62119047Y-40551961D01*
X62119047Y-40551961D02*
X62023809Y-40647200D01*
X62023809Y-40647200D02*
X61880952Y-40694819D01*
X61880952Y-40694819D02*
X61785714Y-40694819D01*
X63071428Y-39694819D02*
X62880952Y-39694819D01*
X62880952Y-39694819D02*
X62785714Y-39742438D01*
X62785714Y-39742438D02*
X62738095Y-39790057D01*
X62738095Y-39790057D02*
X62642857Y-39932914D01*
X62642857Y-39932914D02*
X62595238Y-40123390D01*
X62595238Y-40123390D02*
X62595238Y-40504342D01*
X62595238Y-40504342D02*
X62642857Y-40599580D01*
X62642857Y-40599580D02*
X62690476Y-40647200D01*
X62690476Y-40647200D02*
X62785714Y-40694819D01*
X62785714Y-40694819D02*
X62976190Y-40694819D01*
X62976190Y-40694819D02*
X63071428Y-40647200D01*
X63071428Y-40647200D02*
X63119047Y-40599580D01*
X63119047Y-40599580D02*
X63166666Y-40504342D01*
X63166666Y-40504342D02*
X63166666Y-40266247D01*
X63166666Y-40266247D02*
X63119047Y-40171009D01*
X63119047Y-40171009D02*
X63071428Y-40123390D01*
X63071428Y-40123390D02*
X62976190Y-40075771D01*
X62976190Y-40075771D02*
X62785714Y-40075771D01*
X62785714Y-40075771D02*
X62690476Y-40123390D01*
X62690476Y-40123390D02*
X62642857Y-40171009D01*
X62642857Y-40171009D02*
X62595238Y-40266247D01*
X219633333Y-99409580D02*
X219585714Y-99457200D01*
X219585714Y-99457200D02*
X219442857Y-99504819D01*
X219442857Y-99504819D02*
X219347619Y-99504819D01*
X219347619Y-99504819D02*
X219204762Y-99457200D01*
X219204762Y-99457200D02*
X219109524Y-99361961D01*
X219109524Y-99361961D02*
X219061905Y-99266723D01*
X219061905Y-99266723D02*
X219014286Y-99076247D01*
X219014286Y-99076247D02*
X219014286Y-98933390D01*
X219014286Y-98933390D02*
X219061905Y-98742914D01*
X219061905Y-98742914D02*
X219109524Y-98647676D01*
X219109524Y-98647676D02*
X219204762Y-98552438D01*
X219204762Y-98552438D02*
X219347619Y-98504819D01*
X219347619Y-98504819D02*
X219442857Y-98504819D01*
X219442857Y-98504819D02*
X219585714Y-98552438D01*
X219585714Y-98552438D02*
X219633333Y-98600057D01*
X220538095Y-98504819D02*
X220061905Y-98504819D01*
X220061905Y-98504819D02*
X220014286Y-98981009D01*
X220014286Y-98981009D02*
X220061905Y-98933390D01*
X220061905Y-98933390D02*
X220157143Y-98885771D01*
X220157143Y-98885771D02*
X220395238Y-98885771D01*
X220395238Y-98885771D02*
X220490476Y-98933390D01*
X220490476Y-98933390D02*
X220538095Y-98981009D01*
X220538095Y-98981009D02*
X220585714Y-99076247D01*
X220585714Y-99076247D02*
X220585714Y-99314342D01*
X220585714Y-99314342D02*
X220538095Y-99409580D01*
X220538095Y-99409580D02*
X220490476Y-99457200D01*
X220490476Y-99457200D02*
X220395238Y-99504819D01*
X220395238Y-99504819D02*
X220157143Y-99504819D01*
X220157143Y-99504819D02*
X220061905Y-99457200D01*
X220061905Y-99457200D02*
X220014286Y-99409580D01*
D11*
X62411999Y-45823181D02*
X62411999Y-46911752D01*
X62411999Y-46911752D02*
X62339428Y-47129467D01*
X62339428Y-47129467D02*
X62194285Y-47274610D01*
X62194285Y-47274610D02*
X61976571Y-47347181D01*
X61976571Y-47347181D02*
X61831428Y-47347181D01*
X63210285Y-47347181D02*
X63500571Y-47347181D01*
X63500571Y-47347181D02*
X63645714Y-47274610D01*
X63645714Y-47274610D02*
X63718285Y-47202038D01*
X63718285Y-47202038D02*
X63863428Y-46984324D01*
X63863428Y-46984324D02*
X63935999Y-46694038D01*
X63935999Y-46694038D02*
X63935999Y-46113467D01*
X63935999Y-46113467D02*
X63863428Y-45968324D01*
X63863428Y-45968324D02*
X63790857Y-45895752D01*
X63790857Y-45895752D02*
X63645714Y-45823181D01*
X63645714Y-45823181D02*
X63355428Y-45823181D01*
X63355428Y-45823181D02*
X63210285Y-45895752D01*
X63210285Y-45895752D02*
X63137714Y-45968324D01*
X63137714Y-45968324D02*
X63065142Y-46113467D01*
X63065142Y-46113467D02*
X63065142Y-46476324D01*
X63065142Y-46476324D02*
X63137714Y-46621467D01*
X63137714Y-46621467D02*
X63210285Y-46694038D01*
X63210285Y-46694038D02*
X63355428Y-46766610D01*
X63355428Y-46766610D02*
X63645714Y-46766610D01*
X63645714Y-46766610D02*
X63790857Y-46694038D01*
X63790857Y-46694038D02*
X63863428Y-46621467D01*
X63863428Y-46621467D02*
X63935999Y-46476324D01*
X61323428Y-59031181D02*
X60815428Y-58305467D01*
X60452571Y-59031181D02*
X60452571Y-57507181D01*
X60452571Y-57507181D02*
X61033142Y-57507181D01*
X61033142Y-57507181D02*
X61178285Y-57579752D01*
X61178285Y-57579752D02*
X61250856Y-57652324D01*
X61250856Y-57652324D02*
X61323428Y-57797467D01*
X61323428Y-57797467D02*
X61323428Y-58015181D01*
X61323428Y-58015181D02*
X61250856Y-58160324D01*
X61250856Y-58160324D02*
X61178285Y-58232895D01*
X61178285Y-58232895D02*
X61033142Y-58305467D01*
X61033142Y-58305467D02*
X60452571Y-58305467D01*
X61758856Y-57507181D02*
X62629714Y-57507181D01*
X62194285Y-59031181D02*
X62194285Y-57507181D01*
X63137714Y-59031181D02*
X63137714Y-57507181D01*
X63137714Y-57507181D02*
X63500571Y-57507181D01*
X63500571Y-57507181D02*
X63718285Y-57579752D01*
X63718285Y-57579752D02*
X63863428Y-57724895D01*
X63863428Y-57724895D02*
X63935999Y-57870038D01*
X63935999Y-57870038D02*
X64008571Y-58160324D01*
X64008571Y-58160324D02*
X64008571Y-58378038D01*
X64008571Y-58378038D02*
X63935999Y-58668324D01*
X63935999Y-58668324D02*
X63863428Y-58813467D01*
X63863428Y-58813467D02*
X63718285Y-58958610D01*
X63718285Y-58958610D02*
X63500571Y-59031181D01*
X63500571Y-59031181D02*
X63137714Y-59031181D01*
X64589142Y-57652324D02*
X64661714Y-57579752D01*
X64661714Y-57579752D02*
X64806857Y-57507181D01*
X64806857Y-57507181D02*
X65169714Y-57507181D01*
X65169714Y-57507181D02*
X65314857Y-57579752D01*
X65314857Y-57579752D02*
X65387428Y-57652324D01*
X65387428Y-57652324D02*
X65459999Y-57797467D01*
X65459999Y-57797467D02*
X65459999Y-57942610D01*
X65459999Y-57942610D02*
X65387428Y-58160324D01*
X65387428Y-58160324D02*
X64516571Y-59031181D01*
X64516571Y-59031181D02*
X65459999Y-59031181D01*
D10*
X212981905Y-113209819D02*
X212981905Y-114019342D01*
X212981905Y-114019342D02*
X213029524Y-114114580D01*
X213029524Y-114114580D02*
X213077143Y-114162200D01*
X213077143Y-114162200D02*
X213172381Y-114209819D01*
X213172381Y-114209819D02*
X213362857Y-114209819D01*
X213362857Y-114209819D02*
X213458095Y-114162200D01*
X213458095Y-114162200D02*
X213505714Y-114114580D01*
X213505714Y-114114580D02*
X213553333Y-114019342D01*
X213553333Y-114019342D02*
X213553333Y-113209819D01*
X214553333Y-114209819D02*
X213981905Y-114209819D01*
X214267619Y-114209819D02*
X214267619Y-113209819D01*
X214267619Y-113209819D02*
X214172381Y-113352676D01*
X214172381Y-113352676D02*
X214077143Y-113447914D01*
X214077143Y-113447914D02*
X213981905Y-113495533D01*
X215505714Y-114209819D02*
X214934286Y-114209819D01*
X215220000Y-114209819D02*
X215220000Y-113209819D01*
X215220000Y-113209819D02*
X215124762Y-113352676D01*
X215124762Y-113352676D02*
X215029524Y-113447914D01*
X215029524Y-113447914D02*
X214934286Y-113495533D01*
X215813333Y-80264819D02*
X215480000Y-79788628D01*
X215241905Y-80264819D02*
X215241905Y-79264819D01*
X215241905Y-79264819D02*
X215622857Y-79264819D01*
X215622857Y-79264819D02*
X215718095Y-79312438D01*
X215718095Y-79312438D02*
X215765714Y-79360057D01*
X215765714Y-79360057D02*
X215813333Y-79455295D01*
X215813333Y-79455295D02*
X215813333Y-79598152D01*
X215813333Y-79598152D02*
X215765714Y-79693390D01*
X215765714Y-79693390D02*
X215718095Y-79741009D01*
X215718095Y-79741009D02*
X215622857Y-79788628D01*
X215622857Y-79788628D02*
X215241905Y-79788628D01*
X216765714Y-80264819D02*
X216194286Y-80264819D01*
X216480000Y-80264819D02*
X216480000Y-79264819D01*
X216480000Y-79264819D02*
X216384762Y-79407676D01*
X216384762Y-79407676D02*
X216289524Y-79502914D01*
X216289524Y-79502914D02*
X216194286Y-79550533D01*
D11*
X178031999Y-24863181D02*
X178031999Y-25951752D01*
X178031999Y-25951752D02*
X177959428Y-26169467D01*
X177959428Y-26169467D02*
X177814285Y-26314610D01*
X177814285Y-26314610D02*
X177596571Y-26387181D01*
X177596571Y-26387181D02*
X177451428Y-26387181D01*
X178612571Y-24863181D02*
X179555999Y-24863181D01*
X179555999Y-24863181D02*
X179047999Y-25443752D01*
X179047999Y-25443752D02*
X179265714Y-25443752D01*
X179265714Y-25443752D02*
X179410857Y-25516324D01*
X179410857Y-25516324D02*
X179483428Y-25588895D01*
X179483428Y-25588895D02*
X179555999Y-25734038D01*
X179555999Y-25734038D02*
X179555999Y-26096895D01*
X179555999Y-26096895D02*
X179483428Y-26242038D01*
X179483428Y-26242038D02*
X179410857Y-26314610D01*
X179410857Y-26314610D02*
X179265714Y-26387181D01*
X179265714Y-26387181D02*
X178830285Y-26387181D01*
X178830285Y-26387181D02*
X178685142Y-26314610D01*
X178685142Y-26314610D02*
X178612571Y-26242038D01*
X165985141Y-37998610D02*
X166202856Y-38071181D01*
X166202856Y-38071181D02*
X166565713Y-38071181D01*
X166565713Y-38071181D02*
X166710856Y-37998610D01*
X166710856Y-37998610D02*
X166783427Y-37926038D01*
X166783427Y-37926038D02*
X166855998Y-37780895D01*
X166855998Y-37780895D02*
X166855998Y-37635752D01*
X166855998Y-37635752D02*
X166783427Y-37490610D01*
X166783427Y-37490610D02*
X166710856Y-37418038D01*
X166710856Y-37418038D02*
X166565713Y-37345467D01*
X166565713Y-37345467D02*
X166275427Y-37272895D01*
X166275427Y-37272895D02*
X166130284Y-37200324D01*
X166130284Y-37200324D02*
X166057713Y-37127752D01*
X166057713Y-37127752D02*
X165985141Y-36982610D01*
X165985141Y-36982610D02*
X165985141Y-36837467D01*
X165985141Y-36837467D02*
X166057713Y-36692324D01*
X166057713Y-36692324D02*
X166130284Y-36619752D01*
X166130284Y-36619752D02*
X166275427Y-36547181D01*
X166275427Y-36547181D02*
X166638284Y-36547181D01*
X166638284Y-36547181D02*
X166855998Y-36619752D01*
X168162285Y-37998610D02*
X168017142Y-38071181D01*
X168017142Y-38071181D02*
X167726856Y-38071181D01*
X167726856Y-38071181D02*
X167581713Y-37998610D01*
X167581713Y-37998610D02*
X167509142Y-37926038D01*
X167509142Y-37926038D02*
X167436570Y-37780895D01*
X167436570Y-37780895D02*
X167436570Y-37345467D01*
X167436570Y-37345467D02*
X167509142Y-37200324D01*
X167509142Y-37200324D02*
X167581713Y-37127752D01*
X167581713Y-37127752D02*
X167726856Y-37055181D01*
X167726856Y-37055181D02*
X168017142Y-37055181D01*
X168017142Y-37055181D02*
X168162285Y-37127752D01*
X168815428Y-38071181D02*
X168815428Y-37055181D01*
X168815428Y-37345467D02*
X168887999Y-37200324D01*
X168887999Y-37200324D02*
X168960571Y-37127752D01*
X168960571Y-37127752D02*
X169105713Y-37055181D01*
X169105713Y-37055181D02*
X169250856Y-37055181D01*
X170339428Y-37998610D02*
X170194285Y-38071181D01*
X170194285Y-38071181D02*
X169904000Y-38071181D01*
X169904000Y-38071181D02*
X169758857Y-37998610D01*
X169758857Y-37998610D02*
X169686285Y-37853467D01*
X169686285Y-37853467D02*
X169686285Y-37272895D01*
X169686285Y-37272895D02*
X169758857Y-37127752D01*
X169758857Y-37127752D02*
X169904000Y-37055181D01*
X169904000Y-37055181D02*
X170194285Y-37055181D01*
X170194285Y-37055181D02*
X170339428Y-37127752D01*
X170339428Y-37127752D02*
X170412000Y-37272895D01*
X170412000Y-37272895D02*
X170412000Y-37418038D01*
X170412000Y-37418038D02*
X169686285Y-37563181D01*
X170920000Y-37055181D02*
X171210286Y-38071181D01*
X171210286Y-38071181D02*
X171500571Y-37345467D01*
X171500571Y-37345467D02*
X171790857Y-38071181D01*
X171790857Y-38071181D02*
X172081143Y-37055181D01*
X172298857Y-38216324D02*
X173459999Y-38216324D01*
X173605142Y-36547181D02*
X174476000Y-36547181D01*
X174040571Y-38071181D02*
X174040571Y-36547181D01*
X175564571Y-37998610D02*
X175419428Y-38071181D01*
X175419428Y-38071181D02*
X175129143Y-38071181D01*
X175129143Y-38071181D02*
X174984000Y-37998610D01*
X174984000Y-37998610D02*
X174911428Y-37853467D01*
X174911428Y-37853467D02*
X174911428Y-37272895D01*
X174911428Y-37272895D02*
X174984000Y-37127752D01*
X174984000Y-37127752D02*
X175129143Y-37055181D01*
X175129143Y-37055181D02*
X175419428Y-37055181D01*
X175419428Y-37055181D02*
X175564571Y-37127752D01*
X175564571Y-37127752D02*
X175637143Y-37272895D01*
X175637143Y-37272895D02*
X175637143Y-37418038D01*
X175637143Y-37418038D02*
X174911428Y-37563181D01*
X176290286Y-38071181D02*
X176290286Y-37055181D01*
X176290286Y-37345467D02*
X176362857Y-37200324D01*
X176362857Y-37200324D02*
X176435429Y-37127752D01*
X176435429Y-37127752D02*
X176580571Y-37055181D01*
X176580571Y-37055181D02*
X176725714Y-37055181D01*
X177233715Y-38071181D02*
X177233715Y-37055181D01*
X177233715Y-37200324D02*
X177306286Y-37127752D01*
X177306286Y-37127752D02*
X177451429Y-37055181D01*
X177451429Y-37055181D02*
X177669143Y-37055181D01*
X177669143Y-37055181D02*
X177814286Y-37127752D01*
X177814286Y-37127752D02*
X177886858Y-37272895D01*
X177886858Y-37272895D02*
X177886858Y-38071181D01*
X177886858Y-37272895D02*
X177959429Y-37127752D01*
X177959429Y-37127752D02*
X178104572Y-37055181D01*
X178104572Y-37055181D02*
X178322286Y-37055181D01*
X178322286Y-37055181D02*
X178467429Y-37127752D01*
X178467429Y-37127752D02*
X178540000Y-37272895D01*
X178540000Y-37272895D02*
X178540000Y-38071181D01*
X179265715Y-38071181D02*
X179265715Y-37055181D01*
X179265715Y-36547181D02*
X179193143Y-36619752D01*
X179193143Y-36619752D02*
X179265715Y-36692324D01*
X179265715Y-36692324D02*
X179338286Y-36619752D01*
X179338286Y-36619752D02*
X179265715Y-36547181D01*
X179265715Y-36547181D02*
X179265715Y-36692324D01*
X179991429Y-37055181D02*
X179991429Y-38071181D01*
X179991429Y-37200324D02*
X180064000Y-37127752D01*
X180064000Y-37127752D02*
X180209143Y-37055181D01*
X180209143Y-37055181D02*
X180426857Y-37055181D01*
X180426857Y-37055181D02*
X180572000Y-37127752D01*
X180572000Y-37127752D02*
X180644572Y-37272895D01*
X180644572Y-37272895D02*
X180644572Y-38071181D01*
X182023429Y-38071181D02*
X182023429Y-37272895D01*
X182023429Y-37272895D02*
X181950857Y-37127752D01*
X181950857Y-37127752D02*
X181805714Y-37055181D01*
X181805714Y-37055181D02*
X181515429Y-37055181D01*
X181515429Y-37055181D02*
X181370286Y-37127752D01*
X182023429Y-37998610D02*
X181878286Y-38071181D01*
X181878286Y-38071181D02*
X181515429Y-38071181D01*
X181515429Y-38071181D02*
X181370286Y-37998610D01*
X181370286Y-37998610D02*
X181297714Y-37853467D01*
X181297714Y-37853467D02*
X181297714Y-37708324D01*
X181297714Y-37708324D02*
X181370286Y-37563181D01*
X181370286Y-37563181D02*
X181515429Y-37490610D01*
X181515429Y-37490610D02*
X181878286Y-37490610D01*
X181878286Y-37490610D02*
X182023429Y-37418038D01*
X182966857Y-38071181D02*
X182821714Y-37998610D01*
X182821714Y-37998610D02*
X182749143Y-37853467D01*
X182749143Y-37853467D02*
X182749143Y-36547181D01*
X183184572Y-38216324D02*
X184345714Y-38216324D01*
X184998857Y-36547181D02*
X185144000Y-36547181D01*
X185144000Y-36547181D02*
X185289143Y-36619752D01*
X185289143Y-36619752D02*
X185361715Y-36692324D01*
X185361715Y-36692324D02*
X185434286Y-36837467D01*
X185434286Y-36837467D02*
X185506857Y-37127752D01*
X185506857Y-37127752D02*
X185506857Y-37490610D01*
X185506857Y-37490610D02*
X185434286Y-37780895D01*
X185434286Y-37780895D02*
X185361715Y-37926038D01*
X185361715Y-37926038D02*
X185289143Y-37998610D01*
X185289143Y-37998610D02*
X185144000Y-38071181D01*
X185144000Y-38071181D02*
X184998857Y-38071181D01*
X184998857Y-38071181D02*
X184853715Y-37998610D01*
X184853715Y-37998610D02*
X184781143Y-37926038D01*
X184781143Y-37926038D02*
X184708572Y-37780895D01*
X184708572Y-37780895D02*
X184636000Y-37490610D01*
X184636000Y-37490610D02*
X184636000Y-37127752D01*
X184636000Y-37127752D02*
X184708572Y-36837467D01*
X184708572Y-36837467D02*
X184781143Y-36692324D01*
X184781143Y-36692324D02*
X184853715Y-36619752D01*
X184853715Y-36619752D02*
X184998857Y-36547181D01*
X186958286Y-38071181D02*
X186087429Y-38071181D01*
X186522858Y-38071181D02*
X186522858Y-36547181D01*
X186522858Y-36547181D02*
X186377715Y-36764895D01*
X186377715Y-36764895D02*
X186232572Y-36910038D01*
X186232572Y-36910038D02*
X186087429Y-36982610D01*
X187466287Y-38071181D02*
X188264573Y-37055181D01*
X187466287Y-37055181D02*
X188264573Y-38071181D01*
X189135429Y-36547181D02*
X189280572Y-36547181D01*
X189280572Y-36547181D02*
X189425715Y-36619752D01*
X189425715Y-36619752D02*
X189498287Y-36692324D01*
X189498287Y-36692324D02*
X189570858Y-36837467D01*
X189570858Y-36837467D02*
X189643429Y-37127752D01*
X189643429Y-37127752D02*
X189643429Y-37490610D01*
X189643429Y-37490610D02*
X189570858Y-37780895D01*
X189570858Y-37780895D02*
X189498287Y-37926038D01*
X189498287Y-37926038D02*
X189425715Y-37998610D01*
X189425715Y-37998610D02*
X189280572Y-38071181D01*
X189280572Y-38071181D02*
X189135429Y-38071181D01*
X189135429Y-38071181D02*
X188990287Y-37998610D01*
X188990287Y-37998610D02*
X188917715Y-37926038D01*
X188917715Y-37926038D02*
X188845144Y-37780895D01*
X188845144Y-37780895D02*
X188772572Y-37490610D01*
X188772572Y-37490610D02*
X188772572Y-37127752D01*
X188772572Y-37127752D02*
X188845144Y-36837467D01*
X188845144Y-36837467D02*
X188917715Y-36692324D01*
X188917715Y-36692324D02*
X188990287Y-36619752D01*
X188990287Y-36619752D02*
X189135429Y-36547181D01*
X190151430Y-36547181D02*
X191094858Y-36547181D01*
X191094858Y-36547181D02*
X190586858Y-37127752D01*
X190586858Y-37127752D02*
X190804573Y-37127752D01*
X190804573Y-37127752D02*
X190949716Y-37200324D01*
X190949716Y-37200324D02*
X191022287Y-37272895D01*
X191022287Y-37272895D02*
X191094858Y-37418038D01*
X191094858Y-37418038D02*
X191094858Y-37780895D01*
X191094858Y-37780895D02*
X191022287Y-37926038D01*
X191022287Y-37926038D02*
X190949716Y-37998610D01*
X190949716Y-37998610D02*
X190804573Y-38071181D01*
X190804573Y-38071181D02*
X190369144Y-38071181D01*
X190369144Y-38071181D02*
X190224001Y-37998610D01*
X190224001Y-37998610D02*
X190151430Y-37926038D01*
X36686285Y-143823181D02*
X36686285Y-144911752D01*
X36686285Y-144911752D02*
X36613714Y-145129467D01*
X36613714Y-145129467D02*
X36468571Y-145274610D01*
X36468571Y-145274610D02*
X36250857Y-145347181D01*
X36250857Y-145347181D02*
X36105714Y-145347181D01*
X37339428Y-143968324D02*
X37412000Y-143895752D01*
X37412000Y-143895752D02*
X37557143Y-143823181D01*
X37557143Y-143823181D02*
X37920000Y-143823181D01*
X37920000Y-143823181D02*
X38065143Y-143895752D01*
X38065143Y-143895752D02*
X38137714Y-143968324D01*
X38137714Y-143968324D02*
X38210285Y-144113467D01*
X38210285Y-144113467D02*
X38210285Y-144258610D01*
X38210285Y-144258610D02*
X38137714Y-144476324D01*
X38137714Y-144476324D02*
X37266857Y-145347181D01*
X37266857Y-145347181D02*
X38210285Y-145347181D01*
X38718286Y-143823181D02*
X39661714Y-143823181D01*
X39661714Y-143823181D02*
X39153714Y-144403752D01*
X39153714Y-144403752D02*
X39371429Y-144403752D01*
X39371429Y-144403752D02*
X39516572Y-144476324D01*
X39516572Y-144476324D02*
X39589143Y-144548895D01*
X39589143Y-144548895D02*
X39661714Y-144694038D01*
X39661714Y-144694038D02*
X39661714Y-145056895D01*
X39661714Y-145056895D02*
X39589143Y-145202038D01*
X39589143Y-145202038D02*
X39516572Y-145274610D01*
X39516572Y-145274610D02*
X39371429Y-145347181D01*
X39371429Y-145347181D02*
X38936000Y-145347181D01*
X38936000Y-145347181D02*
X38790857Y-145274610D01*
X38790857Y-145274610D02*
X38718286Y-145202038D01*
X35597714Y-157031181D02*
X35089714Y-156305467D01*
X34726857Y-157031181D02*
X34726857Y-155507181D01*
X34726857Y-155507181D02*
X35307428Y-155507181D01*
X35307428Y-155507181D02*
X35452571Y-155579752D01*
X35452571Y-155579752D02*
X35525142Y-155652324D01*
X35525142Y-155652324D02*
X35597714Y-155797467D01*
X35597714Y-155797467D02*
X35597714Y-156015181D01*
X35597714Y-156015181D02*
X35525142Y-156160324D01*
X35525142Y-156160324D02*
X35452571Y-156232895D01*
X35452571Y-156232895D02*
X35307428Y-156305467D01*
X35307428Y-156305467D02*
X34726857Y-156305467D01*
X36033142Y-155507181D02*
X36904000Y-155507181D01*
X36468571Y-157031181D02*
X36468571Y-155507181D01*
X37412000Y-157031181D02*
X37412000Y-155507181D01*
X37412000Y-155507181D02*
X37774857Y-155507181D01*
X37774857Y-155507181D02*
X37992571Y-155579752D01*
X37992571Y-155579752D02*
X38137714Y-155724895D01*
X38137714Y-155724895D02*
X38210285Y-155870038D01*
X38210285Y-155870038D02*
X38282857Y-156160324D01*
X38282857Y-156160324D02*
X38282857Y-156378038D01*
X38282857Y-156378038D02*
X38210285Y-156668324D01*
X38210285Y-156668324D02*
X38137714Y-156813467D01*
X38137714Y-156813467D02*
X37992571Y-156958610D01*
X37992571Y-156958610D02*
X37774857Y-157031181D01*
X37774857Y-157031181D02*
X37412000Y-157031181D01*
X39734285Y-157031181D02*
X38863428Y-157031181D01*
X39298857Y-157031181D02*
X39298857Y-155507181D01*
X39298857Y-155507181D02*
X39153714Y-155724895D01*
X39153714Y-155724895D02*
X39008571Y-155870038D01*
X39008571Y-155870038D02*
X38863428Y-155942610D01*
X41040572Y-155507181D02*
X40750286Y-155507181D01*
X40750286Y-155507181D02*
X40605143Y-155579752D01*
X40605143Y-155579752D02*
X40532572Y-155652324D01*
X40532572Y-155652324D02*
X40387429Y-155870038D01*
X40387429Y-155870038D02*
X40314857Y-156160324D01*
X40314857Y-156160324D02*
X40314857Y-156740895D01*
X40314857Y-156740895D02*
X40387429Y-156886038D01*
X40387429Y-156886038D02*
X40460000Y-156958610D01*
X40460000Y-156958610D02*
X40605143Y-157031181D01*
X40605143Y-157031181D02*
X40895429Y-157031181D01*
X40895429Y-157031181D02*
X41040572Y-156958610D01*
X41040572Y-156958610D02*
X41113143Y-156886038D01*
X41113143Y-156886038D02*
X41185714Y-156740895D01*
X41185714Y-156740895D02*
X41185714Y-156378038D01*
X41185714Y-156378038D02*
X41113143Y-156232895D01*
X41113143Y-156232895D02*
X41040572Y-156160324D01*
X41040572Y-156160324D02*
X40895429Y-156087752D01*
X40895429Y-156087752D02*
X40605143Y-156087752D01*
X40605143Y-156087752D02*
X40460000Y-156160324D01*
X40460000Y-156160324D02*
X40387429Y-156232895D01*
X40387429Y-156232895D02*
X40314857Y-156378038D01*
D10*
X258083333Y-48059580D02*
X258035714Y-48107200D01*
X258035714Y-48107200D02*
X257892857Y-48154819D01*
X257892857Y-48154819D02*
X257797619Y-48154819D01*
X257797619Y-48154819D02*
X257654762Y-48107200D01*
X257654762Y-48107200D02*
X257559524Y-48011961D01*
X257559524Y-48011961D02*
X257511905Y-47916723D01*
X257511905Y-47916723D02*
X257464286Y-47726247D01*
X257464286Y-47726247D02*
X257464286Y-47583390D01*
X257464286Y-47583390D02*
X257511905Y-47392914D01*
X257511905Y-47392914D02*
X257559524Y-47297676D01*
X257559524Y-47297676D02*
X257654762Y-47202438D01*
X257654762Y-47202438D02*
X257797619Y-47154819D01*
X257797619Y-47154819D02*
X257892857Y-47154819D01*
X257892857Y-47154819D02*
X258035714Y-47202438D01*
X258035714Y-47202438D02*
X258083333Y-47250057D01*
X258464286Y-47250057D02*
X258511905Y-47202438D01*
X258511905Y-47202438D02*
X258607143Y-47154819D01*
X258607143Y-47154819D02*
X258845238Y-47154819D01*
X258845238Y-47154819D02*
X258940476Y-47202438D01*
X258940476Y-47202438D02*
X258988095Y-47250057D01*
X258988095Y-47250057D02*
X259035714Y-47345295D01*
X259035714Y-47345295D02*
X259035714Y-47440533D01*
X259035714Y-47440533D02*
X258988095Y-47583390D01*
X258988095Y-47583390D02*
X258416667Y-48154819D01*
X258416667Y-48154819D02*
X259035714Y-48154819D01*
X230583333Y-80559580D02*
X230535714Y-80607200D01*
X230535714Y-80607200D02*
X230392857Y-80654819D01*
X230392857Y-80654819D02*
X230297619Y-80654819D01*
X230297619Y-80654819D02*
X230154762Y-80607200D01*
X230154762Y-80607200D02*
X230059524Y-80511961D01*
X230059524Y-80511961D02*
X230011905Y-80416723D01*
X230011905Y-80416723D02*
X229964286Y-80226247D01*
X229964286Y-80226247D02*
X229964286Y-80083390D01*
X229964286Y-80083390D02*
X230011905Y-79892914D01*
X230011905Y-79892914D02*
X230059524Y-79797676D01*
X230059524Y-79797676D02*
X230154762Y-79702438D01*
X230154762Y-79702438D02*
X230297619Y-79654819D01*
X230297619Y-79654819D02*
X230392857Y-79654819D01*
X230392857Y-79654819D02*
X230535714Y-79702438D01*
X230535714Y-79702438D02*
X230583333Y-79750057D01*
X231535714Y-80654819D02*
X230964286Y-80654819D01*
X231250000Y-80654819D02*
X231250000Y-79654819D01*
X231250000Y-79654819D02*
X231154762Y-79797676D01*
X231154762Y-79797676D02*
X231059524Y-79892914D01*
X231059524Y-79892914D02*
X230964286Y-79940533D01*
X246574819Y-73166904D02*
X247384342Y-73166904D01*
X247384342Y-73166904D02*
X247479580Y-73119285D01*
X247479580Y-73119285D02*
X247527200Y-73071666D01*
X247527200Y-73071666D02*
X247574819Y-72976428D01*
X247574819Y-72976428D02*
X247574819Y-72785952D01*
X247574819Y-72785952D02*
X247527200Y-72690714D01*
X247527200Y-72690714D02*
X247479580Y-72643095D01*
X247479580Y-72643095D02*
X247384342Y-72595476D01*
X247384342Y-72595476D02*
X246574819Y-72595476D01*
X246574819Y-72214523D02*
X246574819Y-71547857D01*
X246574819Y-71547857D02*
X247574819Y-71976428D01*
X266439819Y-103586904D02*
X267249342Y-103586904D01*
X267249342Y-103586904D02*
X267344580Y-103539285D01*
X267344580Y-103539285D02*
X267392200Y-103491666D01*
X267392200Y-103491666D02*
X267439819Y-103396428D01*
X267439819Y-103396428D02*
X267439819Y-103205952D01*
X267439819Y-103205952D02*
X267392200Y-103110714D01*
X267392200Y-103110714D02*
X267344580Y-103063095D01*
X267344580Y-103063095D02*
X267249342Y-103015476D01*
X267249342Y-103015476D02*
X266439819Y-103015476D01*
X267439819Y-102015476D02*
X267439819Y-102586904D01*
X267439819Y-102301190D02*
X266439819Y-102301190D01*
X266439819Y-102301190D02*
X266582676Y-102396428D01*
X266582676Y-102396428D02*
X266677914Y-102491666D01*
X266677914Y-102491666D02*
X266725533Y-102586904D01*
X245858095Y-46344819D02*
X245858095Y-47154342D01*
X245858095Y-47154342D02*
X245905714Y-47249580D01*
X245905714Y-47249580D02*
X245953333Y-47297200D01*
X245953333Y-47297200D02*
X246048571Y-47344819D01*
X246048571Y-47344819D02*
X246239047Y-47344819D01*
X246239047Y-47344819D02*
X246334285Y-47297200D01*
X246334285Y-47297200D02*
X246381904Y-47249580D01*
X246381904Y-47249580D02*
X246429523Y-47154342D01*
X246429523Y-47154342D02*
X246429523Y-46344819D01*
X247334285Y-46344819D02*
X247143809Y-46344819D01*
X247143809Y-46344819D02*
X247048571Y-46392438D01*
X247048571Y-46392438D02*
X247000952Y-46440057D01*
X247000952Y-46440057D02*
X246905714Y-46582914D01*
X246905714Y-46582914D02*
X246858095Y-46773390D01*
X246858095Y-46773390D02*
X246858095Y-47154342D01*
X246858095Y-47154342D02*
X246905714Y-47249580D01*
X246905714Y-47249580D02*
X246953333Y-47297200D01*
X246953333Y-47297200D02*
X247048571Y-47344819D01*
X247048571Y-47344819D02*
X247239047Y-47344819D01*
X247239047Y-47344819D02*
X247334285Y-47297200D01*
X247334285Y-47297200D02*
X247381904Y-47249580D01*
X247381904Y-47249580D02*
X247429523Y-47154342D01*
X247429523Y-47154342D02*
X247429523Y-46916247D01*
X247429523Y-46916247D02*
X247381904Y-46821009D01*
X247381904Y-46821009D02*
X247334285Y-46773390D01*
X247334285Y-46773390D02*
X247239047Y-46725771D01*
X247239047Y-46725771D02*
X247048571Y-46725771D01*
X247048571Y-46725771D02*
X246953333Y-46773390D01*
X246953333Y-46773390D02*
X246905714Y-46821009D01*
X246905714Y-46821009D02*
X246858095Y-46916247D01*
X203713333Y-93584819D02*
X203237143Y-93584819D01*
X203237143Y-93584819D02*
X203237143Y-92584819D01*
X203951429Y-92584819D02*
X204570476Y-92584819D01*
X204570476Y-92584819D02*
X204237143Y-92965771D01*
X204237143Y-92965771D02*
X204380000Y-92965771D01*
X204380000Y-92965771D02*
X204475238Y-93013390D01*
X204475238Y-93013390D02*
X204522857Y-93061009D01*
X204522857Y-93061009D02*
X204570476Y-93156247D01*
X204570476Y-93156247D02*
X204570476Y-93394342D01*
X204570476Y-93394342D02*
X204522857Y-93489580D01*
X204522857Y-93489580D02*
X204475238Y-93537200D01*
X204475238Y-93537200D02*
X204380000Y-93584819D01*
X204380000Y-93584819D02*
X204094286Y-93584819D01*
X204094286Y-93584819D02*
X203999048Y-93537200D01*
X203999048Y-93537200D02*
X203951429Y-93489580D01*
X62690476Y-167714819D02*
X62690476Y-168429104D01*
X62690476Y-168429104D02*
X62642857Y-168571961D01*
X62642857Y-168571961D02*
X62547619Y-168667200D01*
X62547619Y-168667200D02*
X62404762Y-168714819D01*
X62404762Y-168714819D02*
X62309524Y-168714819D01*
X63119048Y-167810057D02*
X63166667Y-167762438D01*
X63166667Y-167762438D02*
X63261905Y-167714819D01*
X63261905Y-167714819D02*
X63500000Y-167714819D01*
X63500000Y-167714819D02*
X63595238Y-167762438D01*
X63595238Y-167762438D02*
X63642857Y-167810057D01*
X63642857Y-167810057D02*
X63690476Y-167905295D01*
X63690476Y-167905295D02*
X63690476Y-168000533D01*
X63690476Y-168000533D02*
X63642857Y-168143390D01*
X63642857Y-168143390D02*
X63071429Y-168714819D01*
X63071429Y-168714819D02*
X63690476Y-168714819D01*
X64547619Y-168048152D02*
X64547619Y-168714819D01*
X64309524Y-167667200D02*
X64071429Y-168381485D01*
X64071429Y-168381485D02*
X64690476Y-168381485D01*
X199263095Y-59189819D02*
X199263095Y-59999342D01*
X199263095Y-59999342D02*
X199310714Y-60094580D01*
X199310714Y-60094580D02*
X199358333Y-60142200D01*
X199358333Y-60142200D02*
X199453571Y-60189819D01*
X199453571Y-60189819D02*
X199644047Y-60189819D01*
X199644047Y-60189819D02*
X199739285Y-60142200D01*
X199739285Y-60142200D02*
X199786904Y-60094580D01*
X199786904Y-60094580D02*
X199834523Y-59999342D01*
X199834523Y-59999342D02*
X199834523Y-59189819D01*
X200739285Y-59523152D02*
X200739285Y-60189819D01*
X200501190Y-59142200D02*
X200263095Y-59856485D01*
X200263095Y-59856485D02*
X200882142Y-59856485D01*
X241136667Y-84747200D02*
X241279524Y-84794819D01*
X241279524Y-84794819D02*
X241517619Y-84794819D01*
X241517619Y-84794819D02*
X241612857Y-84747200D01*
X241612857Y-84747200D02*
X241660476Y-84699580D01*
X241660476Y-84699580D02*
X241708095Y-84604342D01*
X241708095Y-84604342D02*
X241708095Y-84509104D01*
X241708095Y-84509104D02*
X241660476Y-84413866D01*
X241660476Y-84413866D02*
X241612857Y-84366247D01*
X241612857Y-84366247D02*
X241517619Y-84318628D01*
X241517619Y-84318628D02*
X241327143Y-84271009D01*
X241327143Y-84271009D02*
X241231905Y-84223390D01*
X241231905Y-84223390D02*
X241184286Y-84175771D01*
X241184286Y-84175771D02*
X241136667Y-84080533D01*
X241136667Y-84080533D02*
X241136667Y-83985295D01*
X241136667Y-83985295D02*
X241184286Y-83890057D01*
X241184286Y-83890057D02*
X241231905Y-83842438D01*
X241231905Y-83842438D02*
X241327143Y-83794819D01*
X241327143Y-83794819D02*
X241565238Y-83794819D01*
X241565238Y-83794819D02*
X241708095Y-83842438D01*
X242041429Y-83794819D02*
X242279524Y-84794819D01*
X242279524Y-84794819D02*
X242470000Y-84080533D01*
X242470000Y-84080533D02*
X242660476Y-84794819D01*
X242660476Y-84794819D02*
X242898572Y-83794819D01*
X243803333Y-84794819D02*
X243231905Y-84794819D01*
X243517619Y-84794819D02*
X243517619Y-83794819D01*
X243517619Y-83794819D02*
X243422381Y-83937676D01*
X243422381Y-83937676D02*
X243327143Y-84032914D01*
X243327143Y-84032914D02*
X243231905Y-84080533D01*
X206227142Y-69599580D02*
X206179523Y-69647200D01*
X206179523Y-69647200D02*
X206036666Y-69694819D01*
X206036666Y-69694819D02*
X205941428Y-69694819D01*
X205941428Y-69694819D02*
X205798571Y-69647200D01*
X205798571Y-69647200D02*
X205703333Y-69551961D01*
X205703333Y-69551961D02*
X205655714Y-69456723D01*
X205655714Y-69456723D02*
X205608095Y-69266247D01*
X205608095Y-69266247D02*
X205608095Y-69123390D01*
X205608095Y-69123390D02*
X205655714Y-68932914D01*
X205655714Y-68932914D02*
X205703333Y-68837676D01*
X205703333Y-68837676D02*
X205798571Y-68742438D01*
X205798571Y-68742438D02*
X205941428Y-68694819D01*
X205941428Y-68694819D02*
X206036666Y-68694819D01*
X206036666Y-68694819D02*
X206179523Y-68742438D01*
X206179523Y-68742438D02*
X206227142Y-68790057D01*
X207179523Y-69694819D02*
X206608095Y-69694819D01*
X206893809Y-69694819D02*
X206893809Y-68694819D01*
X206893809Y-68694819D02*
X206798571Y-68837676D01*
X206798571Y-68837676D02*
X206703333Y-68932914D01*
X206703333Y-68932914D02*
X206608095Y-68980533D01*
X207798571Y-68694819D02*
X207893809Y-68694819D01*
X207893809Y-68694819D02*
X207989047Y-68742438D01*
X207989047Y-68742438D02*
X208036666Y-68790057D01*
X208036666Y-68790057D02*
X208084285Y-68885295D01*
X208084285Y-68885295D02*
X208131904Y-69075771D01*
X208131904Y-69075771D02*
X208131904Y-69313866D01*
X208131904Y-69313866D02*
X208084285Y-69504342D01*
X208084285Y-69504342D02*
X208036666Y-69599580D01*
X208036666Y-69599580D02*
X207989047Y-69647200D01*
X207989047Y-69647200D02*
X207893809Y-69694819D01*
X207893809Y-69694819D02*
X207798571Y-69694819D01*
X207798571Y-69694819D02*
X207703333Y-69647200D01*
X207703333Y-69647200D02*
X207655714Y-69599580D01*
X207655714Y-69599580D02*
X207608095Y-69504342D01*
X207608095Y-69504342D02*
X207560476Y-69313866D01*
X207560476Y-69313866D02*
X207560476Y-69075771D01*
X207560476Y-69075771D02*
X207608095Y-68885295D01*
X207608095Y-68885295D02*
X207655714Y-68790057D01*
X207655714Y-68790057D02*
X207703333Y-68742438D01*
X207703333Y-68742438D02*
X207798571Y-68694819D01*
X203310476Y-39405150D02*
X203310476Y-40119435D01*
X203310476Y-40119435D02*
X203262857Y-40262292D01*
X203262857Y-40262292D02*
X203167619Y-40357531D01*
X203167619Y-40357531D02*
X203024762Y-40405150D01*
X203024762Y-40405150D02*
X202929524Y-40405150D01*
X203739048Y-39500388D02*
X203786667Y-39452769D01*
X203786667Y-39452769D02*
X203881905Y-39405150D01*
X203881905Y-39405150D02*
X204120000Y-39405150D01*
X204120000Y-39405150D02*
X204215238Y-39452769D01*
X204215238Y-39452769D02*
X204262857Y-39500388D01*
X204262857Y-39500388D02*
X204310476Y-39595626D01*
X204310476Y-39595626D02*
X204310476Y-39690864D01*
X204310476Y-39690864D02*
X204262857Y-39833721D01*
X204262857Y-39833721D02*
X203691429Y-40405150D01*
X203691429Y-40405150D02*
X204310476Y-40405150D01*
X204643810Y-39405150D02*
X205310476Y-39405150D01*
X205310476Y-39405150D02*
X204881905Y-40405150D01*
D11*
X86686285Y-84823181D02*
X86686285Y-85911752D01*
X86686285Y-85911752D02*
X86613714Y-86129467D01*
X86613714Y-86129467D02*
X86468571Y-86274610D01*
X86468571Y-86274610D02*
X86250857Y-86347181D01*
X86250857Y-86347181D02*
X86105714Y-86347181D01*
X88210285Y-86347181D02*
X87339428Y-86347181D01*
X87774857Y-86347181D02*
X87774857Y-84823181D01*
X87774857Y-84823181D02*
X87629714Y-85040895D01*
X87629714Y-85040895D02*
X87484571Y-85186038D01*
X87484571Y-85186038D02*
X87339428Y-85258610D01*
X89516572Y-84823181D02*
X89226286Y-84823181D01*
X89226286Y-84823181D02*
X89081143Y-84895752D01*
X89081143Y-84895752D02*
X89008572Y-84968324D01*
X89008572Y-84968324D02*
X88863429Y-85186038D01*
X88863429Y-85186038D02*
X88790857Y-85476324D01*
X88790857Y-85476324D02*
X88790857Y-86056895D01*
X88790857Y-86056895D02*
X88863429Y-86202038D01*
X88863429Y-86202038D02*
X88936000Y-86274610D01*
X88936000Y-86274610D02*
X89081143Y-86347181D01*
X89081143Y-86347181D02*
X89371429Y-86347181D01*
X89371429Y-86347181D02*
X89516572Y-86274610D01*
X89516572Y-86274610D02*
X89589143Y-86202038D01*
X89589143Y-86202038D02*
X89661714Y-86056895D01*
X89661714Y-86056895D02*
X89661714Y-85694038D01*
X89661714Y-85694038D02*
X89589143Y-85548895D01*
X89589143Y-85548895D02*
X89516572Y-85476324D01*
X89516572Y-85476324D02*
X89371429Y-85403752D01*
X89371429Y-85403752D02*
X89081143Y-85403752D01*
X89081143Y-85403752D02*
X88936000Y-85476324D01*
X88936000Y-85476324D02*
X88863429Y-85548895D01*
X88863429Y-85548895D02*
X88790857Y-85694038D01*
X86323428Y-98031181D02*
X85815428Y-97305467D01*
X85452571Y-98031181D02*
X85452571Y-96507181D01*
X85452571Y-96507181D02*
X86033142Y-96507181D01*
X86033142Y-96507181D02*
X86178285Y-96579752D01*
X86178285Y-96579752D02*
X86250856Y-96652324D01*
X86250856Y-96652324D02*
X86323428Y-96797467D01*
X86323428Y-96797467D02*
X86323428Y-97015181D01*
X86323428Y-97015181D02*
X86250856Y-97160324D01*
X86250856Y-97160324D02*
X86178285Y-97232895D01*
X86178285Y-97232895D02*
X86033142Y-97305467D01*
X86033142Y-97305467D02*
X85452571Y-97305467D01*
X86758856Y-96507181D02*
X87629714Y-96507181D01*
X87194285Y-98031181D02*
X87194285Y-96507181D01*
X88137714Y-98031181D02*
X88137714Y-96507181D01*
X88137714Y-96507181D02*
X88500571Y-96507181D01*
X88500571Y-96507181D02*
X88718285Y-96579752D01*
X88718285Y-96579752D02*
X88863428Y-96724895D01*
X88863428Y-96724895D02*
X88935999Y-96870038D01*
X88935999Y-96870038D02*
X89008571Y-97160324D01*
X89008571Y-97160324D02*
X89008571Y-97378038D01*
X89008571Y-97378038D02*
X88935999Y-97668324D01*
X88935999Y-97668324D02*
X88863428Y-97813467D01*
X88863428Y-97813467D02*
X88718285Y-97958610D01*
X88718285Y-97958610D02*
X88500571Y-98031181D01*
X88500571Y-98031181D02*
X88137714Y-98031181D01*
X89734285Y-98031181D02*
X90024571Y-98031181D01*
X90024571Y-98031181D02*
X90169714Y-97958610D01*
X90169714Y-97958610D02*
X90242285Y-97886038D01*
X90242285Y-97886038D02*
X90387428Y-97668324D01*
X90387428Y-97668324D02*
X90459999Y-97378038D01*
X90459999Y-97378038D02*
X90459999Y-96797467D01*
X90459999Y-96797467D02*
X90387428Y-96652324D01*
X90387428Y-96652324D02*
X90314857Y-96579752D01*
X90314857Y-96579752D02*
X90169714Y-96507181D01*
X90169714Y-96507181D02*
X89879428Y-96507181D01*
X89879428Y-96507181D02*
X89734285Y-96579752D01*
X89734285Y-96579752D02*
X89661714Y-96652324D01*
X89661714Y-96652324D02*
X89589142Y-96797467D01*
X89589142Y-96797467D02*
X89589142Y-97160324D01*
X89589142Y-97160324D02*
X89661714Y-97305467D01*
X89661714Y-97305467D02*
X89734285Y-97378038D01*
X89734285Y-97378038D02*
X89879428Y-97450610D01*
X89879428Y-97450610D02*
X90169714Y-97450610D01*
X90169714Y-97450610D02*
X90314857Y-97378038D01*
X90314857Y-97378038D02*
X90387428Y-97305467D01*
X90387428Y-97305467D02*
X90459999Y-97160324D01*
%TO.C,C3*%
D12*
X210570000Y-62670000D02*
X206930000Y-62670000D01*
X210570000Y-62370000D02*
X210570000Y-62670000D01*
X210570000Y-60330000D02*
X210570000Y-60630000D01*
X206930000Y-62670000D02*
X206930000Y-62370000D01*
X206930000Y-60630000D02*
X206930000Y-60330000D01*
X206930000Y-60330000D02*
X210570000Y-60330000D01*
%TO.C,C16*%
X178005000Y-118305000D02*
X181645000Y-118305000D01*
X178005000Y-118605000D02*
X178005000Y-118305000D01*
X178005000Y-120645000D02*
X178005000Y-120345000D01*
X181645000Y-118305000D02*
X181645000Y-118605000D01*
X181645000Y-120345000D02*
X181645000Y-120645000D01*
X181645000Y-120645000D02*
X178005000Y-120645000D01*
%TO.C,C15*%
X178005000Y-112655000D02*
X181645000Y-112655000D01*
X178005000Y-112955000D02*
X178005000Y-112655000D01*
X178005000Y-114995000D02*
X178005000Y-114695000D01*
X181645000Y-112655000D02*
X181645000Y-112955000D01*
X181645000Y-114695000D02*
X181645000Y-114995000D01*
X181645000Y-114995000D02*
X178005000Y-114995000D01*
%TO.C,C13*%
X219450000Y-114450000D02*
X223090000Y-114450000D01*
X219450000Y-114750000D02*
X219450000Y-114450000D01*
X219450000Y-116790000D02*
X219450000Y-116490000D01*
X223090000Y-114450000D02*
X223090000Y-114750000D01*
X223090000Y-116490000D02*
X223090000Y-116790000D01*
X223090000Y-116790000D02*
X219450000Y-116790000D01*
%TO.C,J20*%
D13*
X30300000Y-126928000D02*
X30300000Y-127690000D01*
X30300000Y-126928000D02*
X45540000Y-126928000D01*
X30300000Y-135056000D02*
X45540000Y-135056000D01*
X30300000Y-135310000D02*
X30300000Y-127690000D01*
X30300000Y-136072000D02*
X30300000Y-135056000D01*
X45540000Y-126928000D02*
X45540000Y-127690000D01*
X45540000Y-135056000D02*
X45540000Y-136072000D01*
X45540000Y-135310000D02*
X45540000Y-127690000D01*
X45540000Y-136072000D02*
X30300000Y-136072000D01*
%TO.C,C14*%
D12*
X255550000Y-87870000D02*
X259190000Y-87870000D01*
X255550000Y-88170000D02*
X255550000Y-87870000D01*
X255550000Y-90210000D02*
X255550000Y-89910000D01*
X259190000Y-87870000D02*
X259190000Y-88170000D01*
X259190000Y-89910000D02*
X259190000Y-90210000D01*
X259190000Y-90210000D02*
X255550000Y-90210000D01*
%TO.C,C8*%
X217980000Y-103830000D02*
X221620000Y-103830000D01*
X217980000Y-104130000D02*
X217980000Y-103830000D01*
X217980000Y-106170000D02*
X217980000Y-105870000D01*
X221620000Y-103830000D02*
X221620000Y-104130000D01*
X221620000Y-105870000D02*
X221620000Y-106170000D01*
X221620000Y-106170000D02*
X217980000Y-106170000D01*
%TO.C,D3*%
X174220000Y-85000000D02*
X175130000Y-85000000D01*
X176555000Y-82280000D02*
X176555000Y-87720000D01*
X176675000Y-82280000D02*
X176675000Y-87720000D01*
X176795000Y-82280000D02*
X176795000Y-87720000D01*
X185780000Y-85000000D02*
X184870000Y-85000000D01*
X175130000Y-82280000D02*
X184870000Y-82280000D01*
X184870000Y-87720000D01*
X175130000Y-87720000D01*
X175130000Y-82280000D01*
%TO.C,J8*%
D13*
X30300000Y-47428000D02*
X30300000Y-48190000D01*
X30300000Y-47428000D02*
X45540000Y-47428000D01*
X30300000Y-55556000D02*
X45540000Y-55556000D01*
X30300000Y-55810000D02*
X30300000Y-48190000D01*
X30300000Y-56572000D02*
X30300000Y-55556000D01*
X45540000Y-47428000D02*
X45540000Y-48190000D01*
X45540000Y-55556000D02*
X45540000Y-56572000D01*
X45540000Y-55810000D02*
X45540000Y-48190000D01*
X45540000Y-56572000D02*
X30300000Y-56572000D01*
%TO.C,J15*%
X54960000Y-86928000D02*
X54960000Y-87690000D01*
X54960000Y-86928000D02*
X70200000Y-86928000D01*
X54960000Y-95056000D02*
X70200000Y-95056000D01*
X54960000Y-95310000D02*
X54960000Y-87690000D01*
X54960000Y-96072000D02*
X54960000Y-95056000D01*
X70200000Y-86928000D02*
X70200000Y-87690000D01*
X70200000Y-95056000D02*
X70200000Y-96072000D01*
X70200000Y-95310000D02*
X70200000Y-87690000D01*
X70200000Y-96072000D02*
X54960000Y-96072000D01*
%TO.C,J11*%
X29800000Y-66928000D02*
X29800000Y-67690000D01*
X29800000Y-66928000D02*
X45040000Y-66928000D01*
X29800000Y-75056000D02*
X45040000Y-75056000D01*
X29800000Y-75310000D02*
X29800000Y-67690000D01*
X29800000Y-76072000D02*
X29800000Y-75056000D01*
X45040000Y-66928000D02*
X45040000Y-67690000D01*
X45040000Y-75056000D02*
X45040000Y-76072000D01*
X45040000Y-75310000D02*
X45040000Y-67690000D01*
X45040000Y-76072000D02*
X29800000Y-76072000D01*
%TO.C,J7*%
D12*
X196010000Y-145209669D02*
X198020000Y-145209669D01*
X196010000Y-149309669D02*
X196010000Y-145209669D01*
X198020000Y-136369669D02*
X211220000Y-136369669D01*
X198020000Y-145209669D02*
X198020000Y-136369669D01*
X209910000Y-135675331D02*
X210410000Y-135675331D01*
X210160000Y-136108344D02*
X209910000Y-135675331D01*
X210410000Y-135675331D02*
X210160000Y-136108344D01*
X211220000Y-136369669D02*
X211220000Y-145209669D01*
X211220000Y-145209669D02*
X213230000Y-145209669D01*
X213230000Y-145209669D02*
X213230000Y-149309669D01*
%TO.C,J26*%
X228510000Y-145280000D02*
X230440000Y-145280000D01*
X228510000Y-149380000D02*
X228510000Y-145280000D01*
X230440000Y-136440000D02*
X265800000Y-136440000D01*
X230440000Y-145280000D02*
X230440000Y-136440000D01*
X264490000Y-135745662D02*
X264990000Y-135745662D01*
X264740000Y-136178675D02*
X264490000Y-135745662D01*
X264990000Y-135745662D02*
X264740000Y-136178675D01*
X265800000Y-136440000D02*
X265800000Y-145280000D01*
X265800000Y-145280000D02*
X267730000Y-145280000D01*
X267730000Y-145280000D02*
X267730000Y-149380000D01*
%TO.C,J17*%
D13*
X29800000Y-106428000D02*
X29800000Y-107190000D01*
X29800000Y-106428000D02*
X45040000Y-106428000D01*
X29800000Y-114556000D02*
X45040000Y-114556000D01*
X29800000Y-114810000D02*
X29800000Y-107190000D01*
X29800000Y-115572000D02*
X29800000Y-114556000D01*
X45040000Y-106428000D02*
X45040000Y-107190000D01*
X45040000Y-114556000D02*
X45040000Y-115572000D01*
X45040000Y-114810000D02*
X45040000Y-107190000D01*
X45040000Y-115572000D02*
X29800000Y-115572000D01*
%TO.C,U2*%
D12*
X198490000Y-45480000D02*
X202610000Y-45480000D01*
X198490000Y-45575000D02*
X198490000Y-45480000D01*
X198490000Y-50600000D02*
X198490000Y-50505000D01*
X202610000Y-45480000D02*
X202610000Y-45575000D01*
X202610000Y-50505000D02*
X202610000Y-50600000D01*
X202610000Y-50600000D02*
X198490000Y-50600000D01*
X197950000Y-45570000D02*
X197710000Y-45240000D01*
X198190000Y-45240000D01*
X197950000Y-45570000D01*
G36*
X197950000Y-45570000D02*
G01*
X197710000Y-45240000D01*
X198190000Y-45240000D01*
X197950000Y-45570000D01*
G37*
%TO.C,J19*%
D13*
X80380000Y-106428000D02*
X80380000Y-107190000D01*
X80380000Y-106428000D02*
X95620000Y-106428000D01*
X80380000Y-114556000D02*
X95620000Y-114556000D01*
X80380000Y-114810000D02*
X80380000Y-107190000D01*
X80380000Y-115572000D02*
X80380000Y-114556000D01*
X95620000Y-106428000D02*
X95620000Y-107190000D01*
X95620000Y-114556000D02*
X95620000Y-115572000D01*
X95620000Y-114810000D02*
X95620000Y-107190000D01*
X95620000Y-115572000D02*
X80380000Y-115572000D01*
%TO.C,J21*%
X54880000Y-126928000D02*
X54880000Y-127690000D01*
X54880000Y-126928000D02*
X70120000Y-126928000D01*
X54880000Y-135056000D02*
X70120000Y-135056000D01*
X54880000Y-135310000D02*
X54880000Y-127690000D01*
X54880000Y-136072000D02*
X54880000Y-135056000D01*
X70120000Y-126928000D02*
X70120000Y-127690000D01*
X70120000Y-135056000D02*
X70120000Y-136072000D01*
X70120000Y-135310000D02*
X70120000Y-127690000D01*
X70120000Y-136072000D02*
X54880000Y-136072000D01*
%TO.C,J1*%
D12*
X176540000Y-147605000D02*
X176540000Y-146195000D01*
X177360000Y-143525000D02*
X177360000Y-143675000D01*
X178160000Y-143525000D02*
X177360000Y-143525000D01*
X185700000Y-147605000D02*
X185700000Y-146195000D01*
%TO.C,L2*%
X197500000Y-89000000D02*
X198260000Y-89000000D01*
X210260000Y-89000000D02*
X209500000Y-89000000D01*
X198260000Y-86630000D02*
X209500000Y-86630000D01*
X209500000Y-91370000D01*
X198260000Y-91370000D01*
X198260000Y-86630000D01*
%TO.C,J13*%
D13*
X29800000Y-86928000D02*
X29800000Y-87690000D01*
X29800000Y-86928000D02*
X45040000Y-86928000D01*
X29800000Y-95056000D02*
X45040000Y-95056000D01*
X29800000Y-95310000D02*
X29800000Y-87690000D01*
X29800000Y-96072000D02*
X29800000Y-95056000D01*
X45040000Y-86928000D02*
X45040000Y-87690000D01*
X45040000Y-95056000D02*
X45040000Y-96072000D01*
X45040000Y-95310000D02*
X45040000Y-87690000D01*
X45040000Y-96072000D02*
X29800000Y-96072000D01*
%TO.C,C7*%
D12*
X167302918Y-58425000D02*
X168552918Y-58425000D01*
X167927918Y-57800000D02*
X167927918Y-59050000D01*
X174120000Y-55670000D02*
X174120000Y-68330000D01*
X174160000Y-55670000D02*
X174160000Y-68330000D01*
X174200000Y-55671000D02*
X174200000Y-68329000D01*
X174240000Y-55671000D02*
X174240000Y-68329000D01*
X174280000Y-55672000D02*
X174280000Y-68328000D01*
X174320000Y-55673000D02*
X174320000Y-68327000D01*
X174360000Y-55675000D02*
X174360000Y-68325000D01*
X174400000Y-55676000D02*
X174400000Y-68324000D01*
X174440000Y-55678000D02*
X174440000Y-68322000D01*
X174480000Y-55680000D02*
X174480000Y-68320000D01*
X174520000Y-55683000D02*
X174520000Y-68317000D01*
X174560000Y-55685000D02*
X174560000Y-68315000D01*
X174600000Y-55688000D02*
X174600000Y-68312000D01*
X174640000Y-55691000D02*
X174640000Y-68309000D01*
X174680000Y-55695000D02*
X174680000Y-68305000D01*
X174720000Y-55698000D02*
X174720000Y-68302000D01*
X174760000Y-55702000D02*
X174760000Y-68298000D01*
X174800000Y-55706000D02*
X174800000Y-68294000D01*
X174840000Y-55711000D02*
X174840000Y-68289000D01*
X174880000Y-55716000D02*
X174880000Y-68284000D01*
X174920000Y-55720000D02*
X174920000Y-68280000D01*
X174960000Y-55726000D02*
X174960000Y-68274000D01*
X175000000Y-55731000D02*
X175000000Y-68269000D01*
X175040000Y-55737000D02*
X175040000Y-68263000D01*
X175080000Y-55743000D02*
X175080000Y-68257000D01*
X175120000Y-55749000D02*
X175120000Y-68251000D01*
X175160000Y-55755000D02*
X175160000Y-68245000D01*
X175200000Y-55762000D02*
X175200000Y-60560000D01*
X175200000Y-63440000D02*
X175200000Y-68238000D01*
X175240000Y-55769000D02*
X175240000Y-60560000D01*
X175240000Y-63440000D02*
X175240000Y-68231000D01*
X175280000Y-55777000D02*
X175280000Y-60560000D01*
X175280000Y-63440000D02*
X175280000Y-68223000D01*
X175320000Y-55784000D02*
X175320000Y-60560000D01*
X175320000Y-63440000D02*
X175320000Y-68216000D01*
X175360000Y-55792000D02*
X175360000Y-60560000D01*
X175360000Y-63440000D02*
X175360000Y-68208000D01*
X175400000Y-55800000D02*
X175400000Y-60560000D01*
X175400000Y-63440000D02*
X175400000Y-68200000D01*
X175440000Y-55808000D02*
X175440000Y-60560000D01*
X175440000Y-63440000D02*
X175440000Y-68192000D01*
X175480000Y-55817000D02*
X175480000Y-60560000D01*
X175480000Y-63440000D02*
X175480000Y-68183000D01*
X175520000Y-55826000D02*
X175520000Y-60560000D01*
X175520000Y-63440000D02*
X175520000Y-68174000D01*
X175560000Y-55835000D02*
X175560000Y-60560000D01*
X175560000Y-63440000D02*
X175560000Y-68165000D01*
X175600000Y-55844000D02*
X175600000Y-60560000D01*
X175600000Y-63440000D02*
X175600000Y-68156000D01*
X175640000Y-55854000D02*
X175640000Y-60560000D01*
X175640000Y-63440000D02*
X175640000Y-68146000D01*
X175680000Y-55864000D02*
X175680000Y-60560000D01*
X175680000Y-63440000D02*
X175680000Y-68136000D01*
X175720000Y-55874000D02*
X175720000Y-60560000D01*
X175720000Y-63440000D02*
X175720000Y-68126000D01*
X175760000Y-55885000D02*
X175760000Y-60560000D01*
X175760000Y-63440000D02*
X175760000Y-68115000D01*
X175800000Y-55896000D02*
X175800000Y-60560000D01*
X175800000Y-63440000D02*
X175800000Y-68104000D01*
X175840000Y-55907000D02*
X175840000Y-60560000D01*
X175840000Y-63440000D02*
X175840000Y-68093000D01*
X175880000Y-55918000D02*
X175880000Y-60560000D01*
X175880000Y-63440000D02*
X175880000Y-68082000D01*
X175920000Y-55930000D02*
X175920000Y-60560000D01*
X175920000Y-63440000D02*
X175920000Y-68070000D01*
X175960000Y-55942000D02*
X175960000Y-60560000D01*
X175960000Y-63440000D02*
X175960000Y-68058000D01*
X176000000Y-55954000D02*
X176000000Y-60560000D01*
X176000000Y-63440000D02*
X176000000Y-68046000D01*
X176040000Y-55966000D02*
X176040000Y-60560000D01*
X176040000Y-63440000D02*
X176040000Y-68034000D01*
X176080000Y-55979000D02*
X176080000Y-60560000D01*
X176080000Y-63440000D02*
X176080000Y-68021000D01*
X176120000Y-55992000D02*
X176120000Y-60560000D01*
X176120000Y-63440000D02*
X176120000Y-68008000D01*
X176160000Y-56005000D02*
X176160000Y-60560000D01*
X176160000Y-63440000D02*
X176160000Y-67995000D01*
X176200000Y-56019000D02*
X176200000Y-60560000D01*
X176200000Y-63440000D02*
X176200000Y-67981000D01*
X176240000Y-56033000D02*
X176240000Y-60560000D01*
X176240000Y-63440000D02*
X176240000Y-67967000D01*
X176280000Y-56047000D02*
X176280000Y-60560000D01*
X176280000Y-63440000D02*
X176280000Y-67953000D01*
X176320000Y-56062000D02*
X176320000Y-60560000D01*
X176320000Y-63440000D02*
X176320000Y-67938000D01*
X176360000Y-56077000D02*
X176360000Y-60560000D01*
X176360000Y-63440000D02*
X176360000Y-67923000D01*
X176400000Y-56092000D02*
X176400000Y-60560000D01*
X176400000Y-63440000D02*
X176400000Y-67908000D01*
X176440000Y-56108000D02*
X176440000Y-60560000D01*
X176440000Y-63440000D02*
X176440000Y-67892000D01*
X176480000Y-56123000D02*
X176480000Y-60560000D01*
X176480000Y-63440000D02*
X176480000Y-67877000D01*
X176520000Y-56139000D02*
X176520000Y-60560000D01*
X176520000Y-63440000D02*
X176520000Y-67861000D01*
X176560000Y-56156000D02*
X176560000Y-60560000D01*
X176560000Y-63440000D02*
X176560000Y-67844000D01*
X176600000Y-56173000D02*
X176600000Y-60560000D01*
X176600000Y-63440000D02*
X176600000Y-67827000D01*
X176640000Y-56190000D02*
X176640000Y-60560000D01*
X176640000Y-63440000D02*
X176640000Y-67810000D01*
X176680000Y-56207000D02*
X176680000Y-60560000D01*
X176680000Y-63440000D02*
X176680000Y-67793000D01*
X176720000Y-56225000D02*
X176720000Y-60560000D01*
X176720000Y-63440000D02*
X176720000Y-67775000D01*
X176760000Y-56243000D02*
X176760000Y-60560000D01*
X176760000Y-63440000D02*
X176760000Y-67757000D01*
X176800000Y-56261000D02*
X176800000Y-60560000D01*
X176800000Y-63440000D02*
X176800000Y-67739000D01*
X176840000Y-56280000D02*
X176840000Y-60560000D01*
X176840000Y-63440000D02*
X176840000Y-67720000D01*
X176880000Y-56299000D02*
X176880000Y-60560000D01*
X176880000Y-63440000D02*
X176880000Y-67701000D01*
X176920000Y-56318000D02*
X176920000Y-60560000D01*
X176920000Y-63440000D02*
X176920000Y-67682000D01*
X176960000Y-56338000D02*
X176960000Y-60560000D01*
X176960000Y-63440000D02*
X176960000Y-67662000D01*
X177000000Y-56358000D02*
X177000000Y-60560000D01*
X177000000Y-63440000D02*
X177000000Y-67642000D01*
X177040000Y-56379000D02*
X177040000Y-60560000D01*
X177040000Y-63440000D02*
X177040000Y-67621000D01*
X177080000Y-56399000D02*
X177080000Y-60560000D01*
X177080000Y-63440000D02*
X177080000Y-67601000D01*
X177120000Y-56421000D02*
X177120000Y-60560000D01*
X177120000Y-63440000D02*
X177120000Y-67579000D01*
X177160000Y-56442000D02*
X177160000Y-60560000D01*
X177160000Y-63440000D02*
X177160000Y-67558000D01*
X177200000Y-56464000D02*
X177200000Y-60560000D01*
X177200000Y-63440000D02*
X177200000Y-67536000D01*
X177240000Y-56486000D02*
X177240000Y-60560000D01*
X177240000Y-63440000D02*
X177240000Y-67514000D01*
X177280000Y-56509000D02*
X177280000Y-60560000D01*
X177280000Y-63440000D02*
X177280000Y-67491000D01*
X177320000Y-56532000D02*
X177320000Y-60560000D01*
X177320000Y-63440000D02*
X177320000Y-67468000D01*
X177360000Y-56556000D02*
X177360000Y-60560000D01*
X177360000Y-63440000D02*
X177360000Y-67444000D01*
X177400000Y-56579000D02*
X177400000Y-60560000D01*
X177400000Y-63440000D02*
X177400000Y-67421000D01*
X177440000Y-56604000D02*
X177440000Y-60560000D01*
X177440000Y-63440000D02*
X177440000Y-67396000D01*
X177480000Y-56628000D02*
X177480000Y-60560000D01*
X177480000Y-63440000D02*
X177480000Y-67372000D01*
X177520000Y-56653000D02*
X177520000Y-60560000D01*
X177520000Y-63440000D02*
X177520000Y-67347000D01*
X177560000Y-56679000D02*
X177560000Y-60560000D01*
X177560000Y-63440000D02*
X177560000Y-67321000D01*
X177600000Y-56705000D02*
X177600000Y-60560000D01*
X177600000Y-63440000D02*
X177600000Y-67295000D01*
X177640000Y-56731000D02*
X177640000Y-60560000D01*
X177640000Y-63440000D02*
X177640000Y-67269000D01*
X177680000Y-56758000D02*
X177680000Y-60560000D01*
X177680000Y-63440000D02*
X177680000Y-67242000D01*
X177720000Y-56785000D02*
X177720000Y-60560000D01*
X177720000Y-63440000D02*
X177720000Y-67215000D01*
X177760000Y-56812000D02*
X177760000Y-60560000D01*
X177760000Y-63440000D02*
X177760000Y-67188000D01*
X177800000Y-56841000D02*
X177800000Y-60560000D01*
X177800000Y-63440000D02*
X177800000Y-67159000D01*
X177840000Y-56869000D02*
X177840000Y-60560000D01*
X177840000Y-63440000D02*
X177840000Y-67131000D01*
X177880000Y-56898000D02*
X177880000Y-60560000D01*
X177880000Y-63440000D02*
X177880000Y-67102000D01*
X177920000Y-56928000D02*
X177920000Y-60560000D01*
X177920000Y-63440000D02*
X177920000Y-67072000D01*
X177960000Y-56958000D02*
X177960000Y-60560000D01*
X177960000Y-63440000D02*
X177960000Y-67042000D01*
X178000000Y-56988000D02*
X178000000Y-60560000D01*
X178000000Y-63440000D02*
X178000000Y-67012000D01*
X178040000Y-57019000D02*
X178040000Y-60560000D01*
X178040000Y-63440000D02*
X178040000Y-66981000D01*
X178080000Y-57050000D02*
X178080000Y-66950000D01*
X178120000Y-57082000D02*
X178120000Y-66918000D01*
X178160000Y-57115000D02*
X178160000Y-66885000D01*
X178200000Y-57148000D02*
X178200000Y-66852000D01*
X178240000Y-57182000D02*
X178240000Y-66818000D01*
X178280000Y-57216000D02*
X178280000Y-66784000D01*
X178320000Y-57251000D02*
X178320000Y-66749000D01*
X178360000Y-57286000D02*
X178360000Y-66714000D01*
X178400000Y-57322000D02*
X178400000Y-66678000D01*
X178440000Y-57359000D02*
X178440000Y-66641000D01*
X178480000Y-57396000D02*
X178480000Y-66604000D01*
X178520000Y-57434000D02*
X178520000Y-66566000D01*
X178560000Y-57472000D02*
X178560000Y-66528000D01*
X178600000Y-57512000D02*
X178600000Y-66488000D01*
X178640000Y-57552000D02*
X178640000Y-66448000D01*
X178680000Y-57592000D02*
X178680000Y-66408000D01*
X178720000Y-57634000D02*
X178720000Y-66366000D01*
X178760000Y-57676000D02*
X178760000Y-66324000D01*
X178800000Y-57719000D02*
X178800000Y-66281000D01*
X178840000Y-57762000D02*
X178840000Y-66238000D01*
X178880000Y-57807000D02*
X178880000Y-66193000D01*
X178920000Y-57852000D02*
X178920000Y-66148000D01*
X178960000Y-57899000D02*
X178960000Y-66101000D01*
X179000000Y-57946000D02*
X179000000Y-66054000D01*
X179040000Y-57994000D02*
X179040000Y-66006000D01*
X179080000Y-58043000D02*
X179080000Y-65957000D01*
X179120000Y-58093000D02*
X179120000Y-65907000D01*
X179160000Y-58144000D02*
X179160000Y-65856000D01*
X179200000Y-58197000D02*
X179200000Y-65803000D01*
X179240000Y-58250000D02*
X179240000Y-65750000D01*
X179280000Y-58305000D02*
X179280000Y-65695000D01*
X179320000Y-58361000D02*
X179320000Y-65639000D01*
X179360000Y-58418000D02*
X179360000Y-65582000D01*
X179400000Y-58477000D02*
X179400000Y-65523000D01*
X179440000Y-58537000D02*
X179440000Y-65463000D01*
X179480000Y-58598000D02*
X179480000Y-65402000D01*
X179520000Y-58661000D02*
X179520000Y-65339000D01*
X179560000Y-58726000D02*
X179560000Y-65274000D01*
X179600000Y-58792000D02*
X179600000Y-65208000D01*
X179640000Y-58861000D02*
X179640000Y-65139000D01*
X179680000Y-58931000D02*
X179680000Y-65069000D01*
X179720000Y-59004000D02*
X179720000Y-64996000D01*
X179760000Y-59079000D02*
X179760000Y-64921000D01*
X179800000Y-59157000D02*
X179800000Y-64843000D01*
X179840000Y-59237000D02*
X179840000Y-64763000D01*
X179880000Y-59320000D02*
X179880000Y-64680000D01*
X179920000Y-59406000D02*
X179920000Y-64594000D01*
X179960000Y-59496000D02*
X179960000Y-64504000D01*
X180000000Y-59590000D02*
X180000000Y-64410000D01*
X180040000Y-59688000D02*
X180040000Y-64312000D01*
X180080000Y-59792000D02*
X180080000Y-64208000D01*
X180120000Y-59901000D02*
X180120000Y-64099000D01*
X180160000Y-60016000D02*
X180160000Y-63984000D01*
X180200000Y-60140000D02*
X180200000Y-63860000D01*
X180240000Y-60273000D02*
X180240000Y-63727000D01*
X180280000Y-60418000D02*
X180280000Y-63582000D01*
X180320000Y-60578000D02*
X180320000Y-63422000D01*
X180360000Y-60760000D02*
X180360000Y-63240000D01*
X180400000Y-60973000D02*
X180400000Y-63027000D01*
X180440000Y-61243000D02*
X180440000Y-62757000D01*
X180480000Y-61683000D02*
X180480000Y-62317000D01*
X180490000Y-62000000D02*
G75*
G02*
X167750000Y-62000000I-6370000J0D01*
G01*
X167750000Y-62000000D02*
G75*
G02*
X180490000Y-62000000I6370000J0D01*
G01*
%TO.C,J12*%
D13*
X54800000Y-66928000D02*
X54800000Y-67690000D01*
X54800000Y-66928000D02*
X70040000Y-66928000D01*
X54800000Y-75056000D02*
X70040000Y-75056000D01*
X54800000Y-75310000D02*
X54800000Y-67690000D01*
X54800000Y-76072000D02*
X54800000Y-75056000D01*
X70040000Y-66928000D02*
X70040000Y-67690000D01*
X70040000Y-75056000D02*
X70040000Y-76072000D01*
X70040000Y-75310000D02*
X70040000Y-67690000D01*
X70040000Y-76072000D02*
X54800000Y-76072000D01*
%TO.C,U9*%
D12*
X213440000Y-43940000D02*
X213535000Y-43940000D01*
X213440000Y-48060000D02*
X213440000Y-43940000D01*
X213535000Y-48060000D02*
X213440000Y-48060000D01*
X218465000Y-43940000D02*
X218560000Y-43940000D01*
X218560000Y-43940000D02*
X218560000Y-48060000D01*
X218560000Y-48060000D02*
X218465000Y-48060000D01*
X213530000Y-48600000D02*
X213200000Y-48840000D01*
X213200000Y-48360000D01*
X213530000Y-48600000D01*
G36*
X213530000Y-48600000D02*
G01*
X213200000Y-48840000D01*
X213200000Y-48360000D01*
X213530000Y-48600000D01*
G37*
%TO.C,D2*%
X174100000Y-77000000D02*
X175010000Y-77000000D01*
X176435000Y-74280000D02*
X176435000Y-79720000D01*
X176555000Y-74280000D02*
X176555000Y-79720000D01*
X176675000Y-74280000D02*
X176675000Y-79720000D01*
X185660000Y-77000000D02*
X184750000Y-77000000D01*
X175010000Y-74280000D02*
X184750000Y-74280000D01*
X184750000Y-79720000D01*
X175010000Y-79720000D01*
X175010000Y-74280000D01*
%TO.C,J22*%
D13*
X80300000Y-126928000D02*
X80300000Y-127690000D01*
X80300000Y-126928000D02*
X95540000Y-126928000D01*
X80300000Y-135056000D02*
X95540000Y-135056000D01*
X80300000Y-135310000D02*
X80300000Y-127690000D01*
X80300000Y-136072000D02*
X80300000Y-135056000D01*
X95540000Y-126928000D02*
X95540000Y-127690000D01*
X95540000Y-135056000D02*
X95540000Y-136072000D01*
X95540000Y-135310000D02*
X95540000Y-127690000D01*
X95540000Y-136072000D02*
X80300000Y-136072000D01*
%TO.C,U8*%
D12*
X251310000Y-68680000D02*
X251575000Y-68680000D01*
X251310000Y-76400000D02*
X251310000Y-68680000D01*
X251575000Y-76400000D02*
X251310000Y-76400000D01*
X266665000Y-68680000D02*
X266930000Y-68680000D01*
X266930000Y-68680000D02*
X266930000Y-76400000D01*
X266930000Y-76400000D02*
X266665000Y-76400000D01*
X266670000Y-67890000D02*
X267140000Y-67550000D01*
X267140000Y-68230000D01*
X266670000Y-67890000D01*
G36*
X267140000Y-68230000D02*
G01*
X266670000Y-67890000D01*
X267140000Y-67550000D01*
X267140000Y-68230000D01*
G37*
%TO.C,C6*%
X181182918Y-58425000D02*
X182432918Y-58425000D01*
X181807918Y-57800000D02*
X181807918Y-59050000D01*
X188000000Y-55670000D02*
X188000000Y-68330000D01*
X188040000Y-55670000D02*
X188040000Y-68330000D01*
X188080000Y-55671000D02*
X188080000Y-68329000D01*
X188120000Y-55671000D02*
X188120000Y-68329000D01*
X188160000Y-55672000D02*
X188160000Y-68328000D01*
X188200000Y-55673000D02*
X188200000Y-68327000D01*
X188240000Y-55675000D02*
X188240000Y-68325000D01*
X188280000Y-55676000D02*
X188280000Y-68324000D01*
X188320000Y-55678000D02*
X188320000Y-68322000D01*
X188360000Y-55680000D02*
X188360000Y-68320000D01*
X188400000Y-55683000D02*
X188400000Y-68317000D01*
X188440000Y-55685000D02*
X188440000Y-68315000D01*
X188480000Y-55688000D02*
X188480000Y-68312000D01*
X188520000Y-55691000D02*
X188520000Y-68309000D01*
X188560000Y-55695000D02*
X188560000Y-68305000D01*
X188600000Y-55698000D02*
X188600000Y-68302000D01*
X188640000Y-55702000D02*
X188640000Y-68298000D01*
X188680000Y-55706000D02*
X188680000Y-68294000D01*
X188720000Y-55711000D02*
X188720000Y-68289000D01*
X188760000Y-55716000D02*
X188760000Y-68284000D01*
X188800000Y-55720000D02*
X188800000Y-68280000D01*
X188840000Y-55726000D02*
X188840000Y-68274000D01*
X188880000Y-55731000D02*
X188880000Y-68269000D01*
X188920000Y-55737000D02*
X188920000Y-68263000D01*
X188960000Y-55743000D02*
X188960000Y-68257000D01*
X189000000Y-55749000D02*
X189000000Y-68251000D01*
X189040000Y-55755000D02*
X189040000Y-68245000D01*
X189080000Y-55762000D02*
X189080000Y-60560000D01*
X189080000Y-63440000D02*
X189080000Y-68238000D01*
X189120000Y-55769000D02*
X189120000Y-60560000D01*
X189120000Y-63440000D02*
X189120000Y-68231000D01*
X189160000Y-55777000D02*
X189160000Y-60560000D01*
X189160000Y-63440000D02*
X189160000Y-68223000D01*
X189200000Y-55784000D02*
X189200000Y-60560000D01*
X189200000Y-63440000D02*
X189200000Y-68216000D01*
X189240000Y-55792000D02*
X189240000Y-60560000D01*
X189240000Y-63440000D02*
X189240000Y-68208000D01*
X189280000Y-55800000D02*
X189280000Y-60560000D01*
X189280000Y-63440000D02*
X189280000Y-68200000D01*
X189320000Y-55808000D02*
X189320000Y-60560000D01*
X189320000Y-63440000D02*
X189320000Y-68192000D01*
X189360000Y-55817000D02*
X189360000Y-60560000D01*
X189360000Y-63440000D02*
X189360000Y-68183000D01*
X189400000Y-55826000D02*
X189400000Y-60560000D01*
X189400000Y-63440000D02*
X189400000Y-68174000D01*
X189440000Y-55835000D02*
X189440000Y-60560000D01*
X189440000Y-63440000D02*
X189440000Y-68165000D01*
X189480000Y-55844000D02*
X189480000Y-60560000D01*
X189480000Y-63440000D02*
X189480000Y-68156000D01*
X189520000Y-55854000D02*
X189520000Y-60560000D01*
X189520000Y-63440000D02*
X189520000Y-68146000D01*
X189560000Y-55864000D02*
X189560000Y-60560000D01*
X189560000Y-63440000D02*
X189560000Y-68136000D01*
X189600000Y-55874000D02*
X189600000Y-60560000D01*
X189600000Y-63440000D02*
X189600000Y-68126000D01*
X189640000Y-55885000D02*
X189640000Y-60560000D01*
X189640000Y-63440000D02*
X189640000Y-68115000D01*
X189680000Y-55896000D02*
X189680000Y-60560000D01*
X189680000Y-63440000D02*
X189680000Y-68104000D01*
X189720000Y-55907000D02*
X189720000Y-60560000D01*
X189720000Y-63440000D02*
X189720000Y-68093000D01*
X189760000Y-55918000D02*
X189760000Y-60560000D01*
X189760000Y-63440000D02*
X189760000Y-68082000D01*
X189800000Y-55930000D02*
X189800000Y-60560000D01*
X189800000Y-63440000D02*
X189800000Y-68070000D01*
X189840000Y-55942000D02*
X189840000Y-60560000D01*
X189840000Y-63440000D02*
X189840000Y-68058000D01*
X189880000Y-55954000D02*
X189880000Y-60560000D01*
X189880000Y-63440000D02*
X189880000Y-68046000D01*
X189920000Y-55966000D02*
X189920000Y-60560000D01*
X189920000Y-63440000D02*
X189920000Y-68034000D01*
X189960000Y-55979000D02*
X189960000Y-60560000D01*
X189960000Y-63440000D02*
X189960000Y-68021000D01*
X190000000Y-55992000D02*
X190000000Y-60560000D01*
X190000000Y-63440000D02*
X190000000Y-68008000D01*
X190040000Y-56005000D02*
X190040000Y-60560000D01*
X190040000Y-63440000D02*
X190040000Y-67995000D01*
X190080000Y-56019000D02*
X190080000Y-60560000D01*
X190080000Y-63440000D02*
X190080000Y-67981000D01*
X190120000Y-56033000D02*
X190120000Y-60560000D01*
X190120000Y-63440000D02*
X190120000Y-67967000D01*
X190160000Y-56047000D02*
X190160000Y-60560000D01*
X190160000Y-63440000D02*
X190160000Y-67953000D01*
X190200000Y-56062000D02*
X190200000Y-60560000D01*
X190200000Y-63440000D02*
X190200000Y-67938000D01*
X190240000Y-56077000D02*
X190240000Y-60560000D01*
X190240000Y-63440000D02*
X190240000Y-67923000D01*
X190280000Y-56092000D02*
X190280000Y-60560000D01*
X190280000Y-63440000D02*
X190280000Y-67908000D01*
X190320000Y-56108000D02*
X190320000Y-60560000D01*
X190320000Y-63440000D02*
X190320000Y-67892000D01*
X190360000Y-56123000D02*
X190360000Y-60560000D01*
X190360000Y-63440000D02*
X190360000Y-67877000D01*
X190400000Y-56139000D02*
X190400000Y-60560000D01*
X190400000Y-63440000D02*
X190400000Y-67861000D01*
X190440000Y-56156000D02*
X190440000Y-60560000D01*
X190440000Y-63440000D02*
X190440000Y-67844000D01*
X190480000Y-56173000D02*
X190480000Y-60560000D01*
X190480000Y-63440000D02*
X190480000Y-67827000D01*
X190520000Y-56190000D02*
X190520000Y-60560000D01*
X190520000Y-63440000D02*
X190520000Y-67810000D01*
X190560000Y-56207000D02*
X190560000Y-60560000D01*
X190560000Y-63440000D02*
X190560000Y-67793000D01*
X190600000Y-56225000D02*
X190600000Y-60560000D01*
X190600000Y-63440000D02*
X190600000Y-67775000D01*
X190640000Y-56243000D02*
X190640000Y-60560000D01*
X190640000Y-63440000D02*
X190640000Y-67757000D01*
X190680000Y-56261000D02*
X190680000Y-60560000D01*
X190680000Y-63440000D02*
X190680000Y-67739000D01*
X190720000Y-56280000D02*
X190720000Y-60560000D01*
X190720000Y-63440000D02*
X190720000Y-67720000D01*
X190760000Y-56299000D02*
X190760000Y-60560000D01*
X190760000Y-63440000D02*
X190760000Y-67701000D01*
X190800000Y-56318000D02*
X190800000Y-60560000D01*
X190800000Y-63440000D02*
X190800000Y-67682000D01*
X190840000Y-56338000D02*
X190840000Y-60560000D01*
X190840000Y-63440000D02*
X190840000Y-67662000D01*
X190880000Y-56358000D02*
X190880000Y-60560000D01*
X190880000Y-63440000D02*
X190880000Y-67642000D01*
X190920000Y-56379000D02*
X190920000Y-60560000D01*
X190920000Y-63440000D02*
X190920000Y-67621000D01*
X190960000Y-56399000D02*
X190960000Y-60560000D01*
X190960000Y-63440000D02*
X190960000Y-67601000D01*
X191000000Y-56421000D02*
X191000000Y-60560000D01*
X191000000Y-63440000D02*
X191000000Y-67579000D01*
X191040000Y-56442000D02*
X191040000Y-60560000D01*
X191040000Y-63440000D02*
X191040000Y-67558000D01*
X191080000Y-56464000D02*
X191080000Y-60560000D01*
X191080000Y-63440000D02*
X191080000Y-67536000D01*
X191120000Y-56486000D02*
X191120000Y-60560000D01*
X191120000Y-63440000D02*
X191120000Y-67514000D01*
X191160000Y-56509000D02*
X191160000Y-60560000D01*
X191160000Y-63440000D02*
X191160000Y-67491000D01*
X191200000Y-56532000D02*
X191200000Y-60560000D01*
X191200000Y-63440000D02*
X191200000Y-67468000D01*
X191240000Y-56556000D02*
X191240000Y-60560000D01*
X191240000Y-63440000D02*
X191240000Y-67444000D01*
X191280000Y-56579000D02*
X191280000Y-60560000D01*
X191280000Y-63440000D02*
X191280000Y-67421000D01*
X191320000Y-56604000D02*
X191320000Y-60560000D01*
X191320000Y-63440000D02*
X191320000Y-67396000D01*
X191360000Y-56628000D02*
X191360000Y-60560000D01*
X191360000Y-63440000D02*
X191360000Y-67372000D01*
X191400000Y-56653000D02*
X191400000Y-60560000D01*
X191400000Y-63440000D02*
X191400000Y-67347000D01*
X191440000Y-56679000D02*
X191440000Y-60560000D01*
X191440000Y-63440000D02*
X191440000Y-67321000D01*
X191480000Y-56705000D02*
X191480000Y-60560000D01*
X191480000Y-63440000D02*
X191480000Y-67295000D01*
X191520000Y-56731000D02*
X191520000Y-60560000D01*
X191520000Y-63440000D02*
X191520000Y-67269000D01*
X191560000Y-56758000D02*
X191560000Y-60560000D01*
X191560000Y-63440000D02*
X191560000Y-67242000D01*
X191600000Y-56785000D02*
X191600000Y-60560000D01*
X191600000Y-63440000D02*
X191600000Y-67215000D01*
X191640000Y-56812000D02*
X191640000Y-60560000D01*
X191640000Y-63440000D02*
X191640000Y-67188000D01*
X191680000Y-56841000D02*
X191680000Y-60560000D01*
X191680000Y-63440000D02*
X191680000Y-67159000D01*
X191720000Y-56869000D02*
X191720000Y-60560000D01*
X191720000Y-63440000D02*
X191720000Y-67131000D01*
X191760000Y-56898000D02*
X191760000Y-60560000D01*
X191760000Y-63440000D02*
X191760000Y-67102000D01*
X191800000Y-56928000D02*
X191800000Y-60560000D01*
X191800000Y-63440000D02*
X191800000Y-67072000D01*
X191840000Y-56958000D02*
X191840000Y-60560000D01*
X191840000Y-63440000D02*
X191840000Y-67042000D01*
X191880000Y-56988000D02*
X191880000Y-60560000D01*
X191880000Y-63440000D02*
X191880000Y-67012000D01*
X191920000Y-57019000D02*
X191920000Y-60560000D01*
X191920000Y-63440000D02*
X191920000Y-66981000D01*
X191960000Y-57050000D02*
X191960000Y-66950000D01*
X192000000Y-57082000D02*
X192000000Y-66918000D01*
X192040000Y-57115000D02*
X192040000Y-66885000D01*
X192080000Y-57148000D02*
X192080000Y-66852000D01*
X192120000Y-57182000D02*
X192120000Y-66818000D01*
X192160000Y-57216000D02*
X192160000Y-66784000D01*
X192200000Y-57251000D02*
X192200000Y-66749000D01*
X192240000Y-57286000D02*
X192240000Y-66714000D01*
X192280000Y-57322000D02*
X192280000Y-66678000D01*
X192320000Y-57359000D02*
X192320000Y-66641000D01*
X192360000Y-57396000D02*
X192360000Y-66604000D01*
X192400000Y-57434000D02*
X192400000Y-66566000D01*
X192440000Y-57472000D02*
X192440000Y-66528000D01*
X192480000Y-57512000D02*
X192480000Y-66488000D01*
X192520000Y-57552000D02*
X192520000Y-66448000D01*
X192560000Y-57592000D02*
X192560000Y-66408000D01*
X192600000Y-57634000D02*
X192600000Y-66366000D01*
X192640000Y-57676000D02*
X192640000Y-66324000D01*
X192680000Y-57719000D02*
X192680000Y-66281000D01*
X192720000Y-57762000D02*
X192720000Y-66238000D01*
X192760000Y-57807000D02*
X192760000Y-66193000D01*
X192800000Y-57852000D02*
X192800000Y-66148000D01*
X192840000Y-57899000D02*
X192840000Y-66101000D01*
X192880000Y-57946000D02*
X192880000Y-66054000D01*
X192920000Y-57994000D02*
X192920000Y-66006000D01*
X192960000Y-58043000D02*
X192960000Y-65957000D01*
X193000000Y-58093000D02*
X193000000Y-65907000D01*
X193040000Y-58144000D02*
X193040000Y-65856000D01*
X193080000Y-58197000D02*
X193080000Y-65803000D01*
X193120000Y-58250000D02*
X193120000Y-65750000D01*
X193160000Y-58305000D02*
X193160000Y-65695000D01*
X193200000Y-58361000D02*
X193200000Y-65639000D01*
X193240000Y-58418000D02*
X193240000Y-65582000D01*
X193280000Y-58477000D02*
X193280000Y-65523000D01*
X193320000Y-58537000D02*
X193320000Y-65463000D01*
X193360000Y-58598000D02*
X193360000Y-65402000D01*
X193400000Y-58661000D02*
X193400000Y-65339000D01*
X193440000Y-58726000D02*
X193440000Y-65274000D01*
X193480000Y-58792000D02*
X193480000Y-65208000D01*
X193520000Y-58861000D02*
X193520000Y-65139000D01*
X193560000Y-58931000D02*
X193560000Y-65069000D01*
X193600000Y-59004000D02*
X193600000Y-64996000D01*
X193640000Y-59079000D02*
X193640000Y-64921000D01*
X193680000Y-59157000D02*
X193680000Y-64843000D01*
X193720000Y-59237000D02*
X193720000Y-64763000D01*
X193760000Y-59320000D02*
X193760000Y-64680000D01*
X193800000Y-59406000D02*
X193800000Y-64594000D01*
X193840000Y-59496000D02*
X193840000Y-64504000D01*
X193880000Y-59590000D02*
X193880000Y-64410000D01*
X193920000Y-59688000D02*
X193920000Y-64312000D01*
X193960000Y-59792000D02*
X193960000Y-64208000D01*
X194000000Y-59901000D02*
X194000000Y-64099000D01*
X194040000Y-60016000D02*
X194040000Y-63984000D01*
X194080000Y-60140000D02*
X194080000Y-63860000D01*
X194120000Y-60273000D02*
X194120000Y-63727000D01*
X194160000Y-60418000D02*
X194160000Y-63582000D01*
X194200000Y-60578000D02*
X194200000Y-63422000D01*
X194240000Y-60760000D02*
X194240000Y-63240000D01*
X194280000Y-60973000D02*
X194280000Y-63027000D01*
X194320000Y-61243000D02*
X194320000Y-62757000D01*
X194360000Y-61683000D02*
X194360000Y-62317000D01*
X194370000Y-62000000D02*
G75*
G02*
X181630000Y-62000000I-6370000J0D01*
G01*
X181630000Y-62000000D02*
G75*
G02*
X194370000Y-62000000I6370000J0D01*
G01*
%TO.C,J18*%
D13*
X54960000Y-106428000D02*
X54960000Y-107190000D01*
X54960000Y-106428000D02*
X70200000Y-106428000D01*
X54960000Y-114556000D02*
X70200000Y-114556000D01*
X54960000Y-114810000D02*
X54960000Y-107190000D01*
X54960000Y-115572000D02*
X54960000Y-114556000D01*
X70200000Y-106428000D02*
X70200000Y-107190000D01*
X70200000Y-114556000D02*
X70200000Y-115572000D01*
X70200000Y-114810000D02*
X70200000Y-107190000D01*
X70200000Y-115572000D02*
X54960000Y-115572000D01*
%TO.C,U5*%
D12*
X213725000Y-73920000D02*
X214625000Y-73920000D01*
X213725000Y-74820000D02*
X213725000Y-73920000D01*
X213725000Y-79140000D02*
X213725000Y-78240000D01*
X214625000Y-79140000D02*
X213725000Y-79140000D01*
X218045000Y-73920000D02*
X218945000Y-73920000D01*
X218945000Y-73920000D02*
X218945000Y-74820000D01*
X218945000Y-78240000D02*
X218945000Y-79140000D01*
X218945000Y-79140000D02*
X218045000Y-79140000D01*
X213225000Y-75230000D02*
X212895000Y-75470000D01*
X212895000Y-74990000D01*
X213225000Y-75230000D01*
G36*
X213225000Y-75230000D02*
G01*
X212895000Y-75470000D01*
X212895000Y-74990000D01*
X213225000Y-75230000D01*
G37*
%TO.C,C4*%
X167302918Y-42815000D02*
X168552918Y-42815000D01*
X167927918Y-42190000D02*
X167927918Y-43440000D01*
X174120000Y-40060000D02*
X174120000Y-52720000D01*
X174160000Y-40060000D02*
X174160000Y-52720000D01*
X174200000Y-40061000D02*
X174200000Y-52719000D01*
X174240000Y-40061000D02*
X174240000Y-52719000D01*
X174280000Y-40062000D02*
X174280000Y-52718000D01*
X174320000Y-40063000D02*
X174320000Y-52717000D01*
X174360000Y-40065000D02*
X174360000Y-52715000D01*
X174400000Y-40066000D02*
X174400000Y-52714000D01*
X174440000Y-40068000D02*
X174440000Y-52712000D01*
X174480000Y-40070000D02*
X174480000Y-52710000D01*
X174520000Y-40073000D02*
X174520000Y-52707000D01*
X174560000Y-40075000D02*
X174560000Y-52705000D01*
X174600000Y-40078000D02*
X174600000Y-52702000D01*
X174640000Y-40081000D02*
X174640000Y-52699000D01*
X174680000Y-40085000D02*
X174680000Y-52695000D01*
X174720000Y-40088000D02*
X174720000Y-52692000D01*
X174760000Y-40092000D02*
X174760000Y-52688000D01*
X174800000Y-40096000D02*
X174800000Y-52684000D01*
X174840000Y-40101000D02*
X174840000Y-52679000D01*
X174880000Y-40106000D02*
X174880000Y-52674000D01*
X174920000Y-40110000D02*
X174920000Y-52670000D01*
X174960000Y-40116000D02*
X174960000Y-52664000D01*
X175000000Y-40121000D02*
X175000000Y-52659000D01*
X175040000Y-40127000D02*
X175040000Y-52653000D01*
X175080000Y-40133000D02*
X175080000Y-52647000D01*
X175120000Y-40139000D02*
X175120000Y-52641000D01*
X175160000Y-40145000D02*
X175160000Y-52635000D01*
X175200000Y-40152000D02*
X175200000Y-44950000D01*
X175200000Y-47830000D02*
X175200000Y-52628000D01*
X175240000Y-40159000D02*
X175240000Y-44950000D01*
X175240000Y-47830000D02*
X175240000Y-52621000D01*
X175280000Y-40167000D02*
X175280000Y-44950000D01*
X175280000Y-47830000D02*
X175280000Y-52613000D01*
X175320000Y-40174000D02*
X175320000Y-44950000D01*
X175320000Y-47830000D02*
X175320000Y-52606000D01*
X175360000Y-40182000D02*
X175360000Y-44950000D01*
X175360000Y-47830000D02*
X175360000Y-52598000D01*
X175400000Y-40190000D02*
X175400000Y-44950000D01*
X175400000Y-47830000D02*
X175400000Y-52590000D01*
X175440000Y-40198000D02*
X175440000Y-44950000D01*
X175440000Y-47830000D02*
X175440000Y-52582000D01*
X175480000Y-40207000D02*
X175480000Y-44950000D01*
X175480000Y-47830000D02*
X175480000Y-52573000D01*
X175520000Y-40216000D02*
X175520000Y-44950000D01*
X175520000Y-47830000D02*
X175520000Y-52564000D01*
X175560000Y-40225000D02*
X175560000Y-44950000D01*
X175560000Y-47830000D02*
X175560000Y-52555000D01*
X175600000Y-40234000D02*
X175600000Y-44950000D01*
X175600000Y-47830000D02*
X175600000Y-52546000D01*
X175640000Y-40244000D02*
X175640000Y-44950000D01*
X175640000Y-47830000D02*
X175640000Y-52536000D01*
X175680000Y-40254000D02*
X175680000Y-44950000D01*
X175680000Y-47830000D02*
X175680000Y-52526000D01*
X175720000Y-40264000D02*
X175720000Y-44950000D01*
X175720000Y-47830000D02*
X175720000Y-52516000D01*
X175760000Y-40275000D02*
X175760000Y-44950000D01*
X175760000Y-47830000D02*
X175760000Y-52505000D01*
X175800000Y-40286000D02*
X175800000Y-44950000D01*
X175800000Y-47830000D02*
X175800000Y-52494000D01*
X175840000Y-40297000D02*
X175840000Y-44950000D01*
X175840000Y-47830000D02*
X175840000Y-52483000D01*
X175880000Y-40308000D02*
X175880000Y-44950000D01*
X175880000Y-47830000D02*
X175880000Y-52472000D01*
X175920000Y-40320000D02*
X175920000Y-44950000D01*
X175920000Y-47830000D02*
X175920000Y-52460000D01*
X175960000Y-40332000D02*
X175960000Y-44950000D01*
X175960000Y-47830000D02*
X175960000Y-52448000D01*
X176000000Y-40344000D02*
X176000000Y-44950000D01*
X176000000Y-47830000D02*
X176000000Y-52436000D01*
X176040000Y-40356000D02*
X176040000Y-44950000D01*
X176040000Y-47830000D02*
X176040000Y-52424000D01*
X176080000Y-40369000D02*
X176080000Y-44950000D01*
X176080000Y-47830000D02*
X176080000Y-52411000D01*
X176120000Y-40382000D02*
X176120000Y-44950000D01*
X176120000Y-47830000D02*
X176120000Y-52398000D01*
X176160000Y-40395000D02*
X176160000Y-44950000D01*
X176160000Y-47830000D02*
X176160000Y-52385000D01*
X176200000Y-40409000D02*
X176200000Y-44950000D01*
X176200000Y-47830000D02*
X176200000Y-52371000D01*
X176240000Y-40423000D02*
X176240000Y-44950000D01*
X176240000Y-47830000D02*
X176240000Y-52357000D01*
X176280000Y-40437000D02*
X176280000Y-44950000D01*
X176280000Y-47830000D02*
X176280000Y-52343000D01*
X176320000Y-40452000D02*
X176320000Y-44950000D01*
X176320000Y-47830000D02*
X176320000Y-52328000D01*
X176360000Y-40467000D02*
X176360000Y-44950000D01*
X176360000Y-47830000D02*
X176360000Y-52313000D01*
X176400000Y-40482000D02*
X176400000Y-44950000D01*
X176400000Y-47830000D02*
X176400000Y-52298000D01*
X176440000Y-40498000D02*
X176440000Y-44950000D01*
X176440000Y-47830000D02*
X176440000Y-52282000D01*
X176480000Y-40513000D02*
X176480000Y-44950000D01*
X176480000Y-47830000D02*
X176480000Y-52267000D01*
X176520000Y-40529000D02*
X176520000Y-44950000D01*
X176520000Y-47830000D02*
X176520000Y-52251000D01*
X176560000Y-40546000D02*
X176560000Y-44950000D01*
X176560000Y-47830000D02*
X176560000Y-52234000D01*
X176600000Y-40563000D02*
X176600000Y-44950000D01*
X176600000Y-47830000D02*
X176600000Y-52217000D01*
X176640000Y-40580000D02*
X176640000Y-44950000D01*
X176640000Y-47830000D02*
X176640000Y-52200000D01*
X176680000Y-40597000D02*
X176680000Y-44950000D01*
X176680000Y-47830000D02*
X176680000Y-52183000D01*
X176720000Y-40615000D02*
X176720000Y-44950000D01*
X176720000Y-47830000D02*
X176720000Y-52165000D01*
X176760000Y-40633000D02*
X176760000Y-44950000D01*
X176760000Y-47830000D02*
X176760000Y-52147000D01*
X176800000Y-40651000D02*
X176800000Y-44950000D01*
X176800000Y-47830000D02*
X176800000Y-52129000D01*
X176840000Y-40670000D02*
X176840000Y-44950000D01*
X176840000Y-47830000D02*
X176840000Y-52110000D01*
X176880000Y-40689000D02*
X176880000Y-44950000D01*
X176880000Y-47830000D02*
X176880000Y-52091000D01*
X176920000Y-40708000D02*
X176920000Y-44950000D01*
X176920000Y-47830000D02*
X176920000Y-52072000D01*
X176960000Y-40728000D02*
X176960000Y-44950000D01*
X176960000Y-47830000D02*
X176960000Y-52052000D01*
X177000000Y-40748000D02*
X177000000Y-44950000D01*
X177000000Y-47830000D02*
X177000000Y-52032000D01*
X177040000Y-40769000D02*
X177040000Y-44950000D01*
X177040000Y-47830000D02*
X177040000Y-52011000D01*
X177080000Y-40789000D02*
X177080000Y-44950000D01*
X177080000Y-47830000D02*
X177080000Y-51991000D01*
X177120000Y-40811000D02*
X177120000Y-44950000D01*
X177120000Y-47830000D02*
X177120000Y-51969000D01*
X177160000Y-40832000D02*
X177160000Y-44950000D01*
X177160000Y-47830000D02*
X177160000Y-51948000D01*
X177200000Y-40854000D02*
X177200000Y-44950000D01*
X177200000Y-47830000D02*
X177200000Y-51926000D01*
X177240000Y-40876000D02*
X177240000Y-44950000D01*
X177240000Y-47830000D02*
X177240000Y-51904000D01*
X177280000Y-40899000D02*
X177280000Y-44950000D01*
X177280000Y-47830000D02*
X177280000Y-51881000D01*
X177320000Y-40922000D02*
X177320000Y-44950000D01*
X177320000Y-47830000D02*
X177320000Y-51858000D01*
X177360000Y-40946000D02*
X177360000Y-44950000D01*
X177360000Y-47830000D02*
X177360000Y-51834000D01*
X177400000Y-40969000D02*
X177400000Y-44950000D01*
X177400000Y-47830000D02*
X177400000Y-51811000D01*
X177440000Y-40994000D02*
X177440000Y-44950000D01*
X177440000Y-47830000D02*
X177440000Y-51786000D01*
X177480000Y-41018000D02*
X177480000Y-44950000D01*
X177480000Y-47830000D02*
X177480000Y-51762000D01*
X177520000Y-41043000D02*
X177520000Y-44950000D01*
X177520000Y-47830000D02*
X177520000Y-51737000D01*
X177560000Y-41069000D02*
X177560000Y-44950000D01*
X177560000Y-47830000D02*
X177560000Y-51711000D01*
X177600000Y-41095000D02*
X177600000Y-44950000D01*
X177600000Y-47830000D02*
X177600000Y-51685000D01*
X177640000Y-41121000D02*
X177640000Y-44950000D01*
X177640000Y-47830000D02*
X177640000Y-51659000D01*
X177680000Y-41148000D02*
X177680000Y-44950000D01*
X177680000Y-47830000D02*
X177680000Y-51632000D01*
X177720000Y-41175000D02*
X177720000Y-44950000D01*
X177720000Y-47830000D02*
X177720000Y-51605000D01*
X177760000Y-41202000D02*
X177760000Y-44950000D01*
X177760000Y-47830000D02*
X177760000Y-51578000D01*
X177800000Y-41231000D02*
X177800000Y-44950000D01*
X177800000Y-47830000D02*
X177800000Y-51549000D01*
X177840000Y-41259000D02*
X177840000Y-44950000D01*
X177840000Y-47830000D02*
X177840000Y-51521000D01*
X177880000Y-41288000D02*
X177880000Y-44950000D01*
X177880000Y-47830000D02*
X177880000Y-51492000D01*
X177920000Y-41318000D02*
X177920000Y-44950000D01*
X177920000Y-47830000D02*
X177920000Y-51462000D01*
X177960000Y-41348000D02*
X177960000Y-44950000D01*
X177960000Y-47830000D02*
X177960000Y-51432000D01*
X178000000Y-41378000D02*
X178000000Y-44950000D01*
X178000000Y-47830000D02*
X178000000Y-51402000D01*
X178040000Y-41409000D02*
X178040000Y-44950000D01*
X178040000Y-47830000D02*
X178040000Y-51371000D01*
X178080000Y-41440000D02*
X178080000Y-51340000D01*
X178120000Y-41472000D02*
X178120000Y-51308000D01*
X178160000Y-41505000D02*
X178160000Y-51275000D01*
X178200000Y-41538000D02*
X178200000Y-51242000D01*
X178240000Y-41572000D02*
X178240000Y-51208000D01*
X178280000Y-41606000D02*
X178280000Y-51174000D01*
X178320000Y-41641000D02*
X178320000Y-51139000D01*
X178360000Y-41676000D02*
X178360000Y-51104000D01*
X178400000Y-41712000D02*
X178400000Y-51068000D01*
X178440000Y-41749000D02*
X178440000Y-51031000D01*
X178480000Y-41786000D02*
X178480000Y-50994000D01*
X178520000Y-41824000D02*
X178520000Y-50956000D01*
X178560000Y-41862000D02*
X178560000Y-50918000D01*
X178600000Y-41902000D02*
X178600000Y-50878000D01*
X178640000Y-41942000D02*
X178640000Y-50838000D01*
X178680000Y-41982000D02*
X178680000Y-50798000D01*
X178720000Y-42024000D02*
X178720000Y-50756000D01*
X178760000Y-42066000D02*
X178760000Y-50714000D01*
X178800000Y-42109000D02*
X178800000Y-50671000D01*
X178840000Y-42152000D02*
X178840000Y-50628000D01*
X178880000Y-42197000D02*
X178880000Y-50583000D01*
X178920000Y-42242000D02*
X178920000Y-50538000D01*
X178960000Y-42289000D02*
X178960000Y-50491000D01*
X179000000Y-42336000D02*
X179000000Y-50444000D01*
X179040000Y-42384000D02*
X179040000Y-50396000D01*
X179080000Y-42433000D02*
X179080000Y-50347000D01*
X179120000Y-42483000D02*
X179120000Y-50297000D01*
X179160000Y-42534000D02*
X179160000Y-50246000D01*
X179200000Y-42587000D02*
X179200000Y-50193000D01*
X179240000Y-42640000D02*
X179240000Y-50140000D01*
X179280000Y-42695000D02*
X179280000Y-50085000D01*
X179320000Y-42751000D02*
X179320000Y-50029000D01*
X179360000Y-42808000D02*
X179360000Y-49972000D01*
X179400000Y-42867000D02*
X179400000Y-49913000D01*
X179440000Y-42927000D02*
X179440000Y-49853000D01*
X179480000Y-42988000D02*
X179480000Y-49792000D01*
X179520000Y-43051000D02*
X179520000Y-49729000D01*
X179560000Y-43116000D02*
X179560000Y-49664000D01*
X179600000Y-43182000D02*
X179600000Y-49598000D01*
X179640000Y-43251000D02*
X179640000Y-49529000D01*
X179680000Y-43321000D02*
X179680000Y-49459000D01*
X179720000Y-43394000D02*
X179720000Y-49386000D01*
X179760000Y-43469000D02*
X179760000Y-49311000D01*
X179800000Y-43547000D02*
X179800000Y-49233000D01*
X179840000Y-43627000D02*
X179840000Y-49153000D01*
X179880000Y-43710000D02*
X179880000Y-49070000D01*
X179920000Y-43796000D02*
X179920000Y-48984000D01*
X179960000Y-43886000D02*
X179960000Y-48894000D01*
X180000000Y-43980000D02*
X180000000Y-48800000D01*
X180040000Y-44078000D02*
X180040000Y-48702000D01*
X180080000Y-44182000D02*
X180080000Y-48598000D01*
X180120000Y-44291000D02*
X180120000Y-48489000D01*
X180160000Y-44406000D02*
X180160000Y-48374000D01*
X180200000Y-44530000D02*
X180200000Y-48250000D01*
X180240000Y-44663000D02*
X180240000Y-48117000D01*
X180280000Y-44808000D02*
X180280000Y-47972000D01*
X180320000Y-44968000D02*
X180320000Y-47812000D01*
X180360000Y-45150000D02*
X180360000Y-47630000D01*
X180400000Y-45363000D02*
X180400000Y-47417000D01*
X180440000Y-45633000D02*
X180440000Y-47147000D01*
X180480000Y-46073000D02*
X180480000Y-46707000D01*
X180490000Y-46390000D02*
G75*
G02*
X167750000Y-46390000I-6370000J0D01*
G01*
X167750000Y-46390000D02*
G75*
G02*
X180490000Y-46390000I6370000J0D01*
G01*
%TO.C,C11*%
X205050000Y-74020000D02*
X208690000Y-74020000D01*
X205050000Y-74320000D02*
X205050000Y-74020000D01*
X205050000Y-76360000D02*
X205050000Y-76060000D01*
X208690000Y-74020000D02*
X208690000Y-74320000D01*
X208690000Y-76060000D02*
X208690000Y-76360000D01*
X208690000Y-76360000D02*
X205050000Y-76360000D01*
%TO.C,C9*%
X181182918Y-42925000D02*
X182432918Y-42925000D01*
X181807918Y-42300000D02*
X181807918Y-43550000D01*
X188000000Y-40170000D02*
X188000000Y-52830000D01*
X188040000Y-40170000D02*
X188040000Y-52830000D01*
X188080000Y-40171000D02*
X188080000Y-52829000D01*
X188120000Y-40171000D02*
X188120000Y-52829000D01*
X188160000Y-40172000D02*
X188160000Y-52828000D01*
X188200000Y-40173000D02*
X188200000Y-52827000D01*
X188240000Y-40175000D02*
X188240000Y-52825000D01*
X188280000Y-40176000D02*
X188280000Y-52824000D01*
X188320000Y-40178000D02*
X188320000Y-52822000D01*
X188360000Y-40180000D02*
X188360000Y-52820000D01*
X188400000Y-40183000D02*
X188400000Y-52817000D01*
X188440000Y-40185000D02*
X188440000Y-52815000D01*
X188480000Y-40188000D02*
X188480000Y-52812000D01*
X188520000Y-40191000D02*
X188520000Y-52809000D01*
X188560000Y-40195000D02*
X188560000Y-52805000D01*
X188600000Y-40198000D02*
X188600000Y-52802000D01*
X188640000Y-40202000D02*
X188640000Y-52798000D01*
X188680000Y-40206000D02*
X188680000Y-52794000D01*
X188720000Y-40211000D02*
X188720000Y-52789000D01*
X188760000Y-40216000D02*
X188760000Y-52784000D01*
X188800000Y-40220000D02*
X188800000Y-52780000D01*
X188840000Y-40226000D02*
X188840000Y-52774000D01*
X188880000Y-40231000D02*
X188880000Y-52769000D01*
X188920000Y-40237000D02*
X188920000Y-52763000D01*
X188960000Y-40243000D02*
X188960000Y-52757000D01*
X189000000Y-40249000D02*
X189000000Y-52751000D01*
X189040000Y-40255000D02*
X189040000Y-52745000D01*
X189080000Y-40262000D02*
X189080000Y-45060000D01*
X189080000Y-47940000D02*
X189080000Y-52738000D01*
X189120000Y-40269000D02*
X189120000Y-45060000D01*
X189120000Y-47940000D02*
X189120000Y-52731000D01*
X189160000Y-40277000D02*
X189160000Y-45060000D01*
X189160000Y-47940000D02*
X189160000Y-52723000D01*
X189200000Y-40284000D02*
X189200000Y-45060000D01*
X189200000Y-47940000D02*
X189200000Y-52716000D01*
X189240000Y-40292000D02*
X189240000Y-45060000D01*
X189240000Y-47940000D02*
X189240000Y-52708000D01*
X189280000Y-40300000D02*
X189280000Y-45060000D01*
X189280000Y-47940000D02*
X189280000Y-52700000D01*
X189320000Y-40308000D02*
X189320000Y-45060000D01*
X189320000Y-47940000D02*
X189320000Y-52692000D01*
X189360000Y-40317000D02*
X189360000Y-45060000D01*
X189360000Y-47940000D02*
X189360000Y-52683000D01*
X189400000Y-40326000D02*
X189400000Y-45060000D01*
X189400000Y-47940000D02*
X189400000Y-52674000D01*
X189440000Y-40335000D02*
X189440000Y-45060000D01*
X189440000Y-47940000D02*
X189440000Y-52665000D01*
X189480000Y-40344000D02*
X189480000Y-45060000D01*
X189480000Y-47940000D02*
X189480000Y-52656000D01*
X189520000Y-40354000D02*
X189520000Y-45060000D01*
X189520000Y-47940000D02*
X189520000Y-52646000D01*
X189560000Y-40364000D02*
X189560000Y-45060000D01*
X189560000Y-47940000D02*
X189560000Y-52636000D01*
X189600000Y-40374000D02*
X189600000Y-45060000D01*
X189600000Y-47940000D02*
X189600000Y-52626000D01*
X189640000Y-40385000D02*
X189640000Y-45060000D01*
X189640000Y-47940000D02*
X189640000Y-52615000D01*
X189680000Y-40396000D02*
X189680000Y-45060000D01*
X189680000Y-47940000D02*
X189680000Y-52604000D01*
X189720000Y-40407000D02*
X189720000Y-45060000D01*
X189720000Y-47940000D02*
X189720000Y-52593000D01*
X189760000Y-40418000D02*
X189760000Y-45060000D01*
X189760000Y-47940000D02*
X189760000Y-52582000D01*
X189800000Y-40430000D02*
X189800000Y-45060000D01*
X189800000Y-47940000D02*
X189800000Y-52570000D01*
X189840000Y-40442000D02*
X189840000Y-45060000D01*
X189840000Y-47940000D02*
X189840000Y-52558000D01*
X189880000Y-40454000D02*
X189880000Y-45060000D01*
X189880000Y-47940000D02*
X189880000Y-52546000D01*
X189920000Y-40466000D02*
X189920000Y-45060000D01*
X189920000Y-47940000D02*
X189920000Y-52534000D01*
X189960000Y-40479000D02*
X189960000Y-45060000D01*
X189960000Y-47940000D02*
X189960000Y-52521000D01*
X190000000Y-40492000D02*
X190000000Y-45060000D01*
X190000000Y-47940000D02*
X190000000Y-52508000D01*
X190040000Y-40505000D02*
X190040000Y-45060000D01*
X190040000Y-47940000D02*
X190040000Y-52495000D01*
X190080000Y-40519000D02*
X190080000Y-45060000D01*
X190080000Y-47940000D02*
X190080000Y-52481000D01*
X190120000Y-40533000D02*
X190120000Y-45060000D01*
X190120000Y-47940000D02*
X190120000Y-52467000D01*
X190160000Y-40547000D02*
X190160000Y-45060000D01*
X190160000Y-47940000D02*
X190160000Y-52453000D01*
X190200000Y-40562000D02*
X190200000Y-45060000D01*
X190200000Y-47940000D02*
X190200000Y-52438000D01*
X190240000Y-40577000D02*
X190240000Y-45060000D01*
X190240000Y-47940000D02*
X190240000Y-52423000D01*
X190280000Y-40592000D02*
X190280000Y-45060000D01*
X190280000Y-47940000D02*
X190280000Y-52408000D01*
X190320000Y-40608000D02*
X190320000Y-45060000D01*
X190320000Y-47940000D02*
X190320000Y-52392000D01*
X190360000Y-40623000D02*
X190360000Y-45060000D01*
X190360000Y-47940000D02*
X190360000Y-52377000D01*
X190400000Y-40639000D02*
X190400000Y-45060000D01*
X190400000Y-47940000D02*
X190400000Y-52361000D01*
X190440000Y-40656000D02*
X190440000Y-45060000D01*
X190440000Y-47940000D02*
X190440000Y-52344000D01*
X190480000Y-40673000D02*
X190480000Y-45060000D01*
X190480000Y-47940000D02*
X190480000Y-52327000D01*
X190520000Y-40690000D02*
X190520000Y-45060000D01*
X190520000Y-47940000D02*
X190520000Y-52310000D01*
X190560000Y-40707000D02*
X190560000Y-45060000D01*
X190560000Y-47940000D02*
X190560000Y-52293000D01*
X190600000Y-40725000D02*
X190600000Y-45060000D01*
X190600000Y-47940000D02*
X190600000Y-52275000D01*
X190640000Y-40743000D02*
X190640000Y-45060000D01*
X190640000Y-47940000D02*
X190640000Y-52257000D01*
X190680000Y-40761000D02*
X190680000Y-45060000D01*
X190680000Y-47940000D02*
X190680000Y-52239000D01*
X190720000Y-40780000D02*
X190720000Y-45060000D01*
X190720000Y-47940000D02*
X190720000Y-52220000D01*
X190760000Y-40799000D02*
X190760000Y-45060000D01*
X190760000Y-47940000D02*
X190760000Y-52201000D01*
X190800000Y-40818000D02*
X190800000Y-45060000D01*
X190800000Y-47940000D02*
X190800000Y-52182000D01*
X190840000Y-40838000D02*
X190840000Y-45060000D01*
X190840000Y-47940000D02*
X190840000Y-52162000D01*
X190880000Y-40858000D02*
X190880000Y-45060000D01*
X190880000Y-47940000D02*
X190880000Y-52142000D01*
X190920000Y-40879000D02*
X190920000Y-45060000D01*
X190920000Y-47940000D02*
X190920000Y-52121000D01*
X190960000Y-40899000D02*
X190960000Y-45060000D01*
X190960000Y-47940000D02*
X190960000Y-52101000D01*
X191000000Y-40921000D02*
X191000000Y-45060000D01*
X191000000Y-47940000D02*
X191000000Y-52079000D01*
X191040000Y-40942000D02*
X191040000Y-45060000D01*
X191040000Y-47940000D02*
X191040000Y-52058000D01*
X191080000Y-40964000D02*
X191080000Y-45060000D01*
X191080000Y-47940000D02*
X191080000Y-52036000D01*
X191120000Y-40986000D02*
X191120000Y-45060000D01*
X191120000Y-47940000D02*
X191120000Y-52014000D01*
X191160000Y-41009000D02*
X191160000Y-45060000D01*
X191160000Y-47940000D02*
X191160000Y-51991000D01*
X191200000Y-41032000D02*
X191200000Y-45060000D01*
X191200000Y-47940000D02*
X191200000Y-51968000D01*
X191240000Y-41056000D02*
X191240000Y-45060000D01*
X191240000Y-47940000D02*
X191240000Y-51944000D01*
X191280000Y-41079000D02*
X191280000Y-45060000D01*
X191280000Y-47940000D02*
X191280000Y-51921000D01*
X191320000Y-41104000D02*
X191320000Y-45060000D01*
X191320000Y-47940000D02*
X191320000Y-51896000D01*
X191360000Y-41128000D02*
X191360000Y-45060000D01*
X191360000Y-47940000D02*
X191360000Y-51872000D01*
X191400000Y-41153000D02*
X191400000Y-45060000D01*
X191400000Y-47940000D02*
X191400000Y-51847000D01*
X191440000Y-41179000D02*
X191440000Y-45060000D01*
X191440000Y-47940000D02*
X191440000Y-51821000D01*
X191480000Y-41205000D02*
X191480000Y-45060000D01*
X191480000Y-47940000D02*
X191480000Y-51795000D01*
X191520000Y-41231000D02*
X191520000Y-45060000D01*
X191520000Y-47940000D02*
X191520000Y-51769000D01*
X191560000Y-41258000D02*
X191560000Y-45060000D01*
X191560000Y-47940000D02*
X191560000Y-51742000D01*
X191600000Y-41285000D02*
X191600000Y-45060000D01*
X191600000Y-47940000D02*
X191600000Y-51715000D01*
X191640000Y-41312000D02*
X191640000Y-45060000D01*
X191640000Y-47940000D02*
X191640000Y-51688000D01*
X191680000Y-41341000D02*
X191680000Y-45060000D01*
X191680000Y-47940000D02*
X191680000Y-51659000D01*
X191720000Y-41369000D02*
X191720000Y-45060000D01*
X191720000Y-47940000D02*
X191720000Y-51631000D01*
X191760000Y-41398000D02*
X191760000Y-45060000D01*
X191760000Y-47940000D02*
X191760000Y-51602000D01*
X191800000Y-41428000D02*
X191800000Y-45060000D01*
X191800000Y-47940000D02*
X191800000Y-51572000D01*
X191840000Y-41458000D02*
X191840000Y-45060000D01*
X191840000Y-47940000D02*
X191840000Y-51542000D01*
X191880000Y-41488000D02*
X191880000Y-45060000D01*
X191880000Y-47940000D02*
X191880000Y-51512000D01*
X191920000Y-41519000D02*
X191920000Y-45060000D01*
X191920000Y-47940000D02*
X191920000Y-51481000D01*
X191960000Y-41550000D02*
X191960000Y-51450000D01*
X192000000Y-41582000D02*
X192000000Y-51418000D01*
X192040000Y-41615000D02*
X192040000Y-51385000D01*
X192080000Y-41648000D02*
X192080000Y-51352000D01*
X192120000Y-41682000D02*
X192120000Y-51318000D01*
X192160000Y-41716000D02*
X192160000Y-51284000D01*
X192200000Y-41751000D02*
X192200000Y-51249000D01*
X192240000Y-41786000D02*
X192240000Y-51214000D01*
X192280000Y-41822000D02*
X192280000Y-51178000D01*
X192320000Y-41859000D02*
X192320000Y-51141000D01*
X192360000Y-41896000D02*
X192360000Y-51104000D01*
X192400000Y-41934000D02*
X192400000Y-51066000D01*
X192440000Y-41972000D02*
X192440000Y-51028000D01*
X192480000Y-42012000D02*
X192480000Y-50988000D01*
X192520000Y-42052000D02*
X192520000Y-50948000D01*
X192560000Y-42092000D02*
X192560000Y-50908000D01*
X192600000Y-42134000D02*
X192600000Y-50866000D01*
X192640000Y-42176000D02*
X192640000Y-50824000D01*
X192680000Y-42219000D02*
X192680000Y-50781000D01*
X192720000Y-42262000D02*
X192720000Y-50738000D01*
X192760000Y-42307000D02*
X192760000Y-50693000D01*
X192800000Y-42352000D02*
X192800000Y-50648000D01*
X192840000Y-42399000D02*
X192840000Y-50601000D01*
X192880000Y-42446000D02*
X192880000Y-50554000D01*
X192920000Y-42494000D02*
X192920000Y-50506000D01*
X192960000Y-42543000D02*
X192960000Y-50457000D01*
X193000000Y-42593000D02*
X193000000Y-50407000D01*
X193040000Y-42644000D02*
X193040000Y-50356000D01*
X193080000Y-42697000D02*
X193080000Y-50303000D01*
X193120000Y-42750000D02*
X193120000Y-50250000D01*
X193160000Y-42805000D02*
X193160000Y-50195000D01*
X193200000Y-42861000D02*
X193200000Y-50139000D01*
X193240000Y-42918000D02*
X193240000Y-50082000D01*
X193280000Y-42977000D02*
X193280000Y-50023000D01*
X193320000Y-43037000D02*
X193320000Y-49963000D01*
X193360000Y-43098000D02*
X193360000Y-49902000D01*
X193400000Y-43161000D02*
X193400000Y-49839000D01*
X193440000Y-43226000D02*
X193440000Y-49774000D01*
X193480000Y-43292000D02*
X193480000Y-49708000D01*
X193520000Y-43361000D02*
X193520000Y-49639000D01*
X193560000Y-43431000D02*
X193560000Y-49569000D01*
X193600000Y-43504000D02*
X193600000Y-49496000D01*
X193640000Y-43579000D02*
X193640000Y-49421000D01*
X193680000Y-43657000D02*
X193680000Y-49343000D01*
X193720000Y-43737000D02*
X193720000Y-49263000D01*
X193760000Y-43820000D02*
X193760000Y-49180000D01*
X193800000Y-43906000D02*
X193800000Y-49094000D01*
X193840000Y-43996000D02*
X193840000Y-49004000D01*
X193880000Y-44090000D02*
X193880000Y-48910000D01*
X193920000Y-44188000D02*
X193920000Y-48812000D01*
X193960000Y-44292000D02*
X193960000Y-48708000D01*
X194000000Y-44401000D02*
X194000000Y-48599000D01*
X194040000Y-44516000D02*
X194040000Y-48484000D01*
X194080000Y-44640000D02*
X194080000Y-48360000D01*
X194120000Y-44773000D02*
X194120000Y-48227000D01*
X194160000Y-44918000D02*
X194160000Y-48082000D01*
X194200000Y-45078000D02*
X194200000Y-47922000D01*
X194240000Y-45260000D02*
X194240000Y-47740000D01*
X194280000Y-45473000D02*
X194280000Y-47527000D01*
X194320000Y-45743000D02*
X194320000Y-47257000D01*
X194360000Y-46183000D02*
X194360000Y-46817000D01*
X194370000Y-46500000D02*
G75*
G02*
X181630000Y-46500000I-6370000J0D01*
G01*
X181630000Y-46500000D02*
G75*
G02*
X194370000Y-46500000I6370000J0D01*
G01*
%TO.C,J10*%
D13*
X80300000Y-47928000D02*
X80300000Y-48690000D01*
X80300000Y-47928000D02*
X95540000Y-47928000D01*
X80300000Y-56056000D02*
X95540000Y-56056000D01*
X80300000Y-56310000D02*
X80300000Y-48690000D01*
X80300000Y-57072000D02*
X80300000Y-56056000D01*
X95540000Y-47928000D02*
X95540000Y-48690000D01*
X95540000Y-56056000D02*
X95540000Y-57072000D01*
X95540000Y-56310000D02*
X95540000Y-48690000D01*
X95540000Y-57072000D02*
X80300000Y-57072000D01*
%TO.C,U3*%
D12*
X197860000Y-124330000D02*
X203380000Y-124330000D01*
X197860000Y-124855000D02*
X197860000Y-124330000D01*
X197860000Y-134750000D02*
X197860000Y-134225000D01*
X203380000Y-124330000D02*
X203380000Y-124855000D01*
X203380000Y-134225000D02*
X203380000Y-134750000D01*
X203380000Y-134750000D02*
X197860000Y-134750000D01*
X197120000Y-124850000D02*
X196780000Y-124380000D01*
X197460000Y-124380000D01*
X197120000Y-124850000D01*
G36*
X197120000Y-124850000D02*
G01*
X196780000Y-124380000D01*
X197460000Y-124380000D01*
X197120000Y-124850000D01*
G37*
%TO.C,R3*%
X185573272Y-136460000D02*
G75*
G02*
X185573272Y-134620000I-1453272J920000D01*
G01*
%TO.C,J14*%
D13*
X80300000Y-66928000D02*
X80300000Y-67690000D01*
X80300000Y-66928000D02*
X95540000Y-66928000D01*
X80300000Y-75056000D02*
X95540000Y-75056000D01*
X80300000Y-75310000D02*
X80300000Y-67690000D01*
X80300000Y-76072000D02*
X80300000Y-75056000D01*
X95540000Y-66928000D02*
X95540000Y-67690000D01*
X95540000Y-75056000D02*
X95540000Y-76072000D01*
X95540000Y-75310000D02*
X95540000Y-67690000D01*
X95540000Y-76072000D02*
X80300000Y-76072000D01*
%TO.C,J25*%
D12*
X228275000Y-30300000D02*
X228275000Y-26200000D01*
X230205000Y-30300000D02*
X228275000Y-30300000D01*
X230205000Y-39140000D02*
X230205000Y-30300000D01*
X231015000Y-39834338D02*
X231265000Y-39401325D01*
X231265000Y-39401325D02*
X231515000Y-39834338D01*
X231515000Y-39834338D02*
X231015000Y-39834338D01*
X265565000Y-30300000D02*
X265565000Y-39140000D01*
X265565000Y-39140000D02*
X230205000Y-39140000D01*
X267495000Y-26200000D02*
X267495000Y-30300000D01*
X267495000Y-30300000D02*
X265565000Y-30300000D01*
%TO.C,SW2*%
X223990000Y-100190000D02*
X226710000Y-100190000D01*
X223990000Y-100450000D02*
X223450000Y-100450000D01*
X223990000Y-100450000D02*
X223990000Y-100200000D01*
X223990000Y-102020000D02*
X223990000Y-103980000D01*
X223990000Y-105810000D02*
X223990000Y-105550000D01*
X226700000Y-105810000D02*
X224000000Y-105810000D01*
X226710000Y-100190000D02*
X226710000Y-102200000D01*
X226710000Y-103800000D02*
X226710000Y-105810000D01*
%TO.C,R2*%
X179203272Y-136460000D02*
G75*
G02*
X179203272Y-134620000I-1453272J920000D01*
G01*
%TO.C,C12*%
X205050000Y-77670000D02*
X208690000Y-77670000D01*
X205050000Y-77970000D02*
X205050000Y-77670000D01*
X205050000Y-80010000D02*
X205050000Y-79710000D01*
X208690000Y-77670000D02*
X208690000Y-77970000D01*
X208690000Y-79710000D02*
X208690000Y-80010000D01*
X208690000Y-80010000D02*
X205050000Y-80010000D01*
%TO.C,J6*%
X42890000Y-30660000D02*
X42890000Y-26560000D01*
X44820000Y-30660000D02*
X42890000Y-30660000D01*
X44820000Y-39500000D02*
X44820000Y-30660000D01*
X45630000Y-40194338D02*
X45880000Y-39761325D01*
X45880000Y-39761325D02*
X46130000Y-40194338D01*
X46130000Y-40194338D02*
X45630000Y-40194338D01*
X80180000Y-30660000D02*
X80180000Y-39500000D01*
X80180000Y-39500000D02*
X44820000Y-39500000D01*
X82110000Y-26560000D02*
X82110000Y-30660000D01*
X82110000Y-30660000D02*
X80180000Y-30660000D01*
%TO.C,C5*%
X217980000Y-100180000D02*
X221620000Y-100180000D01*
X217980000Y-100480000D02*
X217980000Y-100180000D01*
X217980000Y-102520000D02*
X217980000Y-102220000D01*
X221620000Y-100180000D02*
X221620000Y-100480000D01*
X221620000Y-102220000D02*
X221620000Y-102520000D01*
X221620000Y-102520000D02*
X217980000Y-102520000D01*
%TO.C,J9*%
D13*
X55300000Y-47928000D02*
X55300000Y-48690000D01*
X55300000Y-47928000D02*
X70540000Y-47928000D01*
X55300000Y-56056000D02*
X70540000Y-56056000D01*
X55300000Y-56310000D02*
X55300000Y-48690000D01*
X55300000Y-57072000D02*
X55300000Y-56056000D01*
X70540000Y-47928000D02*
X70540000Y-48690000D01*
X70540000Y-56056000D02*
X70540000Y-57072000D01*
X70540000Y-56310000D02*
X70540000Y-48690000D01*
X70540000Y-57072000D02*
X55300000Y-57072000D01*
%TO.C,U11*%
D12*
X212160000Y-114595000D02*
X216280000Y-114595000D01*
X212160000Y-114690000D02*
X212160000Y-114595000D01*
X212160000Y-119715000D02*
X212160000Y-119620000D01*
X216280000Y-114595000D02*
X216280000Y-114690000D01*
X216280000Y-119620000D02*
X216280000Y-119715000D01*
X216280000Y-119715000D02*
X212160000Y-119715000D01*
X211620000Y-114685000D02*
X211380000Y-114355000D01*
X211860000Y-114355000D01*
X211620000Y-114685000D01*
G36*
X211620000Y-114685000D02*
G01*
X211380000Y-114355000D01*
X211860000Y-114355000D01*
X211620000Y-114685000D01*
G37*
%TO.C,R1*%
X216163272Y-83450000D02*
G75*
G02*
X216163272Y-81610000I-1453272J920000D01*
G01*
%TO.C,J3*%
D13*
X170920000Y-26968000D02*
X170920000Y-27730000D01*
X170920000Y-26968000D02*
X186160000Y-26968000D01*
X170920000Y-35096000D02*
X186160000Y-35096000D01*
X170920000Y-35350000D02*
X170920000Y-27730000D01*
X170920000Y-36112000D02*
X170920000Y-35096000D01*
X186160000Y-26968000D02*
X186160000Y-27730000D01*
X186160000Y-35096000D02*
X186160000Y-36112000D01*
X186160000Y-35350000D02*
X186160000Y-27730000D01*
X186160000Y-36112000D02*
X170920000Y-36112000D01*
%TO.C,J23*%
X30300000Y-145928000D02*
X30300000Y-146690000D01*
X30300000Y-145928000D02*
X45540000Y-145928000D01*
X30300000Y-154056000D02*
X45540000Y-154056000D01*
X30300000Y-154310000D02*
X30300000Y-146690000D01*
X30300000Y-155072000D02*
X30300000Y-154056000D01*
X45540000Y-145928000D02*
X45540000Y-146690000D01*
X45540000Y-154056000D02*
X45540000Y-155072000D01*
X45540000Y-154310000D02*
X45540000Y-146690000D01*
X45540000Y-155072000D02*
X30300000Y-155072000D01*
%TO.C,C2*%
D12*
X256430000Y-48830000D02*
X260070000Y-48830000D01*
X256430000Y-49130000D02*
X256430000Y-48830000D01*
X256430000Y-51170000D02*
X256430000Y-50870000D01*
X260070000Y-48830000D02*
X260070000Y-49130000D01*
X260070000Y-50870000D02*
X260070000Y-51170000D01*
X260070000Y-51170000D02*
X256430000Y-51170000D01*
%TO.C,C1*%
X228930000Y-81330000D02*
X232570000Y-81330000D01*
X228930000Y-81630000D02*
X228930000Y-81330000D01*
X228930000Y-83670000D02*
X228930000Y-83370000D01*
X232570000Y-81330000D02*
X232570000Y-81630000D01*
X232570000Y-83370000D02*
X232570000Y-83670000D01*
X232570000Y-83670000D02*
X228930000Y-83670000D01*
%TO.C,U7*%
X230660000Y-68545000D02*
X230925000Y-68545000D01*
X230660000Y-76265000D02*
X230660000Y-68545000D01*
X230925000Y-76265000D02*
X230660000Y-76265000D01*
X246015000Y-68545000D02*
X246280000Y-68545000D01*
X246280000Y-68545000D02*
X246280000Y-76265000D01*
X246280000Y-76265000D02*
X246015000Y-76265000D01*
X246020000Y-67755000D02*
X246490000Y-67415000D01*
X246490000Y-68095000D01*
X246020000Y-67755000D01*
G36*
X246490000Y-68095000D02*
G01*
X246020000Y-67755000D01*
X246490000Y-67415000D01*
X246490000Y-68095000D01*
G37*
%TO.C,U1*%
D14*
X259700000Y-99900000D02*
X265100000Y-99900000D01*
X265100000Y-99900000D02*
X265100000Y-113100000D01*
X265100000Y-113100000D02*
X259700000Y-113100000D01*
D15*
X258200000Y-99150000D02*
G75*
G02*
X258000000Y-99150000I-100000J0D01*
G01*
X258000000Y-99150000D02*
G75*
G02*
X258200000Y-99150000I100000J0D01*
G01*
%TO.C,U6*%
D12*
X242760000Y-47730000D02*
X250480000Y-47730000D01*
X242760000Y-47995000D02*
X242760000Y-47730000D01*
X242760000Y-63350000D02*
X242760000Y-63085000D01*
X250480000Y-47730000D02*
X250480000Y-47995000D01*
X250480000Y-63085000D02*
X250480000Y-63350000D01*
X250480000Y-63350000D02*
X242760000Y-63350000D01*
X241970000Y-47990000D02*
X241630000Y-47520000D01*
X242310000Y-47520000D01*
X241970000Y-47990000D01*
G36*
X241970000Y-47990000D02*
G01*
X241630000Y-47520000D01*
X242310000Y-47520000D01*
X241970000Y-47990000D01*
G37*
%TO.C,L3*%
X197500000Y-96500000D02*
X198260000Y-96500000D01*
X210260000Y-96500000D02*
X209500000Y-96500000D01*
X198260000Y-94130000D02*
X209500000Y-94130000D01*
X209500000Y-98870000D01*
X198260000Y-98870000D01*
X198260000Y-94130000D01*
%TO.C,J24*%
X43890000Y-177840000D02*
X45820000Y-177840000D01*
X43890000Y-181940000D02*
X43890000Y-177840000D01*
X45820000Y-169000000D02*
X81180000Y-169000000D01*
X45820000Y-177840000D02*
X45820000Y-169000000D01*
X79870000Y-168305662D02*
X80370000Y-168305662D01*
X80120000Y-168738675D02*
X79870000Y-168305662D01*
X80370000Y-168305662D02*
X80120000Y-168738675D01*
X81180000Y-169000000D02*
X81180000Y-177840000D01*
X81180000Y-177840000D02*
X83110000Y-177840000D01*
X83110000Y-177840000D02*
X83110000Y-181940000D01*
%TO.C,U4*%
X197965000Y-60575000D02*
X202085000Y-60575000D01*
X197965000Y-60670000D02*
X197965000Y-60575000D01*
X197965000Y-65695000D02*
X197965000Y-65600000D01*
X202085000Y-60575000D02*
X202085000Y-60670000D01*
X202085000Y-65600000D02*
X202085000Y-65695000D01*
X202085000Y-65695000D02*
X197965000Y-65695000D01*
X197425000Y-60665000D02*
X197185000Y-60335000D01*
X197665000Y-60335000D01*
X197425000Y-60665000D01*
G36*
X197425000Y-60665000D02*
G01*
X197185000Y-60335000D01*
X197665000Y-60335000D01*
X197425000Y-60665000D01*
G37*
%TO.C,SW1*%
X241110000Y-85230000D02*
X243830000Y-85230000D01*
X241110000Y-85490000D02*
X240570000Y-85490000D01*
X241110000Y-85490000D02*
X241110000Y-85240000D01*
X241110000Y-87060000D02*
X241110000Y-89020000D01*
X241110000Y-90850000D02*
X241110000Y-90590000D01*
X243820000Y-90850000D02*
X241120000Y-90850000D01*
X243830000Y-85230000D02*
X243830000Y-87240000D01*
X243830000Y-88840000D02*
X243830000Y-90850000D01*
%TO.C,C10*%
X205050000Y-70370000D02*
X208690000Y-70370000D01*
X205050000Y-70670000D02*
X205050000Y-70370000D01*
X205050000Y-72710000D02*
X205050000Y-72410000D01*
X208690000Y-70370000D02*
X208690000Y-70670000D01*
X208690000Y-72410000D02*
X208690000Y-72710000D01*
X208690000Y-72710000D02*
X205050000Y-72710000D01*
%TO.C,J27*%
X195510000Y-30370331D02*
X195510000Y-26270331D01*
X197520000Y-30370331D02*
X195510000Y-30370331D01*
X197520000Y-39210331D02*
X197520000Y-30370331D01*
X198330000Y-39904669D02*
X198580000Y-39471656D01*
X198580000Y-39471656D02*
X198830000Y-39904669D01*
X198830000Y-39904669D02*
X198330000Y-39904669D01*
X210720000Y-30370331D02*
X210720000Y-39210331D01*
X210720000Y-39210331D02*
X197520000Y-39210331D01*
X212730000Y-26270331D02*
X212730000Y-30370331D01*
X212730000Y-30370331D02*
X210720000Y-30370331D01*
%TO.C,J16*%
D13*
X80300000Y-86928000D02*
X80300000Y-87690000D01*
X80300000Y-86928000D02*
X95540000Y-86928000D01*
X80300000Y-95056000D02*
X95540000Y-95056000D01*
X80300000Y-95310000D02*
X80300000Y-87690000D01*
X80300000Y-96072000D02*
X80300000Y-95056000D01*
X95540000Y-86928000D02*
X95540000Y-87690000D01*
X95540000Y-95056000D02*
X95540000Y-96072000D01*
X95540000Y-95310000D02*
X95540000Y-87690000D01*
X95540000Y-96072000D02*
X80300000Y-96072000D01*
%TD*%
D16*
%TO.C,J20*%
X32840000Y-131500000D03*
D17*
X37920000Y-131500000D03*
X43000000Y-131500000D03*
%TD*%
D16*
%TO.C,J8*%
X32840000Y-52000000D03*
D17*
X37920000Y-52000000D03*
X43000000Y-52000000D03*
%TD*%
D16*
%TO.C,J15*%
X57500000Y-91500000D03*
D17*
X62580000Y-91500000D03*
X67660000Y-91500000D03*
%TD*%
D16*
%TO.C,J11*%
X32340000Y-71500000D03*
D17*
X37420000Y-71500000D03*
X42500000Y-71500000D03*
%TD*%
D16*
%TO.C,J17*%
X32340000Y-111000000D03*
D17*
X37420000Y-111000000D03*
X42500000Y-111000000D03*
%TD*%
D16*
%TO.C,J19*%
X82920000Y-111000000D03*
D17*
X88000000Y-111000000D03*
X93080000Y-111000000D03*
%TD*%
D16*
%TO.C,J21*%
X57420000Y-131500000D03*
D17*
X62500000Y-131500000D03*
X67580000Y-131500000D03*
%TD*%
D16*
%TO.C,J13*%
X32340000Y-91500000D03*
D17*
X37420000Y-91500000D03*
X42500000Y-91500000D03*
%TD*%
D16*
%TO.C,J12*%
X57340000Y-71500000D03*
D17*
X62420000Y-71500000D03*
X67500000Y-71500000D03*
%TD*%
D16*
%TO.C,J22*%
X82840000Y-131500000D03*
D17*
X87920000Y-131500000D03*
X93000000Y-131500000D03*
%TD*%
D16*
%TO.C,J18*%
X57500000Y-111000000D03*
D17*
X62580000Y-111000000D03*
X67660000Y-111000000D03*
%TD*%
D16*
%TO.C,J10*%
X82840000Y-52500000D03*
D17*
X87920000Y-52500000D03*
X93000000Y-52500000D03*
%TD*%
D16*
%TO.C,J14*%
X82840000Y-71500000D03*
D17*
X87920000Y-71500000D03*
X93000000Y-71500000D03*
%TD*%
D16*
%TO.C,J9*%
X57840000Y-52500000D03*
D17*
X62920000Y-52500000D03*
X68000000Y-52500000D03*
%TD*%
D16*
%TO.C,J3*%
X173460000Y-31540000D03*
D17*
X178540000Y-31540000D03*
X183620000Y-31540000D03*
%TD*%
D16*
%TO.C,J23*%
X32840000Y-150500000D03*
D17*
X37920000Y-150500000D03*
X43000000Y-150500000D03*
%TD*%
D16*
%TO.C,J16*%
X82840000Y-91500000D03*
D17*
X87920000Y-91500000D03*
X93000000Y-91500000D03*
%TD*%
M02*
